<svg xmlns="http://www.w3.org/2000/svg" viewBox="0 0 700 380">
  <defs>
    <linearGradient id="deskBg" x1="0%" y1="0%" x2="0%" y2="100%">
      <stop offset="0%" style="stop-color:#1a1a3e"/>
      <stop offset="100%" style="stop-color:#0f0f2e"/>
    </linearGradient>
    <linearGradient id="dockBg" x1="0%" y1="0%" x2="0%" y2="100%">
      <stop offset="0%" style="stop-color:rgba(255,255,255,0.12)"/>
      <stop offset="100%" style="stop-color:rgba(255,255,255,0.05)"/>
    </linearGradient>
    <filter id="g1"><feGaussianBlur stdDeviation="2" result="b"/><feMerge><feMergeNode in="b"/><feMergeNode in="SourceGraphic"/></feMerge></filter>
    <filter id="shadow"><feDropShadow dx="0" dy="2" stdDeviation="4" flood-color="#000" flood-opacity="0.3"/></filter>
  </defs>

  <!-- Desktop background -->
  <rect width="700" height="380" rx="12" fill="url(#deskBg)"/>
  <rect width="700" height="380" rx="12" fill="none" stroke="rgba(255,255,255,0.08)" stroke-width="1"/>

  <!-- macOS menu bar -->
  <rect width="700" height="24" rx="12" fill="rgba(0,0,0,0.4)"/>
  <rect y="12" width="700" height="12" fill="rgba(0,0,0,0.4)"/>
  <circle cx="18" cy="12" r="2.5" fill="#ff5f57"/>
  <circle cx="30" cy="12" r="2.5" fill="#febc2e"/>
  <circle cx="42" cy="12" r="2.5" fill="#28c840"/>
  <text x="350" y="16" font-family="system-ui, sans-serif" font-size="11" fill="rgba(255,255,255,0.7)" text-anchor="middle" font-weight="500">Murchi</text>

  <!-- Stars -->
  <g opacity="0.4">
    <circle cx="80" cy="60" r="1" fill="white"><animate attributeName="opacity" values="0.2;0.8;0.2" dur="3s" repeatCount="indefinite"/></circle>
    <circle cx="200" cy="90" r="0.8" fill="white"><animate attributeName="opacity" values="0.5;0.2;0.5" dur="2.5s" repeatCount="indefinite"/></circle>
    <circle cx="500" cy="70" r="1.2" fill="white"><animate attributeName="opacity" values="0.3;0.9;0.3" dur="4s" repeatCount="indefinite"/></circle>
    <circle cx="620" cy="100" r="0.7" fill="white"><animate attributeName="opacity" values="0.6;0.1;0.6" dur="2s" repeatCount="indefinite"/></circle>
    <circle cx="400" cy="50" r="1" fill="white"><animate attributeName="opacity" values="0.2;0.7;0.2" dur="3.5s" repeatCount="indefinite"/></circle>
    <circle cx="150" cy="150" r="0.6" fill="white"><animate attributeName="opacity" values="0.7;0.2;0.7" dur="3.2s" repeatCount="indefinite"/></circle>
    <circle cx="550" cy="140" r="0.9" fill="white"><animate attributeName="opacity" values="0.4;0.8;0.4" dur="2.8s" repeatCount="indefinite"/></circle>
  </g>

  <!-- Dock -->
  <rect x="120" y="318" width="460" height="52" rx="14" fill="url(#dockBg)" stroke="rgba(255,255,255,0.1)" stroke-width="0.5"/>
  <rect x="155" y="330" width="28" height="28" rx="7" fill="#3b82f6" opacity="0.7"/>
  <rect x="195" y="330" width="28" height="28" rx="7" fill="#f97316" opacity="0.7"/>
  <rect x="235" y="330" width="28" height="28" rx="7" fill="#8b5cf6" opacity="0.7"/>
  <rect x="275" y="330" width="28" height="28" rx="7" fill="#10b981" opacity="0.7"/>
  <rect x="315" y="330" width="28" height="28" rx="7" fill="#ef4444" opacity="0.7"/>
  <rect x="355" y="330" width="28" height="28" rx="7" fill="#eab308" opacity="0.7"/>
  <rect x="395" y="330" width="28" height="28" rx="7" fill="#06b6d4" opacity="0.7"/>
  <rect x="435" y="330" width="28" height="28" rx="7" fill="#ec4899" opacity="0.7"/>
  <rect x="475" y="330" width="28" height="28" rx="7" fill="#64748b" opacity="0.7"/>
  <rect x="515" y="330" width="28" height="28" rx="7" fill="#a855f7" opacity="0.7"/>

  <!-- ===== KAWAII CAT on dock ===== -->
  <g transform="translate(230, 222) scale(0.85)" filter="url(#g1)">
    <!-- Tail -->
    <path d="M5,72 Q-8,60 -5,48 Q-2,38 5,42" stroke="#8a8aaa" stroke-width="3.5" fill="none" stroke-linecap="round">
      <animate attributeName="d" values="M5,72 Q-8,60 -5,48 Q-2,38 5,42;M5,72 Q-12,58 -8,46 Q-4,36 2,40;M5,72 Q-8,60 -5,48 Q-2,38 5,42" dur="3s" repeatCount="indefinite"/>
    </path>
    <circle cx="-4" cy="42" r="2.5" fill="#6a6a8a"/>
    <!-- Ears -->
    <path d="M18,22 L25,2 L36,20 Z" fill="#9898B0"/>
    <path d="M22,18 L25,6 L32,18 Z" fill="#ffbbcc"/>
    <path d="M54,20 L65,2 L72,22 Z" fill="#9898B0"/>
    <path d="M58,18 L65,6 L68,18 Z" fill="#ffbbcc"/>
    <!-- Head -->
    <ellipse cx="45" cy="36" rx="28" ry="22" fill="#9898B0"/>
    <!-- Eyes -->
    <ellipse cx="35" cy="36" rx="4.5" ry="5.5" fill="white"/>
    <ellipse cx="35" cy="36" rx="3" ry="4.5" fill="#88DD88"/>
    <ellipse cx="35" cy="36" rx="1.2" ry="3.5" fill="#2D2D3F"/>
    <circle cx="33.5" cy="34" r="1" fill="white"/>
    <ellipse cx="55" cy="36" rx="4.5" ry="5.5" fill="white"/>
    <ellipse cx="55" cy="36" rx="3" ry="4.5" fill="#88DD88"/>
    <ellipse cx="55" cy="36" rx="1.2" ry="3.5" fill="#2D2D3F"/>
    <circle cx="53.5" cy="34" r="1" fill="white"/>
    <!-- Blink -->
    <ellipse cx="35" cy="36" rx="5" ry="6" fill="#9898B0" opacity="0">
      <animate attributeName="opacity" values="0;0;0;0;0;0;0;0;1;0;0;0;0;0;0;0;0;0;0;0" dur="4s" repeatCount="indefinite"/>
    </ellipse>
    <ellipse cx="55" cy="36" rx="5" ry="6" fill="#9898B0" opacity="0">
      <animate attributeName="opacity" values="0;0;0;0;0;0;0;0;1;0;0;0;0;0;0;0;0;0;0;0" dur="4s" repeatCount="indefinite"/>
    </ellipse>
    <!-- Nose -->
    <path d="M43,42 L45,44 L47,42 Z" fill="#ffbbcc"/>
    <!-- Mouth -->
    <path d="M41,46 Q45,49 49,46" stroke="#7a7a96" stroke-width="1" fill="none"/>
    <!-- Cheeks -->
    <ellipse cx="26" cy="43" rx="4" ry="2.5" fill="#ffccdd" opacity="0.4"/>
    <ellipse cx="64" cy="43" rx="4" ry="2.5" fill="#ffccdd" opacity="0.4"/>
    <!-- Whiskers -->
    <line x1="16" y1="40" x2="28" y2="42" stroke="#b8b8d0" stroke-width="0.7" opacity="0.5"/>
    <line x1="16" y1="44" x2="28" y2="43" stroke="#b8b8d0" stroke-width="0.7" opacity="0.5"/>
    <line x1="62" y1="42" x2="74" y2="40" stroke="#b8b8d0" stroke-width="0.7" opacity="0.5"/>
    <line x1="62" y1="43" x2="74" y2="44" stroke="#b8b8d0" stroke-width="0.7" opacity="0.5"/>
    <!-- Body -->
    <ellipse cx="45" cy="72" rx="20" ry="16" fill="#9898B0"/>
    <ellipse cx="45" cy="74" rx="12" ry="10" fill="#d4d4e8"/>
    <!-- Collar -->
    <path d="M27,58 Q45,63 63,58" stroke="#FFDD33" stroke-width="2.5" fill="none"/>
    <circle cx="45" cy="61" r="2.5" fill="#55AAFF"/>
    <!-- Paws -->
    <ellipse cx="30" cy="86" rx="7" ry="4" fill="#9898B0"/>
    <ellipse cx="30" cy="87" rx="4" ry="2.5" fill="#F0F0F8"/>
    <ellipse cx="60" cy="86" rx="7" ry="4" fill="#9898B0"/>
    <ellipse cx="60" cy="87" rx="4" ry="2.5" fill="#F0F0F8"/>
    <!-- Breathing -->
    <animateTransform attributeName="transform" type="translate" values="230,222;230,220;230,222" dur="2.5s" repeatCount="indefinite" additive="replace"/>
  </g>

  <!-- ===== KAWAII BEAR on dock ===== -->
  <g transform="translate(380, 222) scale(0.85)" filter="url(#g1)">
    <!-- Ears -->
    <circle cx="20" cy="12" r="11" fill="#c4956a"/>
    <circle cx="20" cy="12" r="6" fill="#e8c9a0"/>
    <circle cx="70" cy="12" r="11" fill="#c4956a"/>
    <circle cx="70" cy="12" r="6" fill="#e8c9a0"/>
    <!-- Head -->
    <ellipse cx="45" cy="36" rx="28" ry="23" fill="#c4956a"/>
    <ellipse cx="45" cy="42" rx="13" ry="9" fill="#e8c9a0"/>
    <!-- Eyes -->
    <circle cx="33" cy="34" r="3.5" fill="#2D2D3F"/>
    <circle cx="31.8" cy="32.5" r="1.3" fill="white"/>
    <circle cx="57" cy="34" r="3.5" fill="#2D2D3F"/>
    <circle cx="55.8" cy="32.5" r="1.3" fill="white"/>
    <!-- Blink -->
    <ellipse cx="33" cy="34" rx="4.5" ry="3.5" fill="#c4956a" opacity="0">
      <animate attributeName="opacity" values="0;0;0;0;0;0;0;0;0;1;0;0;0;0;0;0;0;0;0;0" dur="4.5s" repeatCount="indefinite"/>
    </ellipse>
    <ellipse cx="57" cy="34" rx="4.5" ry="3.5" fill="#c4956a" opacity="0">
      <animate attributeName="opacity" values="0;0;0;0;0;0;0;0;0;1;0;0;0;0;0;0;0;0;0;0" dur="4.5s" repeatCount="indefinite"/>
    </ellipse>
    <!-- Nose -->
    <ellipse cx="45" cy="41" rx="3" ry="2" fill="#2D2D3F"/>
    <!-- Mouth -->
    <path d="M41,44 Q45,48 49,44" stroke="#8a6a4a" stroke-width="1" fill="none"/>
    <!-- Cheeks -->
    <ellipse cx="24" cy="42" rx="4.5" ry="3" fill="#f4a6a0" opacity="0.35"/>
    <ellipse cx="66" cy="42" rx="4.5" ry="3" fill="#f4a6a0" opacity="0.35"/>
    <!-- Body -->
    <ellipse cx="45" cy="72" rx="22" ry="18" fill="#c4956a"/>
    <ellipse cx="45" cy="74" rx="14" ry="12" fill="#e8c9a0"/>
    <!-- Bow tie -->
    <path d="M38,58 L45,62 L52,58 L45,54 Z" fill="#ff6b6b"/>
    <circle cx="45" cy="58" r="2" fill="#ff8888"/>
    <!-- Paws -->
    <ellipse cx="28" cy="86" rx="8" ry="5" fill="#c4956a"/>
    <ellipse cx="28" cy="87" rx="4.5" ry="2.5" fill="#e8c9a0"/>
    <ellipse cx="62" cy="86" rx="8" ry="5" fill="#c4956a"/>
    <ellipse cx="62" cy="87" rx="4.5" ry="2.5" fill="#e8c9a0"/>
    <!-- Breathing -->
    <animateTransform attributeName="transform" type="translate" values="380,222;380,220;380,222" dur="3s" repeatCount="indefinite" additive="replace"/>
  </g>

  <!-- Speech bubble from cat -->
  <g filter="url(#shadow)">
    <rect x="100" y="160" width="150" height="44" rx="12" fill="white" opacity="0.95"/>
    <polygon points="190,204 210,218 200,200" fill="white" opacity="0.95"/>
    <text x="175" y="180" font-family="system-ui, sans-serif" font-size="13" fill="#1a1a2e" text-anchor="middle" font-weight="600">I love fish!</text>
    <text x="175" y="196" font-family="system-ui, sans-serif" font-size="10" fill="#64748b" text-anchor="middle">*purrs happily*</text>
    <animate attributeName="opacity" values="0;0;1;1;1;1;1;0;0;0" dur="7s" repeatCount="indefinite"/>
  </g>

  <!-- Speech bubble from bear -->
  <g filter="url(#shadow)">
    <rect x="450" y="155" width="155" height="44" rx="12" fill="white" opacity="0.95"/>
    <polygon points="495,199 480,215 505,198" fill="white" opacity="0.95"/>
    <text x="527" y="175" font-family="system-ui, sans-serif" font-size="13" fill="#1a1a2e" text-anchor="middle" font-weight="600">Honey time~</text>
    <text x="527" y="191" font-family="system-ui, sans-serif" font-size="10" fill="#64748b" text-anchor="middle">*happy bear noises*</text>
    <animate attributeName="opacity" values="0;0;0;0;1;1;1;1;0;0" dur="7s" repeatCount="indefinite"/>
  </g>

  <!-- Hearts between them -->
  <g filter="url(#g1)">
    <text x="340" y="210" font-size="16" fill="#ff5a80" opacity="0.8">
      <animate attributeName="y" values="210;190;210" dur="3s" repeatCount="indefinite"/>
      <animate attributeName="opacity" values="0.8;0.3;0.8" dur="3s" repeatCount="indefinite"/>
      &#9829;
    </text>
    <text x="355" y="200" font-size="11" fill="#ff5a80" opacity="0.5">
      <animate attributeName="y" values="200;182;200" dur="2.5s" repeatCount="indefinite"/>
      <animate attributeName="opacity" values="0.5;0.1;0.5" dur="2.5s" repeatCount="indefinite"/>
      &#9829;
    </text>
    <text x="330" y="220" font-size="9" fill="#a78bfa" opacity="0.6">
      <animate attributeName="y" values="220;200;220" dur="3.5s" repeatCount="indefinite"/>
      <animate attributeName="opacity" values="0.6;0.2;0.6" dur="3.5s" repeatCount="indefinite"/>
      &#10022;
    </text>
  </g>

  <!-- Stats HUD -->
  <g transform="translate(565, 40)" opacity="0.85">
    <rect width="110" height="80" rx="8" fill="rgba(0,0,0,0.4)" stroke="rgba(255,255,255,0.1)" stroke-width="0.5"/>
    <text x="10" y="18" font-family="system-ui, sans-serif" font-size="8" fill="#94a3b8" font-weight="600">MURCHI LV.3</text>
    <text x="10" y="32" font-family="system-ui, sans-serif" font-size="7" fill="#f472b6">&#9829;</text>
    <rect x="22" y="26" width="50" height="4" rx="2" fill="rgba(255,255,255,0.1)"/>
    <rect x="22" y="26" width="40" height="4" rx="2" fill="#f472b6">
      <animate attributeName="width" values="40;35;40" dur="10s" repeatCount="indefinite"/>
    </rect>
    <text x="78" y="31" font-family="system-ui, sans-serif" font-size="6" fill="#94a3b8">80%</text>
    <text x="10" y="44" font-family="system-ui, sans-serif" font-size="7" fill="#fbbf24">&#9733;</text>
    <rect x="22" y="38" width="50" height="4" rx="2" fill="rgba(255,255,255,0.1)"/>
    <rect x="22" y="38" width="45" height="4" rx="2" fill="#fbbf24"/>
    <text x="78" y="43" font-family="system-ui, sans-serif" font-size="6" fill="#94a3b8">90%</text>
    <text x="10" y="56" font-family="system-ui, sans-serif" font-size="7" fill="#34d399">&#9889;</text>
    <rect x="22" y="50" width="50" height="4" rx="2" fill="rgba(255,255,255,0.1)"/>
    <rect x="22" y="50" width="30" height="4" rx="2" fill="#34d399">
      <animate attributeName="width" values="30;25;30" dur="8s" repeatCount="indefinite"/>
    </rect>
    <text x="78" y="55" font-family="system-ui, sans-serif" font-size="6" fill="#94a3b8">60%</text>
    <rect x="10" y="64" width="90" height="3" rx="1.5" fill="rgba(255,255,255,0.08)"/>
    <rect x="10" y="64" width="55" height="3" rx="1.5" fill="#a78bfa">
      <animate attributeName="width" values="55;58;55" dur="12s" repeatCount="indefinite"/>
    </rect>
  </g>

  <!-- Butterfly -->
  <g opacity="0.9">
    <text x="150" y="130" font-size="16" fill="#f472b6">
      <animate attributeName="x" values="150;200;180;130;150" dur="9s" repeatCount="indefinite"/>
      <animate attributeName="y" values="130;100;120;110;130" dur="9s" repeatCount="indefinite"/>
      &#127803;
    </text>
  </g>

  <!-- Label -->
  <text x="350" y="376" font-family="system-ui, sans-serif" font-size="10" fill="rgba(255,255,255,0.3)" text-anchor="middle">murchi.pet — Desktop Tamagotchi for macOS</text>
</svg>
