<svg xmlns="http://www.w3.org/2000/svg" width="250" height="250" fill="none" viewBox="0 0 250 250">
<!-- SVG created with Arrow, by QuiverAI (https://quiver.ai) -->
  <path d="m161.5 33.27c15.41-13.14 34.6-21.99 52.49-22.26 8.22-0.13 11.32 2.97 12.91 11.05 3.67 19.2 1.44 46-5.14 69.55l-60.26-58.34z" fill="url(#paint0_linear_2043_11400)"/>
  <path d="m179.1 41.12c11.74-7.16 20.74-12.94 27.1-11.85 10.74 1.96 5.45 26.07 2.05 38.45l-29.15-26.6z" fill="#FFC8A2"/>
  <path d="m87.17 32.92c-15.56-13.06-34.69-21.61-51.76-21.64-7.55-0.01-10.64 2.59-12.6 10.67-4.06 17.06-2.78 43.34 4.14 69.12l60.22-58.15z" fill="url(#paint1_linear_2043_11400)"/>
  <path d="m70.01 40.63c-11.63-6.4-20.65-10.61-27-11.5-10.74-1.45-7.4 21.05-3.4 38.73l30.4-27.23z" fill="#FFC8A2"/>
  <path d="m226.4 117.7h13c3.33 0 3.97 2.36 3.97 3.99 0 1.96-1.44 3.55-3.97 3.62l-13 0.49c-4.44 0.27-6.26-0.93-6.26-3.9 0-2.68 1.59-4.2 6.26-4.2z" fill="url(#paint2_linear_2043_11400)"/>
  <path d="m222.7 135 13.21 4.44c2.9 1.06 2.83 3.08 2.26 4.9-0.69 2.23-2.71 2.79-5.25 2.03l-13.48-3.77c-3.4-1.13-4.74-2.88-3.92-5.42 0.89-2.74 3.43-3.38 7.18-2.18z" fill="url(#paint3_linear_2043_11400)"/>
  <path d="m175.1 198.6c16.19-2.24 23.89-17.58 34.9-24.3 13.07-7.16 21.62 3.48 23.64 11.03 3.75 13.89-8.82 27.78-25.01 32.28-12.16 4.12-21.16 4.61-30.98 4.61l-2.55-23.62z" fill="url(#paint4_linear_2043_11400)"/>
  <path d="m82.92 178.1c-10.09 17.68-13.84 37.89-10.87 48.19 2.67 9.35 12.36 9.35 27.7 7.9l4.51-1.45 41.65 0.96c11.01 2.4 27.07 1.94 30.28-4.41 4.51-9-0.51-32.07-8.48-51.6l-39.53-5.85-45.26 6.26z" fill="url(#paint5_linear_2043_11400)"/>
  <path d="m72.71 225.8c2.02-8.69 10-10.71 19.82-9.64l0.42-6.07c0.42 7.98 2.96 18.21 8.8 24.06-10.5 2.02-26.64 3.01-29.04-8.35z" fill="url(#paint6_linear_2043_11400)"/>
  <path d="m156.7 216.1c8.41-0.42 17.23 1.6 20.13 8.83 0.89 8.44-6.66 10.33-19.72 9.77-3.4-0.14-6.93-0.77-9.61-2.08 5.42-4.51 8.17-11.37 9.61-23.53l-0.41 7.01z" fill="url(#paint7_linear_2043_11400)"/>
  <path d="m82.03 180.2c0.76-1.59 1.52-3.03 2.35-4.55l83.33 1.31 1.13 3.59c-20.73 6.49-60.98 7.62-86.81-0.35z" fill="url(#paint8_linear_2043_11400)"/>
  <path d="m123.7 26.71c-58.47 0-101.4 39.02-101.4 90.51 0 36.44 25.83 57.64 68.02 60.38 9.69 1.23 23.79 1.51 33.88 1.51 11.22 0 22.82-0.92 32.51-2.05 41.11-3.9 69.91-22.2 69.91-59.84 0-45.77-40.02-90.51-102.9-90.51z" fill="url(#paint9_linear_2043_11400)"/>
  <path d="m171.8 82.11c-14.8 0-25.47 14.8-25.47 28.21 0 14.39 10.87 24.62 24.92 24.62 14.46 0 25.6-12.02 25.6-26.14 0-13.89-11-26.69-25.05-26.69z" fill="#fff"/>
  <path d="m166.9 89.41c-11.6 0-20.15 11-20.15 21.5 0 11.4 8.69 20.54 19.69 20.54 11.15 0 19.7-11.01 19.7-21.37 0-10.77-8.41-20.67-19.24-20.67z" fill="#2D2D2D"/>
  <path d="m161.5 95.12c-4.3 0-5.75 3.21-5.75 5.51 0 3.53 2.81 5.62 5.34 5.62 3.68 0 5.85-2.9 5.85-5.44 0-3.1-2.4-5.69-5.44-5.69z" fill="#fff"/>
  <path d="m76.41 82.11c14.53-0.9 26.3 12.66 26.3 26.69 0 13.89-11.15 26.35-25.61 26.35-14.05 0-25.05-12.02-25.05-26.14 0-13.41 9.86-26.9 24.36-26.9z" fill="#fff"/>
  <path d="m82.92 89.27c11.01 0 19.24 10.77 19.24 21.78 0 11.4-8.69 20.54-19.24 20.54s-20.15-10.16-20.15-20.99c0-11.54 9.35-21.33 20.15-21.33z" fill="#2D2D2D"/>
  <path d="m87.84 95.12c4.3 0 5.75 3.21 5.75 5.51 0 3.53-2.81 5.62-5.34 5.62-3.68 0-5.85-2.9-5.85-5.44 0-3.1 2.4-5.69 5.44-5.69z" fill="#fff"/>
  <path d="m124.4 117.2c-7.16 0-10.62 1.45-10.62 5.09 0 3.71 6.36 9.42 10.62 9.42 4.58 0 10.8-6.72 10.8-9.42 0-3.64-4-5.09-10.8-5.09z" fill="#FF91A4"/>
  <path d="m107.1 133.8c-1.66 0.49-1.66 2.31-1.03 3.86 2.68 5.56 10.44 7.58 15.46 5.56 1.3-0.56 2.33-1.31 3.09-2.31 1.69 2.55 4.53 3.28 7.57 2.96 5.78-0.65 10.66-4.91 11.15-7.76 0.21-1.37-0.78-2.65-2.23-2.45-1.75 0.28-1.89 2.03-3.02 3.3-1.89 2.16-4.29 2.61-6.72 2.16-3.33-0.69-3.75-3.01-3.75-6.41h-4.85c0 2.67-0.14 5.41-3.11 6.41-3.04 1.06-6.93-0.14-9.1-3.46-0.83-1.38-1.82-2.34-3.46-1.86z" fill="url(#paint10_linear_2043_11400)"/>
  <path d="m20.51 117.7h-9.95c-3.33 0-4.53 2.02-4.56 3.92-0.04 2.23 1.55 4.11 4.56 4.11l14.15-0.21c4.23 0 5.3-2.16 4.95-4.7-0.35-2.4-2.01-3.39-9.15-3.12z" fill="url(#paint11_linear_2043_11400)"/>
  <path d="m26.43 135.4-12.71 3.89c-2.9 1.06-2.83 3.74-2.27 5.05 1 2.43 3.02 2.64 5.28 2.08l13.76-3.97c3.4-1.13 3.82-3.37 2.92-5.7-1.06-2.54-3.9-2.4-6.98-1.35z" fill="url(#paint12_linear_2043_11400)"/>
  <path d="m196 130.1c-9 1.24-13.92 6.7-13.92 10.59 0 5.09 5.35 6.98 10.2 6.49 6.8-0.69 14.1-5.02 14.1-9.89 0-4.51-3.54-7.84-10.38-7.19z" fill="#FFC8A2"/>
  <path d="m49.81 130.6c-6.49 0.35-7.8 4.25-7.66 7.15 0.38 6.36 7.31 9.44 15.28 9.79 6.46 0.27 9.43-3.29 9.29-7.19-0.21-5.78-9.5-10.17-16.91-9.75z" fill="#FFC8A2"/>
  <path d="m121.7 211.5h5.6c-0.42 5.85-0.7 14.53 0.99 20.1 1.44 5.21 5.95 6.04 9.98 6.04 11.4 0 17.76-13.21 18.79-28.54l-0.89 7.01c-1.03 6.72-5.3 16.04-8.72 18.57-3.14 2.33-5.57 3.03-9.83 2.96-5.85-0.14-8.95-2.68-10.04-6.04h-5.38c-1.52 4.26-3.92 6.21-10.13 6.21-11.01 0-17.36-10.71-19.38-28.71l0.49 7.01c0.56 6 3.03 12.72 7.88 18 3.16 2.97 6.52 3.6 9.95 3.53 5.71-0.14 8.67-2.3 9.86-9.6 0.69-4.26 0.83-10.23 0.83-16.54z" fill="url(#paint13_linear_2043_11400)"/>
  <defs>
    <linearGradient id="paint0_linear_2043_11400" x1="173" x2="222.6" y1="17.31" y2="85.12" gradientUnits="userSpaceOnUse">
      <stop stop-color="#FFC8A2" offset="0"/>
      <stop stop-color="#E0A070" offset="1"/>
    </linearGradient>
    <linearGradient id="paint1_linear_2043_11400" x1="30.6" x2="77.19" y1="16.07" y2="83.28" gradientUnits="userSpaceOnUse">
      <stop stop-color="#FFC8A2" offset="0"/>
      <stop stop-color="#E0A070" offset="1"/>
    </linearGradient>
    <linearGradient id="paint2_linear_2043_11400" x1="231.8" x2="231.8" y1="117.7" y2="126" gradientUnits="userSpaceOnUse">
      <stop stop-color="#E0A070" offset="0"/>
      <stop stop-color="#E0A070" offset="1"/>
    </linearGradient>
    <linearGradient id="paint3_linear_2043_11400" x1="227.1" x2="227.1" y1="134.2" y2="146.9" gradientUnits="userSpaceOnUse">
      <stop stop-color="#E0A070" offset="0"/>
      <stop stop-color="#E0A070" offset="1"/>
    </linearGradient>
    <linearGradient id="paint4_linear_2043_11400" x1="192.8" x2="192.8" y1="172.2" y2="222.2" gradientUnits="userSpaceOnUse">
      <stop stop-color="#E0A070" offset="0"/>
      <stop stop-color="#E0A070" offset="1"/>
    </linearGradient>
    <linearGradient id="paint5_linear_2043_11400" x1="125.3" x2="125.3" y1="171.9" y2="236.2" gradientUnits="userSpaceOnUse">
      <stop stop-color="#FFC8A2" offset="0"/>
      <stop stop-color="#FFC8A2" offset="1"/>
    </linearGradient>
    <linearGradient id="paint6_linear_2043_11400" x1="87" x2="87" y1="209.1" y2="235.3" gradientUnits="userSpaceOnUse">
      <stop stop-color="#E0A070" offset="0"/>
      <stop stop-color="#E0A070" offset="1"/>
    </linearGradient>
    <linearGradient id="paint7_linear_2043_11400" x1="162.5" x2="162.5" y1="209.1" y2="235" gradientUnits="userSpaceOnUse">
      <stop stop-color="#E0A070" offset="0"/>
      <stop stop-color="#E0A070" offset="1"/>
    </linearGradient>
    <linearGradient id="paint8_linear_2043_11400" x1="125.4" x2="125.4" y1="175.7" y2="186.7" gradientUnits="userSpaceOnUse">
      <stop stop-color="#E0A070" offset="0"/>
      <stop stop-color="#E0A070" offset="1"/>
    </linearGradient>
    <linearGradient id="paint9_linear_2043_11400" x1="109.9" x2="130.3" y1="26.71" y2="178.9" gradientUnits="userSpaceOnUse">
      <stop stop-color="#FFC8A2" offset="0"/>
      <stop stop-color="#FFC8A2" offset="1"/>
    </linearGradient>
    <linearGradient id="paint10_linear_2043_11400" x1="124.6" x2="124.6" y1="128.9" y2="144" gradientUnits="userSpaceOnUse">
      <stop stop-color="#C06838" offset="0"/>
      <stop stop-color="#C06838" offset="1"/>
    </linearGradient>
    <linearGradient id="paint11_linear_2043_11400" x1="17.86" x2="17.86" y1="117.6" y2="125.7" gradientUnits="userSpaceOnUse">
      <stop stop-color="#E0A070" offset="0"/>
      <stop stop-color="#E0A070" offset="1"/>
    </linearGradient>
    <linearGradient id="paint12_linear_2043_11400" x1="22.44" x2="22.44" y1="134.4" y2="146.8" gradientUnits="userSpaceOnUse">
      <stop stop-color="#E0A070" offset="0"/>
      <stop stop-color="#E0A070" offset="1"/>
    </linearGradient>
    <linearGradient id="paint13_linear_2043_11400" x1="124.6" x2="124.6" y1="209.1" y2="237.7" gradientUnits="userSpaceOnUse">
      <stop stop-color="#E0A070" offset="0"/>
      <stop stop-color="#E0A070" offset="1"/>
    </linearGradient>
  </defs>
</svg>