<svg xmlns="http://www.w3.org/2000/svg" width="200" height="200" fill="none" viewBox="0 0 200 200">
<!-- SVG created with Arrow, by QuiverAI (https://quiver.ai) -->
  <path d="m193 60.98c-8.86-4.27-21.87-6.25-32.59-7.01-1.4-6.02-6.48-8.8-13.23-13.9 1.63-1.76 2.12-3.89 1.83-4.95-1.12-4.06-9.8-6.33-14.18-5.32-3.39 0.79-3.28 2.49-2.86 6.81-9.24 1.16-21.32 2.66-21.93 13.12-0.05 0.85-0.15 1.18-1.29 0.95-12.42-2.69-28.12-3.4-43.25 2.51-5.34 2.22-2.57 9.14-0.39 12.33-23.34-1.09-53.61 10.85-58.72 43.59-0.76 4.98-1.09 10.56-0.28 14.87-5.12 13.18 0.13 31.05 20.14 40.06 18.72 8.5 46.05 7.71 61.49 0.67 5.1-2.4 8.77-5.04 10.77-7.42 8.82 2.43 27.69 2.34 32.98-1.17 1.01-0.67 2.12-1.96 2.12-1.96 3.8 3.56 11.74 3.46 18.47 2.15 10.69-2 21.93-8.35 20.06-19.74-0.33-1.69-1-3.09-1.3-3.65 4.5-3.36 8.14-7.61 9.96-11.08 3.04 1.37 5.39 3.27 7.21 5.31 0.94 0.57 0.92-0.9 0.45-1.46-1.69-2.03-3.83-3.68-6.43-4.98 0.73-1.78 1.17-3.03 1.67-4.83 3.34 0.45 6.3 1.31 8.49 2.38 0.97 0.39 1.1-1.03 0.31-1.47-2.37-1.34-5.3-2.2-8.25-2.8 0.55-2.2 0.8-4.2 0.93-5.63 3.64-0.4 6.8-0.1 9.02 0.53 1.07 0.29 1.1-1.18 0.09-1.52-2.29-0.81-5.44-1.02-8.97-0.69 0.46-6.62-2.51-15.54-5.29-23.52 7.06-4.72 12.1-10.95 14.4-17 1-2.38 0.63-4.35-1.43-5.18z" fill="#000" stroke="#000" stroke-linecap="round" stroke-linejoin="round" stroke-width="1.08"/>
  <path d="m160.4 55.36c9.8 0.05 23.33 2.65 32.17 6.36 2.27 0.97 2.16 3.34 0.83 6.19-3.66 7.82-9.09 12.55-14.04 15.54l-6.05-12.52-12.91-15.57z" fill="#E0A070" stroke="#000" stroke-linecap="round" stroke-linejoin="round" stroke-width="1.08"/>
  <path d="m192.3 63.05c-5.12 5.91-7.56 10.86-16.8 14.02l2.16 4.7c6.19-4.06 12.01-10.51 14.64-18.72z" fill="#E0A070"/>
  <path d="m66.36 54.21c11.96-5.43 28.82-5.22 42.05-2.05 1.3 0.4 2.01-0.17 2.01-1.93 0-9.02 9.9-12.12 22.36-12.9l13.58 1.59c6.95 5.91 12.38 8.17 12.55 15.99 0.16 6.45-5.12 8.71-10.07 7.28-5.43-1.59-9.49-4.18-15.08-4.35-6.78 1.13-16.85 2.14-21.23-4.61-1.12-1.01-3.38 0.49-4.67 0.08-12.62-4.15-28.98-3.2-41.17 1.6-2.85 1.17-2.68 4.02-0.75 8.22 3.39 7.66 8.18 13.57 13.93 19-3.75 7.49-5.06 14.82-4.05 22.97-2.85-0.32-5.73-0.29-8.7 0.89-0.84 0.39-0.34 1.68 0.59 1.35 2.63-0.85 5.26-0.85 8.28-0.28 0.24 2.03 0.6 3.87 1.12 5.64-2.4 0.53-5.03 1.42-7.74 3.01-0.81 0.56-0.41 1.6 0.56 1.21 2.47-1.04 4.86-1.85 7.83-2.27 0.73 2.03 1.3 3.12 1.97 4.47-2.26 1.29-4.52 2.96-6.68 5.55-0.73 0.85 0.32 1.66 1.13 0.85 2.04-2.04 3.98-3.44 6.24-4.64 6.29 9.24 16.03 15.53 23.9 18.04-4.44-0.24-6.6 0-6.6 0.33 0 0.47 1.4 0.47 4.03 0.47 5.54 0 9.14 1.25 12.71 1.9 7.81 1.43 15.46 2.54 18.31 8.45 1.76 4.22-1.21 6.17-5.51 7.14-8.95 1.76-17.63 0.75-27.21-1.13 1.01-4.72-0.84-11.64-9.33-12.11-3.66-0.24-6.51 0.87-9.55 1.34-2.16-1.94-1.99-6.66-1.52-10.71 0.08-0.85-1.08-0.93-1.33 0-1.2 3.72-1.11 7.78-0.56 11.25l-3.05 1.11c-1.94-3.9-5.74-5.34-10.45-5.58 6.58-9.24 5.76-26.3-8.94-34.66-5.35-3.16-12.92-3.16-18.04-0.17-0.73 0.39-0.4 0.72 0.33 0.47 11.2-3.21 20.14 1.74 25.17 10.42 4.6 7.9 3.3 18.28-2.8 26.02 6.1-1.35 10.73 0.41 13.2 4.31-11.71 4.31-28.07 4.31-39.47 0.76-6.95-2.38-13.53-7.1-14.34-11.16-0.39-1.01-0.98 0.24-0.65 1.36 1.54 5.08 8.04 9.88 16.53 11.92 11.79 2.99 24.48 2.12 35.46-1.19 7.37-2.18 12.07-4.54 18.9-5.02 8.11-0.47 10.37 5.11 9.16 9.6-2.63 9.02-16.75 13.58-32.03 15.02-14.7 1.29-32.46-1.65-42.12-7.08-15.61-9.02-19.5-22.26-17.47-35.16l1.3 1.94-0.93-10.95c1.01-27.7 20.64-50.75 53.29-51.4l6.2-0.08c-3.39-5.21-4.83-10.41-0.65-12.12z" fill="#E0A070" stroke="#000" stroke-linecap="round" stroke-linejoin="round" stroke-width="1.08"/>
  <path d="m160.1 57.04c10.31 6.74 18.04 19.02 22.79 39.67 2.71 10.21 1.87 15.45-2.59 24.17-5.6 10.13-15.67 16.41-29.87 19.09-13.69 2.76-29.22 2.76-43.14-1.65-15.45-5.07-25.76-14.88-28.73-30.85-1.46-8.53-0.45-17.56 3.05-25.87-7.37-5.19-12.91-13.53-14.85-18.88 3.23 5.91 7.93 12.26 14.03 15.72 0.94 0.49 2.96-0.08 3.05-1.54 1.3-5.07 5.18-9.68 10.05-11.64-7.45-4.31-13.95-6.49-23.36-7.05-2.27-0.16-2.51 2.61-1.83 3.9l-0.52-1.88c-0.57-2.18 0.44-3.11 2.47-2.95 9.16 0.69 14.69 2.14 23.49 7.23-5.24 2.26-8.72 7.45-9.83 12.23-0.39 1.37-1.36 1.13-2.09 0.57-5.33-3.9-9.76-10.25-12.22-15.28-1.1-2.38-1.01-4.5 1.45-4.5 8.41-0.09 16.44 1.65 23.81 6.29 0.57 0.4 0.33 2.16-1.37 2.24-4.38 0.25-8.83 6.16-9.85 10.35 3.13-7.53 6.16-10.02 10.02-11.39-8.05-5.6-15.34-6.44-23.2-7.01-1.55-0.16-2.36 0.77-2.16 2.06-0.6-2.14 0.12-3.36 2.32-3.44 8.84-0.24 16.79 0.49 25.18 5.48 0.81 0.49 0.81 2.63-1.31 3.32 4.21-1.97 8.51-3.4 13.03-2.3 1.93 0.49 2.18-2.98 3.19-2.05 5.04 4.64 11.62 4.23 19.35 2.94 4.45-0.73 9.4 1.9 14.94 3.49 6.19 1.85 11.73-0.33 13.66-4.46 3.66 1.96 7.4 4.86 10.54 8.17 0.73 0.85 1.2-0.91 0.29-1.94-2.63-3.16-6.1-6.23-9.79-8.81v-3.43z" fill="#E0A070"/>
  <path d="m65.61 68.88c-23.69-0.73-51.7 10.13-57.08 39.15 4.95-25.41 25.5-39.07 57.08-39.15z" fill="#FFE4CC"/>
  <path d="m133.5 147.4c2.04-3.98 5.26-4.47 10.46-5.13 4.37-0.57 8.25-1.58 12.79-3.34l2.07 3.55c2.18 3.29 8.08 2.2 9.2-1.79 0.73-2.49-0.21-4.61-1.89-5.62l2.62-1.59c2.63 2.69 2.96 8.76-0.61 13.76-5.34 6.36-14.2 8.4-21.77 8.4-7.03 0-14.17-1.19-12.87-8.24z" fill="#E0A070" stroke="#000" stroke-linecap="round" stroke-linejoin="round" stroke-width="1.08"/>
  <path d="m135.1 150.7c3.12 2.58 9.15 2.5 14.97 1.07 7.04-1.77 12.71-4.68 16.02-8.74-2.87 3.16-6.09 3.57-8.13 3-2.75-0.85-2.59-4.03-3.8-5.25-3.88 1.67-7.13 1.88-11.34 2.73-3.97 0.85-7.11 2.61-7.72 7.19z" fill="#E0A070"/>
  <path d="m84.74 116.9c7.37 11.84 21.49 19.2 42.6 19.85 11.68 0.44 20.28-0.73 27.74-3.02l3.04 2.46c-9.57 4.48-24.36 5.82-38.04 3.43-15.76-2.7-28.3-8.69-37.06-19.97l1.72-2.75z" fill="#E0A070"/>
  <path d="m68.45 135c0.76 2.16 2.26 3.01 4.81 2.85 2.12-0.16 3.41 0.88 3.98 2.39l0.23 4.64-2.09 0.77c-1.76-3.74-5.37-5.33-10.24-5.72l3.31-4.93z" fill="#E0A070"/>
  <path d="m98.12 151.4c4.79 2.67 12.8 3.78 19.74 3.45 4.45-0.24 9.15-0.94 12.95-2.9l1.12 1.27c-4.87 3.86-20.48 4.18-31.88 1.59l-1.93-3.41z" fill="#E0A070"/>
  <path d="m7.07 133.1c0.65 10.3 7.07 20.85 19.12 25.49 17.84 7.28 39.42 7.85 56.44 2.18 6.69-2.42 11.81-5.47 15.09-8.62-2.54 5.75-9.65 11.55-23.46 14.29-17.02 2.98-36.57 0.33-48.15-5.51-12.63-6.61-19.04-16.18-19.04-27.83z" fill="#E0A070"/>
  <path d="m132.8 30.61c3.39-1.68 9.33-1.03 13.85 2.44 3.13 2.28 2.74 4.04 0.96 6.3-1.21 1.59-1.82 2.32-4.77 2.32-5.04 0-10.57-2.95-11.06-5.54-0.49-2.26-0.66-4.52 1.02-5.52z" fill="#000" stroke="#000" stroke-linecap="round" stroke-linejoin="round" stroke-width="1.08"/>
  <path d="m133 31.44c3.39-1.68 7.99-1.03 12.51 1.78 3.14 1.94 3.14 3.53 1.84 4.89-1.65 1.76-3.25 2-5.63 1.67-5.04-0.69-8.93-2.69-9.42-4.86-0.49-1.7-0.57-2.71 0.7-3.48z" fill="#C1E8F0" stroke="#000" stroke-linecap="round" stroke-linejoin="round" stroke-width="1.08"/>
  <path d="m114.1 42.16c-3.56 3.08-3.95 6.71-2.01 10.6 2.86 5.08 9.52 5.65 16.89 4.56 6.48-1.04 8.26-0.61 15.02 1.85 6.76 2.59 12.29 2.59 13.99-2.84 1.67-5.6-1.99-9.81-10.48-14.99l-1.45-2.25c-1.85 1.68-5.18 1.52-8.32 0.49-2.97-1.02-4.8-2.49-5.3-3.57-7.28 0.73-13.6 1.94-18.34 6.15z" fill="#76CBEA" stroke="#000" stroke-linecap="round" stroke-linejoin="round" stroke-width="1.08"/>
  <path d="m113.9 42.4c-2.87 2.84-2.38 6.83 1.1 9.51 4.44 3.33 8.57 2.76 15.47 2.01 6.56-0.69 10.13 1.15 15.74 3.32 4.6 1.69 9.72 1.17 10.69-2.57 0.57-2.28-0.45-4.64-2.22-4.15-2.63 0.73-3.12-0.41-3.61-3.1" fill="#89D3F5"/>
  <path d="m124.6 43.91c3.05-2.78 6.35-4.66 9.4-5.07" stroke="#000" stroke-linecap="round" stroke-linejoin="round" stroke-width="1.08"/>
  <path d="m136.8 47.82c0.33-2.9 0.99-5.01 2.56-5.66 2.63-1.1 6.68 1.75 9.06 6.46" stroke="#000" stroke-linecap="round" stroke-linejoin="round" stroke-width="1.08"/>
  <path d="m118.8 76.33c-2.14 3.38-5.1 4.22-8.84 4.63" stroke="#000" stroke-linecap="round" stroke-linejoin="round" stroke-width="2.16"/>
  <path d="m109.9 84.73c-8.94 0.41-13.81 8.4-13.4 16.56 0.49 8.56 6.69 16.48 14.25 16.07 8.3-0.49 14.7-8.43 14.7-17.29 0-8.45-7.16-15.7-15.55-15.34z" fill="#000" stroke="#000" stroke-linecap="round" stroke-linejoin="round" stroke-width="1.08"/>
  <path d="m110.6 85.06c-7.72 0-13.46 6.27-13.46 14.17 0 0.67 0.05 1.33 0.14 1.98l27.3-5.19c-1.45-6.27-6.69-10.96-13.98-10.96z" fill="#E0A070"/>
  <path d="m97.72 102.2c1.89 6.46 7.19 10.77 13.49 10.52 7.56-0.33 13-6.99 13.16-14.61 0-0.62-0.05-1.24-0.14-1.85l-15.45 3.28-11.06 1.36c-0.16 0.69-0.16 0.61 0 1.3z" fill="#FEFFFE" stroke="#000" stroke-linecap="round" stroke-linejoin="round" stroke-width="1.08"/>
  <path d="m106.9 101.2 4.21-1.1 11.14-2.47c0.25 0.77 0.09 1.97-0.16 3.08-1.38 5.35-5.04 7.21-8.69 6.89-3.14-0.24-5.48-1.94-6.21-3.89l2.54-0.85-2.83-1.66z" fill="#000"/>
  <path d="m157.1 85.47c-7.94 0.65-11.41 8.19-11.16 14.47 0.33 7.92 6.73 14.67 13.85 14.26 7.56-0.49 12.9-8.03 12.9-15.58 0-7.2-7.25-13.8-15.59-13.15z" fill="#000" stroke="#000" stroke-linecap="round" stroke-linejoin="round" stroke-width="1.08"/>
  <path d="m158.4 86.04c-6.84-0.41-11.14 5.02-11.63 10.37l25.1 4.72c0.41-1.52 0.41-2.35 0.33-4.02-0.66-6.21-6.2-10.62-13.8-11.07z" fill="#E0A070"/>
  <path d="m147.1 97.64c-0.65 7.38 5.07 13.37 11.71 13.13 5.94-0.25 10.64-4.81 12.44-9.85l-11.4-1.77-11.31-2.74c-0.73-0.17-1.3 0-1.44 1.23z" fill="#FEFFFE" stroke="#000" stroke-linecap="round" stroke-linejoin="round" stroke-width="1.08"/>
  <path d="m159.3 101.1 4.7 0.65c-1.01 1.86-2.95 2.87-4.56 1.94l-0.14-2.59z" fill="#000"/>
  <path d="m150.3 77.35c1.94 3.07 4.9 4.01 8.13 4.09" stroke="#000" stroke-linecap="round" stroke-linejoin="round" stroke-width="2.16"/>
  <path d="m134.6 109.2c-2.44 0.57-1.95 3.24 1.1 4.75 2.71 1.29 3 1.12 4.21 0 2.46-2.27 3.57-4.95-0.24-5.12-1.94-0.08-3.3-0.08-5.07 0.37z" fill="#FF91A4" stroke="#000" stroke-linecap="round" stroke-linejoin="round" stroke-width="1.08"/>
  <path d="m137.8 121 7.84-0.33 16.67 13.71c2.45 1.01 5.66 1.01 6.15 4.65 0.49 3.98-2.47 5.76-4.83 5.76-3.23 0-4.99-2.44-5.49-5.51l-21.07-16.06 0.73-2.22z" fill="#FEFFFE" stroke="#000" stroke-linecap="round" stroke-linejoin="round" stroke-width="1.08"/>
  <path d="m146.4 127.8 12.95 9.81c1.54 0.57 1.69 0.4 2.02 2.2 0.49 2.3 1.79 2.63 3.26 2.38 1.6-0.32 2.17-1.91 1.85-3.5-0.41-1.76-2-2.41-3.77-2.08l-14.74-10.6-1.57 1.79z" fill="#D8422E" stroke="#000" stroke-linecap="round" stroke-linejoin="round" stroke-width=".72"/>
  <path d="m147.9 128.9-0.84 1.01" stroke="#000" stroke-linecap="round" stroke-linejoin="round" stroke-width="1.08"/>
  <path d="m150.1 130.6-1.01 1.21" stroke="#000" stroke-linecap="round" stroke-linejoin="round" stroke-width="1.08"/>
  <path d="m152.5 132.4-1.26 1.45" stroke="#000" stroke-linecap="round" stroke-linejoin="round" stroke-width="1.08"/>
  <path d="m154.7 134.1-1.27 1.54" stroke="#000" stroke-linecap="round" stroke-linejoin="round" stroke-width="1.08"/>
  <path d="m130.1 125.8c1.94-2.58 4.71-3.6 7.67-3.68l7.64-0.41" stroke="#000" stroke-linecap="round" stroke-linejoin="round" stroke-width="1.4"/>
  <path d="m137.8 114.7-0.16 6.42" stroke="#000" stroke-linecap="round" stroke-linejoin="round" stroke-width="1.4"/>
  <path d="m180.1 108.8c3.05-1.01 8.4-1.74 13.6-0.45" stroke="#000" stroke-linecap="round" stroke-linejoin="round" stroke-width="1.4"/>
  <path d="m179 114.8c3.79 0.41 8.5 1.93 12.72 3.38" stroke="#000" stroke-linecap="round" stroke-linejoin="round" stroke-width="1.4"/>
  <path d="m176.9 120.1c3.39 1.21 8.09 4.51 10.98 7.19" stroke="#000" stroke-linecap="round" stroke-linejoin="round" stroke-width="1.4"/>
  <path d="m72.52 62.35c3.8-1.19 9.03 0.62 14.95 3.96l-3.74 10.1c-4.87-2.5-10.31-10.1-11.21-14.06z" fill="#FFE4CC"/>
</svg>