<svg xmlns="http://www.w3.org/2000/svg" width="200" height="200" fill="none" viewBox="0 0 200 200">
<!-- SVG created with Arrow, by QuiverAI (https://quiver.ai) -->
  <path d="m66.19 34.07c1.43-9.25 7.66-22.86 12.44-22.86 7.36 0 19.18 16.53 23.4 26.36l0.31 0.39c6.64 4.81 13.59 9.52 16.37 14.15 3.05-2.1 5.98-4.97 8.18-5.5-2.18 1.65-4.95 3.48-7.08 6.48 1.27 2 2.44 4.08 3.25 5.6 3.13-1.05 5.75-1.52 8.83-1.9-2.15 1.16-5.67 1.56-8.08 2.78 1.67 4.34 2.44 9.04 1.08 16.52-1.3 7.13-4.75 13.7-7.03 17.24 6.62-3.12 15.32-9.15 22.16-9.37 4.89-0.16 6.96 3.21 6.17 6.55-1.41 6.26-9.24 12.1-15.28 17.28 6.08 4.6 11.97 11.09 14.52 18.35 10.16 3.47 24.55 9.12 24.88 17.57 0.28 7.25-9.08 7.66-20.46 5.2-3.64-0.8-6.32-1.35-9.74-0.69l-2.4 3.04c7.2 6.51 13.6 9.38 23.56 8.65 10.62-0.8 15.62-7.73 23-9.69 6.64-1.81 10.84 2.4 10.48 7.4-0.83 9.47-14.44 17.26-29.96 17.44-13.26 0.16-25.01-4.85-35.63-16.75l-0.35-0.49 0.1-0.09-0.5-0.51-0.64 0.64-0.88 0.67-0.7 0.56c3.82 7.53 8.67 19.15 5.14 25.7-2.22 4.29-7.57 4.8-13.71-0.08-5.59-4.42-9.53-11.8-15.31-18.57-9.2-2.79-16.23-13.03-20.82-25.05-7.57 4.89-15.72 11.82-23.63 11.82-4.58 0-7.74-3.25-6.45-7.89 1.95-7.38 11.48-13.61 17.51-20.31-10.69 1.18-21.54 0-29.01-5.94-3.66-1.69-9.89-8.99-12.9-17.96l-3-6.93c-10.12-8.7-17.8-20.95-19.01-32.58-0.35-3.54 1.64-4.83 7.46-6.13 6.64-1.51 13.66-1.51 21.45-0.59 8.25-10.85 20.15-18 32.28-20.97v0.46z" fill="#FFC8A2" stroke="#000" stroke-linecap="round" stroke-linejoin="round" stroke-width="2"/>
  <path d="m137.3 155.1c-2.08 2.62 0.74 7.75 11.67 12.92 9.18 4.5 21.74 4.26 29.91-0.12 8.09-4.28 14.69-7.49 14.3-12.88 0.97 2.74 0.74 7.68-7.47 13.66-8.74 6.47-20.03 7.02-29 5.4-9.67-1.88-17.92-7.86-23.04-12.66-2.49-2.45-2.25-4.69-1-5.4 1.4-0.8 2.87-1.7 4.63-0.92z" fill="#E0A070"/>
  <path d="m145 127.2c2.16 0.63 17.96 6.02 23.17 11.86 2.48 2.91 2.64 6.67-0.37 8.74-4.04 2.77-14.54-0.64-19.71-2.07-2.93-0.83-3.29-3.36-3.17-4.99-0.97-0.71-2.06 0.16-2.93 2.34l-1.82 4.16 4.87 0.75c6.56 1.79 15.61 3.22 20.66 1.2 4.35-1.71 5.3-6.11 3.35-9.28-4.16-6.77-17.06-10.97-23.85-13.38l-0.2 0.67z" fill="#E0A070"/>
  <path d="m144 86.22c2.26 2.03 0.61 7.66-6.19 13.84-3.83 3.58-7.69 6.65-9.65 7.36l-4.24-2.7c4-1.04 9.98-5.54 13.18-8.54 4.63-4.3 6.18-8.05 6.9-9.96z" fill="#E0A070"/>
  <path d="m122 63.16c2.26 8.97-0.83 20.02-10.36 31.92-8.74 11.04-23.21 20.21-35.5 21.88-15.8 2.37-25.41 1.12-33.8-3.05-7.24-4.44-12.26-11.97-15.27-17.18 3.86 9.39 9.56 18.94 16.2 22.68 9.52 5.6 20.86 5.72 32.12 3.46 13.3-2.86 24.76-7.94 33.69-18.79 7.67-9.47 15.58-22.37 14.71-33.96-0.24-2.66-0.95-5.03-1.79-6.96z" fill="#E0A070"/>
  <path d="m78.99 18.92c3.2-1.51 11.03 8.39 14.12 16.04-5.98-1.95-12.62-2.3-16.78-1.95 0-4.16 0.75-12.78 2.66-14.09z" fill="#FFE4CC" stroke="#000" stroke-linecap="round" stroke-linejoin="round" stroke-width="1.2"/>
  <path d="m78.91 19.4c-1.59 1.81-2.3 8.62-2.18 12.71l1.98-0.2c-0.4-3.93 0.36-9.77 1.91-11.84 0.39-0.83-0.44-1.54-1.71-0.67z" fill="#E0A070"/>
  <path d="m98.21 37.18c7.67 3.86 17.2 11.53 19.57 14.93" stroke="#000" stroke-linecap="round" stroke-linejoin="round" stroke-width="1.2"/>
  <path d="m115.7 54.93c1.54-2.78 7.25-7.3 10.99-8.52" stroke="#000" stroke-linecap="round" stroke-linejoin="round" stroke-width="1.2"/>
  <path d="m118.3 59.13c2.86-1.55 8.49-2.42 13.2-2.62" stroke="#000" stroke-linecap="round" stroke-linejoin="round" stroke-width="1.2"/>
  <path d="m35.31 54.11c9.13-11.59 21.91-20.23 38.81-21.49 6.37-0.51 12.73 0.16 18.71 2.1" stroke="#000" stroke-linecap="round" stroke-linejoin="round" stroke-width="1.2"/>
  <path d="m29.03 63.63c-3.86-2.37-13.78-2.92-15.81-0.98-2.03 1.93 4.85 13.52 11.22 19.06 0.73-7.87 2.22-12.79 4.59-18.08z" fill="#FFE4CC" stroke="#000" stroke-linecap="round" stroke-linejoin="round" stroke-width="1.2"/>
  <path d="m13.77 63.79c0.04 1.85 5.41 11.91 10.16 16.11 0.39-4.88 1.28-10.74 3.31-14.19-3.82-2.35-11.32-3.69-13.47-1.92z" fill="#FFC8A2"/>
  <path d="m83.62 136.1c-1.71 0.16-11.91 9.83-20.3 13.28-5.58 2.37-9.8 1.34-10.94-1.48-0.67 3.3 2.33 5.45 5.99 4.9 7.91-1.16 17.17-9.85 23.94-13.71 3.41 9.25 9.39 18.52 20.65 24.12 5.21 6.81 11.19 17.5 17.95 22 4.9 3.23 8.51 2.01 9.77-0.9 2.03-5.6-2.87-16.8-5.65-26.19 7.28-4.3 14.16-11.21 17.88-16.8" stroke="#000" stroke-linecap="round" stroke-linejoin="round" stroke-width="2"/>
  <path d="m121.1 103.1c9.53 3.46 20.78 12.16 24.23 27.68" stroke="#000" stroke-linecap="round" stroke-linejoin="round" stroke-width="1.2"/>
  <path d="m116.5 110.4c-10.74-0.83-19.4 7.86-18.57 19.02 0.83 10.34 9.53 18.66 19.73 17.83 10.39-0.83 18.07-9.95 16.84-18.62-1.23-9.5-8.51-17.41-18-18.23z" fill="#FFE4CC"/>
  <path d="m57.22 73.88-4.68 19.06c-0.42 1.67 1.34 2.89 2.74 2.45 0.93-0.31 1.56-1.1 1.76-2.08l3.2-18.4c0.43-2.37-2.35-3.41-3.57-1.98-0.28 0.28 0.51 0.32 0.55 0.95z" fill="#000"/>
  <path d="m46.91 80.18 19.01 3.55c2.78 0.55 2.19 4.72-0.59 4.4l-18.3-3.85c-2.86-0.67-2.51-4.69-0.12-4.1z" fill="#000"/>
  <path d="m85.76 53.71 17.83 3.85c2.78 0.75 1.52 5.29-1.26 4.93l-16.92-4.22c-2.86-0.83-2.03-4.95 0.35-4.56z" fill="#000"/>
  <path d="m95.11 47.32 1.16 0.19c1.5 0.32 2.17 1.58 1.86 3.05l-3.45 16.9c-0.67 2.87-4.9 2.2-4.47-0.67l3.45-17.66c0.2-1.1 0.75-1.81 1.45-1.81z" fill="#000"/>
  <path d="m85.05 72.93c1.23 0 1.58 1.94 0.99 3.88-0.63 2.07-0.99 2.82-2.14 3.21-1.55 0.59-5.78 0-6.29-1.93-0.39-1.68 5.2-5.16 7.44-5.16z" fill="#FF91A4" stroke="#000" stroke-linecap="round" stroke-linejoin="round" stroke-width="1.2"/>
  <path d="m84.97 80.02 1.95 3.08 6.9 0.43" stroke="#000" stroke-linecap="round" stroke-linejoin="round" stroke-width="1.2"/>
  <path d="m84.22 83.1-0.24 1.14-0.2 0.94-0.4 1.81-0.23 1.02-0.08 0.4-0.04 0.31 0.04-0.11 0.04-0.16" stroke="#000" stroke-linecap="round" stroke-linejoin="round" stroke-width="2"/>
  <path d="m109.2 102.4c2.33-2.44 4.93-6.24 6.88-8.31" stroke="#000" stroke-linecap="round" stroke-linejoin="round" stroke-width="1.2"/>
  <path d="m25.53 116.9c3.2-3.86 7.7-7.72 13.68-8.86" stroke="#000" stroke-linecap="round" stroke-linejoin="round" stroke-width="1.2"/>
  <path d="m35.12 125.1c1.95-4.88 4.69-8.74 7.43-11.91" stroke="#000" stroke-linecap="round" stroke-linejoin="round" stroke-width="1.2"/>
  <path d="m68.92 123.6c4.52-0.83 9.04-2.37 14.23-4.3" stroke="#000" stroke-linecap="round" stroke-linejoin="round" stroke-width="1.2"/>
  <path d="m57.93 97.72c-4.26 0.71-7.71 4.57-7.77 7.4-0.08 2.37 2.54 2.96 5.68 1.59 3.93-1.75 5.96-4.42 5.88-6.37-0.08-1.83-1.59-3.01-3.79-2.62z" fill="#FFE4CC"/>
  <path d="m112.6 62.1c-3.85 0-7.3 3.46-8.05 6.29-0.67 2.25 1.53 3.04 4.35 2.21 3.94-1.26 6.28-4.33 6.71-5.87 0.59-1.81-0.76-2.91-3.01-2.63z" fill="#FFE4CC"/>
</svg>