<svg xmlns="http://www.w3.org/2000/svg" width="200" height="200" fill="none" viewBox="0 0 200 200">
<!-- SVG created with Arrow, by QuiverAI (https://quiver.ai) -->
  <path d="m118.6 25.79c3.79-7.62 16.03-19.61 22.16-20.18 8.18-0.77 12.47 22.18 12.9 33.22l-0.77 0.42c-9-8.42-19.68-12.44-32.8-13.44l-1.49-0.02z" fill="#FFC8A2" stroke="#E08858" stroke-linecap="round" stroke-linejoin="round"/>
  <path d="m127.8 27.02c3.99-6.26 10.03-13.11 13.43-12.57 4.93 0.78 7.12 13.46 6.8 20.47-5.83-4.25-11.37-6.31-20.23-7.9z" fill="#FFE4CC" stroke="#FFC8A2" stroke-linecap="round" stroke-linejoin="round"/>
  <path d="m80.87 120.9c-15.69-7.11-26.11-21.58-24.5-43.73 0.28-3.28 0.89-6.51 1.84-9.65-4.58-15.69-1.3-37.09 3.82-50.23 2.21-4.96 4.96-4.89 7.03-4.77 8.2 0.45 19.87 10.23 26.81 16.15 6.29-2.25 11.74-2.9 19.79-3 21.28-0.3 42.31 9.42 51.46 31 2.7 6.38 3.25 11.46 4.2 15.4 0.79 3.45 3.86 7.08 4.17 12.08 1.23 16.17-12.18 30.22-35.48 37.37 0.81 4.35 1.3 8.26 0.8 16.37l-1.63 39.04c3.51 2.37 4.56 6.09 3.34 9.67-1.45 3.94-5.55 4.12-10.34 3.33-2.02 0.49-3-0.56-3.27-0.16-2.25 4.4-12.09 5.8-17.7-0.86-1.29-1.62-2.1-2.96-3.09-4.74l-3.09 0.94c-0.25 4.76-2.67 8.38-13.62 8.54-8.9-0.08-21.35-0.79-27.12-3.7-2.17-1.08-4.33-3.75-5.38-4.88-17.2 2.8-32.54-6.46-36.99-20.82-4.66-15.11 3.69-25.38 3.39-33.12-0.24-8.08-8.22-13.18-9.59-20.37s4.74-14.14 13.76-13.99c13.28 0.24 19.33 13.12 19.83 23.38 0.78 13.92-8.2 24.52-8.92 35.52-0.62 9.28 5.52 15 12.53 16.4-1.71-14.5 2.99-26.16 13.13-35.4 5.93-5.56 10.39-7.92 14.82-15.77z" fill="#FFC8A2" stroke="#E08858" stroke-linecap="round" stroke-linejoin="round"/>
  <path d="m140.1 121.6c-19.43 5.62-43.23 6.05-57.42-0.43 12.1 7.56 27.12 13.24 47.22 10.99 3.41-0.39 6.75-1.27 10.08-2.24-0.08-2.8-0.37-5.19 0.12-8.32z" fill="#E0A070"/>
  <path d="m139.7 144.7c-2.76 10.04-7.55 18.68-13.53 23.6l0.4 5.04c7.14-3.36 12.21-15.2 13.13-28.64z" fill="#E0A070"/>
  <path d="m48.41 171.3c-0.43 4.92-0.5 9.19 1.83 12.64l7.58-0.62-4.11-10.53c-1.83-0.37-3.62-0.85-5.3-1.49z" fill="#E0A070"/>
  <path d="m125.9 153.7 1.23 26.27c2.98 1.69 4.13 6.98 1.65 10.02" stroke="#E08858" stroke-linecap="round" stroke-linejoin="round"/>
  <path d="m134.9 184.9c0.31 1.97 0.15 3.5-0.63 4.7" stroke="#E08858" stroke-linecap="round" stroke-linejoin="round"/>
  <path d="m138.9 184.1c0.31 1.59-0.12 3.44-1.2 4.69" stroke="#E08858" stroke-linecap="round" stroke-linejoin="round"/>
  <path d="m104 160.8c0.97 10.9 4.33 21.3 8.19 27.4 2.98 4.77 9.17 6.16 12.84 5.1" stroke="#E08858" stroke-linecap="round" stroke-linejoin="round"/>
  <path d="m121.5 188.8c0.97 1.55 0.89 3.1 0.2 4.5" stroke="#E08858" stroke-linecap="round" stroke-linejoin="round"/>
  <path d="m79.24 151.7c10.58-0.79 18.17 8.04 18.4 17.48 0.08 3.94-0.88 7.52-2.52 10.05 4.69 0.69 9.89 1.48 10.2 7.82" stroke="#E08858" stroke-linecap="round" stroke-linejoin="round"/>
  <path d="m93.42 186.8c2.44 1.41 2.2 4.11 1.77 6.36" stroke="#E08858" stroke-linecap="round" stroke-linejoin="round"/>
  <path d="m98.61 187.5c1.37 0.97 1.21 2.71 0.32 4.26" stroke="#E08858" stroke-linecap="round" stroke-linejoin="round"/>
  <path d="m174 77.81 7.75-2.78c2.25-0.79 2.33-0.27 1.82 0.88l-8.82 3.3-0.75-1.4z" fill="#FFC8A2" stroke="#E0A070" stroke-linecap="round" stroke-linejoin="round" stroke-width="3"/>
  <path d="m175.6 86.21 7.3 1.15c1.05 0.16 0.81 0.85 0.31 0.85l-7.51-1.5-0.1-0.5z" fill="#FFC8A2" stroke="#E0A070" stroke-linecap="round" stroke-linejoin="round" stroke-width="2"/>
  <path d="m168.8 64.91c2.16 9.26-0.67 19.05-7.88 19.05-5.99 0-10.79-8.89-10.79-18.33 0-7.48 2.99-11.88 6.7-11.88 5 0 10.09 2.66 11.97 11.16z" fill="#FEFFFE" stroke="#E08858" stroke-linecap="round" stroke-linejoin="round" stroke-width=".75"/>
  <path d="m167 67.95c1.64 6.81 0.27 13.01-3.67 13.16-3.6 0.14-7.41-6.98-7.91-13-0.43-5.32 2.33-10.28 4.85-10.2 3.35 0.1 5.53 4.3 6.73 10.04z" fill="#000"/>
  <path d="m158.2 66.71c1.43 0 1.8-1.48 1.8-2.26 0-1.24-0.79-2.24-1.69-2.24-1.06 0-1.76 1.2-1.76 2.3 0 1.2 0.7 2.2 1.65 2.2z" fill="#FEFFFE"/>
  <path d="m115.2 60.55h1.56c8.97 0 15.54 9.08 15.54 17.5 0 8.96-7.22 15.86-15.54 15.86h-1.56c-9.52 0-16.59-7.2-16.43-15.62 0.16-9.58 7.24-17.74 16.43-17.74z" fill="#FEFFFE" stroke="#E08858" stroke-linecap="round" stroke-linejoin="round"/>
  <path d="m120.9 65.71c6.88 0 11.05 7.54 10.82 13.3-0.3 7.12-5.7 11.4-10.5 11.16-5.99-0.31-10.86-6.34-10.86-12.36 0-6.5 4.69-12.1 10.54-12.1z" fill="#000"/>
  <path d="m116.4 74.91c1.93 0 2.35-1.55 2.27-2.5-0.16-1.3-1.2-2.2-2.35-2.2-1.3 0-2.27 1.2-2.27 2.35 0 1.25 1.05 2.35 2.35 2.35z" fill="#FEFFFE"/>
  <path d="m142.9 82.61c2.15-1.3 6.37-1.54 7.8-1.1 1.94 0.6 1.7 2.4 0.48 4.58-1.23 2.34-2.74 3.32-4.38 3.02-2.09-0.36-4.99-1.67-5.42-3.38-0.44-1.52 0.12-2.34 1.52-3.12z" fill="#FF91A4" stroke="#FF91A4" stroke-linecap="round" stroke-linejoin="round" stroke-width=".75"/>
  <path d="m148.3 89.71c-0.16 4.1 1.21 5.5 5.4 5.92" stroke="#000" stroke-linecap="round" stroke-linejoin="round"/>
  <path d="m148.3 90.41c-0.59 4.56-2.84 6.4-5.98 7.64" stroke="#E08858" stroke-linecap="round" stroke-linejoin="round"/>
  <path d="m66.62 14.11c-6.64 11.16-4.39 32 3.29 49.88" stroke="#E08858" stroke-linecap="round" stroke-linejoin="round"/>
  <path d="m98.28 33.35c-8.97-9.56-20-19.6-29.84-20.2" stroke="#E08858" stroke-linecap="round" stroke-linejoin="round"/>
  <path d="m76.17 23.71c-4.11-1.76-5.89 2.24-4.92 11.56 0.69 6.48 3.29 14.9 4.8 19.94 0.36 0.96 4.56-4.08 7.46-7.38 3.43-3.88 6.41-6.78 6.84-8.52 0.7-2.72-10.24-14-14.18-15.6z" fill="#FFE4CC" stroke="#E08858" stroke-linecap="round" stroke-linejoin="round"/>
  <path d="m70.12 95.21 15.93-0.9c1.86-0.1 2.11 2.3 0.16 2.5l-15.93 1c-1.94 0.1-2.26-2.34-0.16-2.6z" fill="#E0A070" stroke="#E0A070" stroke-linecap="round" stroke-linejoin="round"/>
  <path d="m76.01 108.1 12.7-7.13c1.94-1.15 3 1.35 1.05 2.35l-12.85 7.12c-1.55 0.88-2.69-1.34-0.9-2.34z" fill="#E0A070" stroke="#E0A070" stroke-linecap="round" stroke-linejoin="round"/>
  <path d="m104.6 95.71c-5.84 0-8 2.58-7.92 4.8 0.07 2.78 3.21 4.3 7.58 4.14 4.8-0.16 7.41-2.6 7.33-5.04-0.07-2.25-2.43-3.9-6.99-3.9z" fill="#FFE4CC"/>
  <path d="m169.9 83.91c-2.98 1.12-4.03 3.1-3.44 4.7 0.89 2.44 3.34 1.92 4.21 1.5 2.35-1.08 3.04-2.94 2.44-4.8-0.51-1.56-1.81-1.96-3.21-1.4z" fill="#FFE4CC"/>
</svg>