<svg xmlns="http://www.w3.org/2000/svg" width="200" height="200" fill="none" viewBox="0 0 200 200">
<!-- SVG created with Arrow, by QuiverAI (https://quiver.ai) -->
  <path d="m194.4 139.8c-0.7-12.01-7.57-24.3-16.41-24.48-6.26-0.13-9.74 6.5-8.03 12.94 1.67 6.62 6.65 12.44 6.55 21.04-0.11 7.57-6.33 15.3-11.78 15.83l-1.9 10.92c16.13-0.09 32.8-13.28 31.57-36.25z" fill="#E0A070" stroke="#000" stroke-linecap="round" stroke-linejoin="round" stroke-width="2"/>
  <path d="m193.2 140.2c-0.28 8.83-5.38 19.52-15.79 25.58-2.49 1.52-3.56 1.45-4.55-1.58-0.6-1.97-0.71-2.25-2.73-1.05-2.13 1.27-3.15 1.73-4.71 1.97l-2.1 10.34c13.81-0.34 30.61-11.24 29.88-35.26z" fill="#000" opacity=".2"/>
  <path d="m119.9 16.01c10.31 1.44 28.37 9.73 49.42 17.23 5.32 2.02 6.64 5.39 3.42 10.11-5.7 8.34-12.87 11.8-21.4 14.73 2.1 5.66 3.38 12.83 2.6 21.03-1.44 15.91-10.45 27.95-14.13 30.97 8.03 9.68 26.13 24.65 26.13 49.54 0 12.47-6.24 24.49-22.09 27.99-6.43 1.47-15.71 2.36-23.41 2.91-6.6 0.49-10.27-2.38-12.69-8.31-2.7 3.5-5.52 4.62-8.94 4.3-2.9-0.28-3.87-0.89-4.97-3.36-2.7 2.77-7.38 2.56-9.59 0.21-5.31 0.62-10.1 0.55-16.74 0.62-7.42 0.07-12.47-8.17-12.96-15.07-0.35-5.66 2.93-9.15 7.19-8.8 3.38 0.29 5.56 1.41 7.7 3.5 1.51-3.85 3.21-5.87 5.97-8.19-0.97-10.15-0.97-18.46-0.42-27.69-16.28-1.54-30.78-6.91-41.85-20.92-6.78-6.43-8.49-17.54-6.99-27.99 0.63-4.06 1.6-8.76 2.09-13.67l0.21-5.05c-8.17-1.67-15.59-5.38-20.6-11.6-3.67-4.49-2.4-8.55 3.3-10.57 11.15-3.99 23.66-10.89 34.96-15.73 3.53-1.54 7.63-2.53 10.04-4.4 10.94-6.9 22.63-9.31 33.71-9.31 12.23 0 20.59 1.8 33.32 7.52h-3.28z" fill="#E0A070" stroke="#000" stroke-linecap="round" stroke-linejoin="round" stroke-width="2"/>
  <path d="m151.9 57.37c7.82-2.89 16.02-8.88 19.91-16.05-6.91 6.62-15.41 11.39-29.76 8.69-4.45-0.83-5.89-1.52-7.09-1.93 2.29 4.27 7.16 7.13 13.79 8.87l-0.35 1.41 3.5-0.99z" fill="#000" opacity=".2"/>
  <path d="m28.91 53.47c-8.1 0.28-14.8-2.35-20.88-6.37 3.18 6.76 12.29 11.81 20.11 12.86l1.12-5.86-0.35-0.63z" fill="#000" opacity=".2"/>
  <path d="m150.5 58.15-1.92 0.49c2.28 6.97 2.14 14.07 0.21 21.55-4.52 0.69-4.94 2.07-4.94 2.07 1.93-0.21 3.6-0.56 4.52-0.56-1.2 5.12-1.69 7.01-5.16 12.2-8.43 13.02-21.95 22.96-47.02 25.66-20.5 2.35-42.38-1.08-55.47-10.45-2.83-2.09-5.04-3.99-6.97-5.72 6.19 11.49 19.2 21.03 41.59 23.92l-0.14 2.51c6.56 3.39 18.11 4.52 27.89 1.53 13.09-4.21 20.58-7.3 35.96-21.52 8.4-7.84 15.89-19.09 15.75-33.6 0-6.22-1.04-12.37-4.3-18.08z" fill="#000" opacity=".2"/>
  <path d="m53.93 18.92c-13.66 8.33-23.72 22.26-26.21 40.9" stroke="#000" stroke-linecap="round" stroke-linejoin="round" stroke-width="2"/>
  <path d="m135.2 48.08c8.36 2.83 17.57 2.62 26.52-0.42" stroke="#000" stroke-linecap="round" stroke-linejoin="round" stroke-width="1.5"/>
  <path d="m141.6 110c-8.24 8.33-17.12 11.9-27.92 13.69" stroke="#000" stroke-linecap="round" stroke-linejoin="round" stroke-width="2"/>
  <path d="m143.6 82.81c5.32-2.09 11.82-2.83 20.39-1.64" stroke="#000" stroke-linecap="round" stroke-linejoin="round" stroke-width="1.5"/>
  <path d="m143.1 90.05c4.98 0 10.22 1.26 17.27 3.78" stroke="#000" stroke-linecap="round" stroke-linejoin="round" stroke-width="1.5"/>
  <path d="m141.2 97.22c4.52 0.92 8.84 3.52 14.68 7.94" stroke="#000" stroke-linecap="round" stroke-linejoin="round" stroke-width="1.5"/>
  <path d="m75.17 155.1c1.27 11.12 3.06 19.92 8.24 28.01" stroke="#000" stroke-linecap="round" stroke-linejoin="round" stroke-width="2"/>
  <path d="m69.86 166.8c-2.1-3.09-5.14-5.69-9.83-4.64-3.91 0.92-4.12 5.55-3.11 9.6 1.27 5.3 4.79 11.16 10.35 11.16 3.74 0 7.9-0.35 12.49-1.2" stroke="#000" stroke-linecap="round" stroke-linejoin="round" stroke-width="2"/>
  <path d="m143.9 148.6c-11.76-0.7-20.36 6.13-24.03 18.6" stroke="#000" stroke-linecap="round" stroke-linejoin="round" stroke-width="1.5"/>
  <path d="m107.9 177.6c-2.9 5.19-6.08 7.82-9.99 7.82-4.73 0-4.66-3.71-3.22-14.23 1.64-11.87 4.13-21.1 4.62-31.26" stroke="#000" stroke-linecap="round" stroke-linejoin="round" stroke-width="1.5"/>
  <path d="m121.8 142.6c-0.84 7.24-3.53 16.11-6.23 22.4" stroke="#000" stroke-linecap="round" stroke-linejoin="round" stroke-width="1.5"/>
  <path d="m122.8 172.8c-3.6-6.3-6.99-7.39-10.44-7.11-5.31 0.42-6.58 5.43-5.95 11.92 0.64 6.36 3.95 12.36 11.54 12.36 5.63 0 18.22-2.02 25-3.47 12.16-2.8 21.94-10.35 21.94-26.47" stroke="#000" stroke-linecap="round" stroke-linejoin="round" stroke-width="2"/>
  <path d="m56.85 166.1c0.49-1.95 2.28-3.01 4.21-1.74 3.18 2.09 4.38 6.68 5.42 10.94 0.58 2.57 1.95 2.86 4.44 2.3 4.32-1.05 5.03-0.91 4.11-4.69-0.9-3.88-1.32-6.11-2.06-8.09l-1.84 3.03c-2.21-3.03-4.91-5.41-8.72-5.55-3.42-0.14-5.98 1.3-5.56 3.8z" fill="#000" opacity=".2"/>
  <path d="m109.9 171.3c2.42-1.2 4.84 3.4 6.28 10.38 0.71 3.49 2.37 3.21 4.93 3 11.76-0.81 22.68-2.26 29.11-6.61 7.96-5.33 12.63-12.06 13.5-17.5 1.1 10.1-4.97 22.61-17.92 26.11-8.71 2.57-17.85 3.03-25.13 3.24-7.56 0.21-11.69-4.11-13.19-10.33-0.97-4.2-0.28-7.22 2.42-8.29z" fill="#000" opacity=".2"/>
  <path d="m88.26 152c1.67 2.7 2.57 5.4 2.22 10-0.55 6.59-1.11 15.04-1.46 17.06s0 3.56 1.12 4.19c-3.11 1.44-5.18 0.42-7.01-3.15-1.51-3.2-4.9-11.23-5.7-21.53-0.28-3.53-0.35-5.33-0.35-7.49l4.76 0.14 6.42 0.78z" fill="#000" opacity=".2"/>
  <path d="m84.71 140.8c0.42 4.59 4.03 10.36 9.66 15.41 1.57 1.44 2.7-2.27 3.12-7.96 0.42-5.72 0.28-9.71-3.04-11.67-4.73-2.7-10.23-0.48-9.74 4.22z" fill="#FEFFFE" opacity=".3"/>
  <path d="m124.2 64.02c-11.08 1.13-22.36-1.22-27.34-9.49 0.64 3.34 3.06 5.21 5.76 6.58-7.42 2.56-12.22 9.73-12.22 16.9 0 9.75 7.5 18.02 18.33 18.02 1.99 0 3.94-0.3 5.78-0.87 2.42 0.21 3.09 1.85 1.84 4.87-2.14 5.3-2.42 13.39 4.08 13.81 5.38 0.35 7.67-7.13 4.63-12.82-1.44-2.86-3.93-5.21-2.96-8.74 0.56-2.35 3.12-5.55 4.56-10.88 1.44-6.36-0.36-12.36-4.56-16.96 0.7-0.07 1.35-0.21 2.1-0.42z" fill="#000" stroke="#000" stroke-linecap="round" stroke-linejoin="round" stroke-width="1.5"/>
  <path d="m117.9 65.51c5.05 3.3 7.15 10.98 5.68 17.51-0.37 1.69-0.98 3.31-1.83 4.8l2.45-0.75c1.1-2.28 2.07-4.81 2.35-7.83 0.49-5.73-2.28-11.38-5.42-14.52l-3.23 0.79z" fill="#FEFFFE"/>
  <path d="m102.1 66.5c-4.33 0-6.32 4.06-6.32 6.42 0 3.5 2.69 4.69 4.97 4.69 4.39 0 6.95-3.99 6.95-6.79s-2.14-4.32-5.6-4.32z" fill="#FEFFFE"/>
  <path d="m114 78.22c-2.83 0-3.56 3.99-1.07 5.01 3.18 1.3 4.61-1.97 3.31-3.87-0.56-0.85-1.39-1.14-2.24-1.14z" fill="#FEFFFE"/>
  <path d="m122.3 87.14c-3.04-1.3-5.97-0.28-8.39 1.91-3.18 2.86-8.98 1.42-12.87 0.36-2.35-0.64-3.99-0.29-4.41 0.63 3.53 3.93 9.01 5.77 15.51 4.88 4.62-0.64 6.69 1.19 4.55 6.66-1.9 5.13-0.87 10.6 3.65 10.6 4.2 0 6.13-6.22 3.36-11.23-2.21-4.09-4.8-6.03-2.87-9.99 0.66-1.48 1.82-2.54 1.47-3.82z" fill="#99DEF9" stroke="#000" stroke-linecap="round" stroke-linejoin="round" stroke-width="1.08"/>
  <path d="m122.2 101.7c-2-0.55-2.84 3.13-1.94 5.21 0.9 2.12 3.46 0.99 3.46-1.61 0-1.9-0.56-3.28-1.52-3.6z" fill="#FEFFFE" opacity=".7"/>
  <path d="m37.34 67.42c9.09-0.81 17.97-3.09 23.37-11.36-1.8 3.9-3.54 5.05-4.66 5.97 8.16 1.12 13.96 10.1 13.96 17.27 0 9.75-7.24 17.56-17.3 17.21-2.8-0.14-4.6-0.7-7.5-0.14-5.3 1.05-8.03-3.74-7.13-6.96 0.87-3.3 3.36-2.55 0-4.25-2.42-3.89-2.14-12.52 2.75-17.53l-3.49-0.21z" fill="#000" stroke="#000" stroke-linecap="round" stroke-linejoin="round" stroke-width="1.5"/>
  <path d="m41.93 68.44c-4.52 3.55-5.29 11.68-3.12 17.47 0.42 1.16 1.52 1.44 2.41 1.3l-2.28 0.92c-1.13-1.61-2.33-3.4-2.75-6.43-0.9-5.72 1.62-11.34 4.25-13.69l1.49 0.43z" fill="#FEFFFE"/>
  <path d="m50.27 68.72c-3.91 0.92-5.42 4.34-5.42 6.29 0 3.21 2.32 4.44 4.38 4.23 3.98-0.42 5.72-4.02 5.72-6.53 0-2.63-1.74-4.69-4.68-3.99z" fill="#FEFFFE"/>
  <path d="m60.19 81.01c-2.28 1.12-1.93 4.76 0.77 4.76 2.59 0 2.87-2.7 1.81-4.21-0.71-1.02-1.95-0.95-2.58-0.55z" fill="#FEFFFE"/>
  <path d="m39.84 90.96c-0.21-3.54 3.92-3.19 7.27-1.9 2.9 1.12 4.34 3.15 9.07 2.7 2.97-0.3 4.77-1.65 7.23-1.83 1.2-0.07 1.55 0.53 0.91 1.69-2 3.19-7.4 4.79-11.36 4.19-3.84-0.58-5.03-0.72-7.02-0.3-3.01 0.72-5.89-0.98-6.1-4.55z" fill="#99DEF9" stroke="#000" stroke-linecap="round" stroke-linejoin="round" stroke-width=".7"/>
  <path d="m74.34 91.17c0.28-1.76 2.08-1.69 5.61-1.76 3.32-0.07 4.59 0.21 4.38 1.83-0.28 2.02-3.29 4.72-4.96 4.51-2-0.21-5.46-2.34-5.03-4.58z" fill="#FF91A4" stroke="#000" stroke-linecap="round" stroke-linejoin="round" stroke-width="1.5"/>
  <path d="m73.98 107.5c1.77-3.6 3.84-5.11 6.7-5.11 3.46 0 6.26 1.87 8.62 4.31" stroke="#000" stroke-linecap="round" stroke-linejoin="round" stroke-width="1.5"/>
  <path d="m79.52 95.33v6.32" stroke="#000" stroke-linecap="round" stroke-linejoin="round" stroke-width="1.5"/>
  <path d="m30.28 91.02c-3.53-1.05-8.15-0.91-14.79 1.05" stroke="#000" stroke-linecap="round" stroke-linejoin="round" stroke-width="1.5"/>
  <path d="m32.63 98.12c-3.86 0.63-7.21 2-12.58 4.8" stroke="#000" stroke-linecap="round" stroke-linejoin="round" stroke-width="1.5"/>
  <path d="m36.37 104.6c-3.74 2.21-7.46 5.23-11.42 8.63" stroke="#000" stroke-linecap="round" stroke-linejoin="round" stroke-width="1.5"/>
</svg>