<svg xmlns="http://www.w3.org/2000/svg" width="250" height="250" fill="none" viewBox="0 0 250 250">
<!-- SVG created with Arrow, by QuiverAI (https://quiver.ai) -->
  <path d="m149.8 191.6c11.64-0.6 24.2-4.48 33.24-20.86 4.27-7.53 7.32-16.63 15.3-16.63 4.99 0 7.6 6.69 7.34 12.13-0.79 16.89-21 33.56-42.47 34.14-5.33 0.15-10.04-0.64-13.36-1.65l-0.05-7.13z" fill="#E0A070" stroke="#000" stroke-linecap="round" stroke-linejoin="round" stroke-miterlimit="10" stroke-width="2"/>
  <path d="m150.6 196c3.51 1.11 8.08 1.76 13.03 1.35 17.23-1.44 34.62-14.12 39.28-28.24 2.21-6.69-0.75-12.94-5.11-12.99 2.61 1.28 4.71 5.8 2.26 12.54-5.14 14.77-21.15 26.64-36.93 27.5-4.25 0.25-8.52 0-12.53-0.86v0.7z" fill="#000" opacity=".2"/>
  <path d="m152.2 206.2c3.91-1.22 7.87-1.27 10.83 6.76 3.46 9.92 1.81 15.82-3.98 16.28-4.72 0.41-8.44-5.39-9.17-8.94l2.32-14.1z" fill="#FFC8A2" stroke="#000" stroke-linecap="round" stroke-linejoin="round" stroke-miterlimit="10" stroke-width="2"/>
  <path d="m88.08 200c-0.93 9.82-0.42 25.41 13.98 30.48 3.05 1.12 6.87 1.07 8.21 0.61-2.41 0.46-5.02 0.15-5.02 3.06 0 5.85 2.86 9.55 6.93 9.19 6.63-0.61 8.17-10.63 8.17-16.83 0-3.8-2.86-5.33-4.56-5.33l0.93-7.38 9.77-0.87-1.38-1.11-37.03-11.82z" fill="#E0A070" stroke="#000" stroke-linecap="round" stroke-linejoin="round" stroke-miterlimit="10" stroke-width="2"/>
  <path d="m110.3 231.1c-1.54 0.36-3.54 0.36-5.48 0.1 1.28 0.92 3.17 0.87 4.14 0.41-0.92 1.48-0.61 6.34 1.24 8.3 1.85 1.97 6.19 0.25 7.52-5.09 1.02-4.28 1.02-9.4-0.51-11.22-1.13-1.33-2.87-1.38-3.74-0.98l0.41-2.6 1.28-0.4 0.46-4.43-2.96 0.25-0.72 5.29c1.74 2.61 1.28 7.42-1.64 10.37z" fill="#000" opacity=".2"/>
  <path d="m85.82 170.1c-10.89-3.34-24.01-11.27-28.62-18.95-4.11-6.79-0.35-14.12 8.89-12.35 7.02 1.37 13.11 9.2 29.9 15.3l0.62 0.15c-10.59-4.76-22.5-15.09-26.27-23.33-5.68-12.88-1.12-26.84 2.94-34.77l-4.67-12.77c-0.87-16.08 3.58-41.09 11.36-44.64 5.38-2.51 23.01 11.96 27.52 19.54 7.43-8.14 23.7-9.76 42.44 5.77 7.98-5.62 19.94-10.09 31.28-10.85 7.88-0.56 7.52 15.72 5.78 24.67-1.7 9.05-4.86 17.23-7.27 26.06 2.51 10.02 2.26 21.1-2.61 32.39-2.41 5.6-6.13 9.05-10.99 12.6l1.59-3.7c8.18-2.07 11.24 1.87 10.37 7.05-2.05 10.83-19.13 17.83-28.1 24.42-1.38 1.07 0.93 6.15 2.37 10.43 2 6.3-0.16 14.78-0.41 19.69-0.21 3.25 1.07 4.62 3.18 5.33-1.49 4.62-3.7 13.25-11.68 14.06-8.73 0.87-13.59-4.84-17.31-12.48-7.32 1.58-18.79 0.46-26.01-2.99-8.03-3.8-16.01-11.48-16.21-25.63-0.1-5.06 0.77-11.01 2.47-16.97l-0.56 1.97z" fill="#E0A070" stroke="#000" stroke-linecap="round" stroke-linejoin="round" stroke-miterlimit="10" stroke-width="2"/>
  <path d="m177.9 100c3.11 9.44 1.11 23.45-2.76 33.17-7.87 15.5-28.53 18.2-39.47 18.2-26.87 0.76-55.47-5.99-69.4-20.81 3.46 7.33 13.67 17.35 23.4 23.15 7.47 4.62 16.26 9.74 30.08 9.74 12.49 0 19.46-3.06 26.09-6.35 6.17-3.6 15.5-8.94 20.31-10.66 4.01-1.37 9.1-8 11.86-16.28 2.86-8.94 2.86-18.48-0.11-30.16z" fill="#000" opacity=".2"/>
  <path d="m130 189.2c0 11.87-8.13 18.91-17.72 18.91-11.33 0-18.91-9.15-18.91-21.02 0-10.94 8.33-20.28 17.17-20.28 11.33 0 19.46 11.46 19.46 22.39z" fill="#FEFFFE" opacity=".3"/>
  <path d="m57.92 140.9c-2.61 2.38-2.46 6.78 1.11 11.7 5.48 7.53 15.16 13.12 25.9 16.32l2.16-7.88c-7.17-2.53-14.04-7.87-19.37-11.87-4.01-3.06-6.87-10.44-9.8-8.27z" fill="#000" fill-opacity=".25"/>
  <path d="m89.45 202.7c1.79 5.7 6.8 9.4 11.61 11.03 4.16 1.37 7.73 1.63 10.09 1.37l0.46-1.97c-5.14-0.41-16.32-3.12-22.16-10.43z" fill="#000" fill-opacity=".25"/>
  <path d="m130 158.8c4.16 0.1 9.85-0.61 12.76-1.32 5.43-3.55 14.37-8.74 20.5-11.38 5.69-2.47 13.01-2.42 13.53 1.63 1.07 8.33-10.63 17.27-18.46 21.48-5.09 2.76-9.58 4.98-11.48 7.55" stroke="#000" stroke-linecap="round" stroke-linejoin="round" stroke-miterlimit="10" stroke-width="2"/>
  <path d="m149.8 198c1.33 1.17 4.14 1.72 6.55 1.93" stroke="#000" stroke-linecap="round" stroke-linejoin="round" stroke-miterlimit="10" stroke-width="2"/>
  <path d="m149.8 223.4c2.41-0.3 5.42-2.37 6.29-4.64" stroke="#000" stroke-linecap="round" stroke-linejoin="round" stroke-miterlimit="10" stroke-width="2"/>
  <path d="m171.8 133.9c4.45 1.37 9.01 3.98 12.88 6.98" stroke="#000" stroke-linecap="round" stroke-linejoin="round" stroke-miterlimit="10" stroke-width="2"/>
  <path d="m172.3 126.8c5.49-0.71 11.38-0.81 17.28 1.66" stroke="#000" stroke-linecap="round" stroke-linejoin="round" stroke-miterlimit="10" stroke-width="2"/>
  <path d="m161.8 73.48c5-5.49 11.23-9.59 15.4-10.65 2.71-0.71 3.53 2.08 3.22 6.59-0.51 6.99-2.56 15.22-6.02 23.4-3.77-7.73-7.34-14.37-12.6-19.34z" fill="#FFE4CC" stroke="#000" stroke-linecap="round" stroke-linejoin="round" stroke-miterlimit="10" stroke-width="1.2"/>
  <path d="m76.51 74.86c-0.62-9.15 0.71-20.76 4.53-26.71 1.08-1.82 2-0.91 3.74 0.56 4.17 3.7 8.13 8.32 9.62 12.8-6.68 3.34-10.79 6.54-17.89 13.35z" fill="#FFE4CC" stroke="#000" stroke-linecap="round" stroke-linejoin="round" stroke-miterlimit="10" stroke-width="1.2"/>
  <path d="m83.04 49.32c-1.95 1.63-4.66 8.22-5.63 19.59l0.1 3.25c3.47-4.47 9.31-9.03 14.64-11-2.1-5.04-5.33-9.14-9.11-11.84z" fill="#000" opacity=".2"/>
  <path d="m137.7 17.78-30.49 40.23c9.83 8.28 24.13 11.58 43.38 9.31l-0.93-0.91-10.08-47.72-1.88-0.91z" fill="#F04849" stroke="#000" stroke-linecap="round" stroke-linejoin="round" stroke-miterlimit="10" stroke-width="1.2"/>
  <path d="m137.2 9.1c-1.18-2.91-5.19-2.35-6.11 0.11-1.29 3.5 1.02 5.47 2.05 6.08-3.06-0.61-4.24 1.16-3.62 3.43 0.92 3.5 5.18 1.93 6.51 0.56l0.67-0.3c-0.72 2.07 1.43 5.17 4.49 5.17 2.81 0 4.46-2.59 3.95-5.5 2.96 0 4.96-1.63 4.96-3.95 0-2.37-2.21-3.64-5.07-3.39 1.33-2.06 1.59-5.17-1.37-6.18-3.56-1.32-5.79 2.08-6.46 3.97z" fill="#B078A7" stroke="#000" stroke-linecap="round" stroke-linejoin="round" stroke-miterlimit="10" stroke-width="1.2"/>
  <path d="m134.1 30.99c0 3.95-3.15 5.72-5.91 5.72-0.77 0-1.49-0.15-2.11-0.41l6.24-8.28c1.07 0.61 1.78 1.68 1.78 2.97z" fill="#FFC8A2" opacity=".5"/>
  <path d="m144.4 38.73c0.72 1.97 1.18 4.19 1.18 6.31 0 1.67-1.39 2.79-2.93 2.79-2.76 0-5.06-2.12-5.06-4.91 0-2.91 2.41-4.88 5.17-4.88 0.51 0 1.13 0.2 1.64 0.69z" fill="#FFC8A2" opacity=".5"/>
  <path d="m128 46.92c-3.57 0-5.21 2.76-5.21 4.78 0 3.4 2.56 5.22 4.96 5.22 3.26 0 5.11-2.71 5.11-5.22 0-2.79-2.41-4.78-4.86-4.78z" fill="#FFC8A2" opacity=".5"/>
  <path d="m112.7 52.62c3.31 1.37 4.44 4.23 3.31 6.4-0.87 1.82-2.61 2.58-4.1 2.68-1.44-0.91-2.83-1.97-4.21-3.14l5-5.94z" fill="#FFC8A2" opacity=".5"/>
  <path d="m140 60.39c-4.07 0-5.35 3.35-5.35 4.92 0 1.12 0.31 2.13 0.88 2.94 3.11 0.26 6.42 0.21 9.94-0.15 0.21-0.71 0.31-1.52 0.31-2.38 0-2.9-2.41-5.33-5.78-5.33z" fill="#FFC8A2" opacity=".5"/>
  <path d="m161.1 129.1c0 3.8-4.45 5.07-7.41 4.82-4.9-0.41-8.77-2.78-8.77-6.03 0-2.76 2.86-3.47 5.93-3.47 4.9 0 10.25 1.17 10.25 4.68z" fill="#FEFFFE" opacity=".3"/>
  <path d="m84.78 117.1c0 2.96-3.77 3.67-6.17 3.42-5.24-0.41-8.6-2.78-8.6-5.25 0-2.86 2.1-2.71 5.27-2.96 4.9 0 9.5 1.82 9.5 4.79z" fill="#FEFFFE" opacity=".3"/>
  <path d="m100.1 107.4c-0.82-7.33-5.27-13.78-12.14-13.78-6.43 0-11.48 5.9-11.94 10.86-0.15 1.62 1.69 1.62 2.36 0.61 2.66-4.15 5.72-6.94 10.72-6.94 5.28 0 8.5 5.45 9.37 10.06 0.26 1.22 1.84 0.86 1.63-0.81z" fill="#000"/>
  <path d="m131.3 113.9c2.51-6.6 7.07-8.36 12.08-8.01 5.53 0.41 8.49 4.88 10.03 10.83 0.46 1.77 2.97 1.21 3.13-0.81 0.51-6.99-5.83-13.43-12.26-13.43-7.88 0-12.04 5.33-13.99 10.57-0.62 1.77 0.25 2.68 1.01 0.85z" fill="#000"/>
  <path d="m101 119.6c0.36 3.5 2.77 5.12 5.07 5.12 3.17 0 4.81-2.07 5.68-4.68 1.03 2.37 3.43 5.08 6.59 5.08 2.46 0 4.51-1.57 6.46-4.04" stroke="#000" stroke-linecap="round" stroke-linejoin="round" stroke-miterlimit="10" stroke-width="2"/>
  <path d="m105.3 125.2c0.3 5.6 1.84 11.6 6.94 11.19 5.24-0.4 6.88-5.31 7.81-9.46-3.01 1.01-8.35 0.15-14.75-1.73z" fill="#000"/>
  <path d="m108.8 113.2c0 2.37 2.05 5.03 4.81 5.03 2.77 0 5.18-2.22 5.18-3.79 0-1.62-2.97-2.13-5.38-2.13-2.15 0-4.61-0.71-4.61 0.89z" fill="#FF91A4" stroke="#000" stroke-linecap="round" stroke-linejoin="round" stroke-miterlimit="10" stroke-width="1.2"/>
  <path d="m108.4 133.2c0.46-2.17 2.67-3.79 5.33-3.79 1.89 0 3.33 0.51 4.3 1.37-1.33 2.81-3.23 5.08-6.34 5.08-1.7 0.05-2.78-1.01-3.29-2.66z" fill="#F7636D" stroke="#000" stroke-linecap="round" stroke-linejoin="round" stroke-miterlimit="10" stroke-width=".5"/>
  <path d="m48.81 105.2c4.9 0 11.08 1.82 14.8 4.04" stroke="#000" stroke-linecap="round" stroke-linejoin="round" stroke-miterlimit="10" stroke-width="2"/>
  <path d="m48.81 118.6c3.91-1.82 9.01-2.83 14.8-3.14" stroke="#000" stroke-linecap="round" stroke-linejoin="round" stroke-miterlimit="10" stroke-width="2"/>
  <path d="m40.08 65.66c-3.87-3.95-6.63-11.78-5.45-13.25 0.82-1.06 4.48-2.43 5.45-2.74 1.34-0.45 2.11-0.35 2 1.72-0.3 4.86 1.75 8.36 3.54 9.73 1.13 0.91 0.41 2.08-0.41 2.48-1.38 0.66-4.14 2.03-5.13 2.06z" fill="#FF91A4" stroke="#000" stroke-linecap="round" stroke-linejoin="round" stroke-miterlimit="10" stroke-width="1.2"/>
  <path d="m216.7 62.58c2 0.51 4.41 1.11 4.72 2.18 1.17 4.05-1.84 11.38-4.35 12.55-0.72 0.3-5.96-1.22-6.93-2.13-0.77-0.76-0.1-1.57 0.57-2.28 2.96-3.15 3.21-6.7 3.06-9.66-0.05-1.12 0.67-1.27 2.93-0.66z" fill="#F7B179" stroke="#000" stroke-linecap="round" stroke-linejoin="round" stroke-miterlimit="10" stroke-width="1.2"/>
  <path d="m205.1 89.38c1.02-1.06 3.07 1.9 4.35 3.32 0.82 0.91 0.62 1.77-0.2 3.24-2.51 4.2-6.77 6.67-9.18 7.12-1.33 0.26-4.39-4.04-4.96-4.85-0.46-0.76 0.41-1.26 1.64-1.67 4.21-1.31 6.21-4.4 8.35-7.16z" fill="#FFE4CC" stroke="#000" stroke-linecap="round" stroke-linejoin="round" stroke-miterlimit="10" stroke-width="1.2"/>
  <path d="m91.13 16.71c1.64-1.11 3.79-3.58 5.33-4.09 2.26-0.81 7.65 5.49 7.65 10.78 0 1.62-0.21 1.32-1.28 2.23-1.64 1.42-4.15 2.69-5.02 2.59-1.13-0.1-0.67-2.07-1.69-4.54-1.18-3.05-3.23-4.92-4.97-5.78-0.92-0.45-0.92-0.65-0.02-1.19z" fill="#66D9D4" stroke="#000" stroke-linecap="round" stroke-linejoin="round" stroke-miterlimit="10" stroke-width="1.2"/>
  <path d="m36.82 90.09c-0.31-1.37 1.59-1.47 2.61-1.88 4.01-1.57 5.29-3.79 6.37-6.3 0.56-1.37 1.95-0.92 2.62-0.21 1.38 1.42 3.23 3.04 3.23 4.21 0 2.37-5.74 8.87-9.9 9.37-1.39 0.16-4.62-4-4.93-5.19z" fill="#F65792" stroke="#000" stroke-linecap="round" stroke-linejoin="round" stroke-miterlimit="10" stroke-width="1.2"/>
  <path d="m172.9 34.79c2.1-4.77 6.37-8.17 10.43-9.54 2.16-0.76 3.8 1.66 5.08 3.98 0.82 1.52-0.1 2.48-1.18 2.63-4.6 1.17-7.26 4.47-8.9 7.92-0.57 0.96-1.54 0.25-2.26-0.86-1.18-1.67-3.58-3.19-3.17-4.13z" fill="#C375A7" stroke="#000" stroke-linecap="round" stroke-linejoin="round" stroke-miterlimit="10" stroke-width="1.2"/>
  <path d="m27.89 126.9c0.62-1.92 1.9-4.88 2.82-5.64 1.18-0.96 2 0.41 2.77 1.63 2.31 3.4 5.42 4.62 8.43 4.82 1.74 0.1 1.84 1.17 1.18 2.64-0.82 1.97-2.47 4.63-3.44 4.63-4.5-0.4-10.44-4.6-11.76-8.08z" fill="#6495E6" stroke="#000" stroke-linecap="round" stroke-linejoin="round" stroke-miterlimit="10" stroke-width="1.2"/>
  <path d="m206.8 126.2c0-2.12 2.15-2.42 4.51-3.69 1.64-0.91 2.05-0.31 2.15 1.41 0.31 4.1 2.15 7.11 4.15 8.88 1.18 1.06 0.87 2.28-0.1 2.79-1.44 0.81-4.4 2.33-4.97 2.02-3.31-1.72-6.02-8.52-5.74-11.41z" fill="#F04849" stroke="#000" stroke-linecap="round" stroke-linejoin="round" stroke-miterlimit="10" stroke-width="1.2"/>
</svg>