<svg xmlns="http://www.w3.org/2000/svg" width="200" height="200" fill="none" viewBox="0 0 200 200">
<!-- SVG created with Arrow, by QuiverAI (https://quiver.ai) -->
  <path d="m149.5 5.62c-7.59-0.55-19.7 17.46-21.56 22.04-16.68 0-27.88 4.52-37.36 10.97-9.11-4.15-18.41-6.99-29.47-6.99-17.49 0-8.65 31.35 4.65 52.32-0.58 9.02 1.88 17.97 6.97 25.77-8.86 0.56-16.66 3.02-22.71 8.99-11.97-2.09-26.56-15.71-17.62-32.81 4.37-8.15 7-11.04 5.56-17.94-1.86-7.56-8.46-10.7-15.31-9.26-11.21 2.58-17.1 17-17.37 30.21-0.58 14.99 9.63 36.87 31.67 41.89l4.1 1.44c-6.2 14.08-1.99 38.56 2.72 54.36 1.58 4.67 6.13 5.55 11.23 5.55 5.11 0 7.71-2.25 7.13-6.26-0.43-2.14-2.07-2.93-2.02-4.65 0.09-2.26 0.73-6.14 1.9-7.79 1.44-1.21 2.77-2.53 3.97-3.95 1.05 4.35 2.6 10.6 3.77 13.45 1.58 4.1 6.23 4.66 11.03 4.38 5.61-0.28 8.44-3.13 6.32-7.71-0.72-1.44-2.02-1.87-1.59-3.47l0.74-4.85c4.85 0.28 8.02 0 13.35-0.56 1.16 7.82 2.6 16.59 5.18 20.53 2.58 3.65 8.88 3.93 13.1 2.53 4.52-1.44 5.82-5.68 2.72-9.97l2.3-16.65c1.01 0 2.02-0.18 2.98-0.53 0.92 6.6 1.76 15.29 4.19 19.86 2.43 3.41 7.08 3.41 10.91 2.85 4.96-0.86 6.68-5.44 3.71-9.46l-0.58-1.44 4.65-32.23c3.98-7.28 4.41-13.87 4.55-26.81 14.17-7.32 31.14-19.37 32.3-37.77l0.43-2.7 6.6 3.27c3.25 0.56 2.96-3.46 0.38-3.46l-7.27-1.01-2.58-12.05c-3.01-7-7.22-12.69-11.74-18.66-1.58-12.04-11.35-40.83-21.93-41.43z" fill="#FFC8A2" stroke="#E08858" stroke-linecap="round" stroke-linejoin="round" stroke-width=".8"/>
  <path d="m147.8 147.1c-4.69 10.13-11.01 18.94-21.36 22.01l-1.21-1.99 0.59-0.32c11.01-2.84 18.52-11.65 21.98-19.7z" fill="#FFC8A2"/>
  <path d="m67.91 167.6c5.86 2.17 12.6 3.17 18.3 3.58l-1.09 5.52c-0.14 1.11 1.03 1.71 1.71 2.97 2.29 4.29-0.68 7.43-6.14 7.43-4.71 0-8.68-0.83-10.12-4.48s-2.45-9.9-3.17-13.69l0.51-1.33z" fill="url(#paint0_linear_161_362)" stroke="#E08858" stroke-linecap="round" stroke-linejoin="round" stroke-width=".8"/>
  <path d="m39.12 117.2c-3.61 2.25-5.38 7.7-5.38 11.35l3.37 1.5 4.21 1.44 1.54-2.25 4.37-8.15c-2.42-0.72-6.13-2.33-8.11-3.89z" fill="#FFC8A2"/>
  <path d="m152.9 118.7c-10.31 4.45-24.94 9.56-37.98 10.12-14.07 0.55-27.84-2.16-37.04-11.75l-1.86 0.55c10.78 10.69 25.93 17.38 44.87 17.66 10.49 0.14 20.12-3.05 31.59-7.63l0.42-8.95z" fill="#FFC8A2"/>
  <path d="m139.2 28.22c6.85 2.14 13 4.99 19.31 8.89 1.58 1.15 2 0 1.28-3.34-1.58-7.18-5.41-18.16-9.63-18.16-4.37 0-10.96 10.43-10.96 12.61z" fill="#FFE4CC"/>
  <path d="m79.73 46.04c-4.52-2.14-7.82-3.29-13.52-4.3-4.07-0.56-5.65 2.16-5.22 6.45 0.72 6.59 3.97 16.74 7.22 19.3 1.44 0 3.7-7.47 8.65-13.78 2.87-3.79 5.3-6.24 2.87-7.67z" fill="#FFE4CC"/>
  <path d="m155.8 46.61c-8.94-0.43-15.24 7.86-15.24 17.05 0 9.2 7.8 16.38 15.6 15.37 9.67-1.21 14.48-8.11 14.19-16.12-0.58-7.76-6.33-15.9-14.55-16.3z" fill="#FEFFFE" stroke="#E08858" stroke-linecap="round" stroke-linejoin="round" stroke-width=".8"/>
  <path d="m155.3 47.47c-6.59 0-10.42 5.97-10.42 11.42 0 6.17 5.56 11.19 10.71 10.77 6.3-0.43 11.1-5.74 11.1-11.19 0-5.83-4.95-11-11.39-11z" fill="#000"/>
  <path d="m149.8 52.49c-2.02 0-2.75 1.44-2.75 2.52 0 1.6 1.35 2.56 2.45 2.47 1.72-0.14 3.02-1.67 3.02-3.02 0-1.25-1.16-1.97-2.72-1.97z" fill="#FEFFFE"/>
  <path d="m104.8 61.81c-10.78 0-17.38 8.41-17.38 18.28 0 9.19 7.31 15.74 15.96 15.46 9.25-0.28 17.05-8.04 16.76-16.94-0.28-8.58-6.58-16.8-15.34-16.8z" fill="#FEFFFE" stroke="#E08858" stroke-linecap="round" stroke-linejoin="round" stroke-width=".8"/>
  <path d="m106.6 63.25c-7.17 0-11.29 5.36-11.29 11.1 0 6.9 5.75 11.19 11.29 10.91 6.6-0.28 11.11-6.25 11.11-10.82 0-5.22-4.51-11.19-11.11-11.19z" fill="#000"/>
  <path d="m101.6 68.27c-2.29 0-3.01 1.44-3.01 2.45 0 1.6 1.07 2.32 2.23 2.18 1.72-0.14 2.74-1.58 2.74-2.73 0-1.06-0.68-1.9-1.96-1.9z" fill="#FEFFFE"/>
  <path d="m135.9 75.43c-3.69 0.86-7.52 1.72-7.52 4.13 0 2.71 4.37 4.15 6.67 4.15 3.25 0 4.69-4.29 4.69-6.43 0-1.71-1.58-2.41-3.84-1.85z" fill="#FF91A4"/>
  <path d="m136.3 84.82c0.43 3.13 3.41 5.13 8.35 4.7" stroke="#E08858" stroke-linecap="round" stroke-linejoin="round" stroke-width="1.2"/>
  <path d="m136.3 85.11c0 3.41-1.58 6.25-5.54 8.4" stroke="#E08858" stroke-linecap="round" stroke-linejoin="round" stroke-width="1.2"/>
  <path d="m177.5 79.71c-0.43 3.4-5.23 6.11-8.97 5.83-3.12-0.28-3.99-1.58-3.85-3.59 0.29-2.99 4.5-5.7 7.75-5.42 3.25 0.14 5.36 1.15 5.07 3.18z" fill="#FFE4CC"/>
  <path d="m103.2 101.2c0.43 3.69-4.51 6.54-8.73 6.54-3.97 0-5.69-1.57-5.69-3.72 0-3.34 4.52-5.92 8.35-5.92 3.11 0 5.83 0.97 6.07 3.1z" fill="#FFE4CC"/>
  <path d="m180.2 70.81 11.97-4.58c2.3-0.86 2.88 1.7 0.85 2.56l-12.39 4.29c-2.03 0.56-2.17-1.7-0.43-2.27z" fill="#FFC8A2" stroke="#FFC8A2" stroke-linecap="round" stroke-linejoin="round" stroke-width="1.2"/>
  <path d="m181.6 78.63 11.09 1.44c1.58 0.28 1.44 2.15-0.28 1.87l-10.66-1.73c-1.59-0.28-1.59-1.86-0.15-1.58z" fill="#FFC8A2" stroke="#FFC8A2" stroke-linecap="round" stroke-linejoin="round" stroke-width="1.2"/>
  <path d="m62.38 105.7 15.01-4.29c2.02-0.56 2.31 2.57 0 3.13l-14.04 3.13c-1.89 0.43-2.61-1.4-0.97-1.97z" fill="#FFC8A2" stroke="#FFC8A2" stroke-linecap="round" stroke-linejoin="round" stroke-width="1.2"/>
  <path d="m70.71 118.7 11.45-8.99c1.3-1.11 2.27 1.03 0.87 2.14l-10.92 8.35c-1.69 1.26-2.84-0.51-1.4-1.5z" fill="#FFC8A2" stroke="#FFC8A2" stroke-linecap="round" stroke-linejoin="round" stroke-width="1.2"/>
  <path d="m100 169.1-0.96-7.77" stroke="#E08858" stroke-linecap="round" stroke-linejoin="round" stroke-width=".8"/>
  <path d="m122.3 158.2-2.83 24.91c3.25 3.13 2.97 8.45-1.88 10.15" stroke="#E08858" stroke-linecap="round" stroke-linejoin="round" stroke-width=".8"/>
  <path d="m113.2 188.8c-0.73 1.72-0.58 3.16 0 4.74" stroke="#E08858" stroke-linecap="round" stroke-linejoin="round" stroke-width=".8"/>
  <path d="m117.8 187.6c0.97 1.31 1.11 3.03 0.68 4.61" stroke="#E08858" stroke-linecap="round" stroke-linejoin="round" stroke-width=".8"/>
  <path d="m137.2 184.5c-0.58 1.72-0.44 3.16 0.14 4.73" stroke="#E08858" stroke-linecap="round" stroke-linejoin="round" stroke-width=".8"/>
  <path d="m141.7 184.5c0.43 1.15 0.57 2.41 0 3.63" stroke="#E08858" stroke-linecap="round" stroke-linejoin="round" stroke-width=".8"/>
  <path d="m52.18 186.2c0.58 1.44 0.58 3.01 0.29 4.45" stroke="#E08858" stroke-linecap="round" stroke-linejoin="round" stroke-width=".8"/>
  <path d="m57.13 185.7c0.97 1.44 1.11 3.16 0.53 4.73" stroke="#E08858" stroke-linecap="round" stroke-linejoin="round" stroke-width=".8"/>
  <path d="m72.01 155.1c-0.82 6.73-3.94 13.04-9.99 18.74-1.58 1.57-2.16 5.87-2.31 8.01" stroke="#E08858" stroke-linecap="round" stroke-linejoin="round" stroke-width=".8"/>
  <defs>
    <linearGradient id="paint0_linear_161_362" x1="72.9" x2="83.32" y1="170.2" y2="185.3" gradientUnits="userSpaceOnUse">
      <stop stop-color="#FFC8A2" offset="0"/>
      <stop stop-color="#FFC8A2" stop-opacity=".75" offset="1"/>
    </linearGradient>
  </defs>
</svg>