<svg xmlns="http://www.w3.org/2000/svg" width="250" height="250" fill="none" viewBox="0 0 250 250">
<!-- SVG created with Arrow, by QuiverAI (https://quiver.ai) -->
  <path d="m139.7 31.19c-5.88-1.18-9.96-1.37-14.98-1.37-12.01 0-21.42 1.64-30.03 6.05-7.48-7.45-24.67-19.1-38.82-19.7-11.5-0.5-11.7 22-10.1 38.75 0.9 9.86 3 17.81 4.9 23.83-3.5 7.35-4.2 16-4 23.85 0.7 19.26 8.5 33.01 26.3 41.76 10.2 5.12 23.1 8.33 41.9 8.33l10.9-0.3c23.5-1.2 35.4-5.42 46.9-11.64 15.1-8.45 25-19.8 26.9-36.15 1.6-12.75-1.7-24.5-6.3-36.56 3.6-13.92 1.5-42.03-6.4-57.28-2.3-4.31-6.3-4.31-9.8-3.21-10.9 3.51-23 14.46-33.3 24.71l-4.07-1.07z" fill="#FFC8A2" stroke="#C06838" stroke-linecap="round" stroke-linejoin="round" stroke-width="1.2"/>
  <path d="m157.9 37.07c8.5 3.81 17.1 9.72 24.1 16.85 1.4 1.4 2.1 0.2 2.6-3.11 1.3-7.93 0.3-21.69-4.2-28.1-2.2-3.31-7.9-1-11.3 2.2-4.8 3.61-8.3 6.82-10.8 10.76-0.7 0.7-1.2 1-0.4 1.4z" fill="#FFE4CC"/>
  <path d="m59.11 63.23c-4.2-9.15-4.9-18.6-3.1-28.06 1.2-5.01 4.3-5.01 7.9-3.91 6.1 2.11 12.2 6.11 16.3 10.32 0.9 0.9 1.2 1.9-0.5 3.1-9.5 5.91-14.5 10.94-19.7 18.85-0.2 0.4-0.7 0.4-0.9-0.3z" fill="#FFE4CC"/>
  <path d="m139.9 106.2c4.2 4.2 8.7 6.71 14.9 6.51 8.2-0.3 14.7-5.01 18.6-12.22" stroke="#C06838" stroke-linecap="round" stroke-linejoin="round" stroke-width="3.2"/>
  <path d="m71.91 109.7c4.2 6.12 9.8 8.93 17 8.52 7.2-0.4 12.3-3.9 16.5-9.42" stroke="#C06838" stroke-linecap="round" stroke-linejoin="round" stroke-width="3.2"/>
  <path d="m123.9 120.7c0 5.42-1.6 8.22-7.7 10.03" stroke="#C06838" stroke-linecap="round" stroke-linejoin="round" stroke-width="2"/>
  <path d="m123.9 120.7c0.3 4.21 2.3 6.02 5.8 7.52" stroke="#C06838" stroke-linecap="round" stroke-linejoin="round" stroke-width="2"/>
  <path d="m120.1 112c2.7-0.3 5.9-0.3 8.6 0 2.7 0.4 2.8 3.81 0 6.21-2.8 2.51-4.8 2.51-6.4 2.01-3.5-0.9-5.6-3.01-5.6-5.31-0.1-1.91 1-2.61 3.4-2.91z" fill="#FF91A4"/>
  <path d="m195.1 102.3c5.5-0.6 11.3-1.7 17.1-2.21 2.6-0.29 1.7-2.1 0.5-1.9-5.4 0.3-10.3 0.9-17.7 1.8-1.4 0.21-1.8 2.61 0.1 2.31z" fill="#FFC8A2" stroke="#FFC8A2" stroke-linecap="round" stroke-linejoin="round" stroke-width="3.2"/>
  <path d="m193.2 112.1c5.7 1.2 9.6 2.5 15.5 4.61 1.2 0.5 1-0.6 0.1-0.7-5.6-2.11-8.6-3.11-15.2-4.31-1.2-0.3-1.5 0.1-0.4 0.4z" fill="#FFC8A2" stroke="#FFC8A2" stroke-linecap="round" stroke-linejoin="round" stroke-width="4.2"/>
  <path d="m36.21 113.9c-0.1-1.1 0.4-1.5 2-1.5l15.1-0.2c2.2-0.1 1.6 1.9-0.1 1.9l-15.7 1.11c-0.8 0-1.2-0.4-1.3-1.31z" fill="#FFC8A2" stroke="#FFC8A2" stroke-linecap="round" stroke-linejoin="round" stroke-width="3.2"/>
  <path d="m43.11 130.1c-0.5-0.9 0.2-1.4 1.2-1.9l12.6-5.82c1.9-0.9 2.4 1.41 0.9 2.21l-13.1 6.51c-0.8 0.3-1.2-0.2-1.6-1z" fill="#FFC8A2" stroke="#FFC8A2" stroke-linecap="round" stroke-linejoin="round" stroke-width="4.2"/>
  <path d="m177.2 166.8c-1.8-9.05-4.3-14.87-9.1-23.71l-5.1 2.01c-2.9-4.41-4.9-7.81-5.2-11.72l-9.5-8.45-13.6-1.7-6.5 12.95 2.8 16.25 6.8 3.71-1.1 21.7h39.1l1.4-11.04z" fill="#FFC8A2" stroke="#FFC8A2" stroke-linecap="round" stroke-linejoin="round" stroke-width="1.2"/>
  <path d="m86.81 150c-4.6 7.83-8.8 18.48-8.8 27.83h58.7c0-6.62 0.5-11.64 3-19.7-15.8 3.91-37.6 2.11-52.9-8.13z" fill="#FFC8A2" stroke="#FFC8A2" stroke-linecap="round" stroke-linejoin="round" stroke-width="1.2"/>
  <path d="m131 124.2c2.9-5.22 9.7-6.33 14.6-2.21 5.6-3.31 12.5 0.2 12.1 6.71 5 3.11 5.4 7.62 1.2 11.53l-3.5-6.02-8.4-6.21-8.4 2.71-5.6 1.2c-5.9 1.1-8.4 8.65-3.8 13.26 1 1 1.4 1.6 1.2 3-0.7 5.02 4.2 9.53 9.5 7.87l-2.8-14.85 1.5-9.28 7.5-3.91 7.7 5.01 3.3 3.01 10.6 15.36" fill="#D2EEF9"/>
  <path d="m138.8 132.3c1.9 2.41 2.9 4.41 3.2 6.82" stroke="#C06838" stroke-linecap="round" stroke-linejoin="round" stroke-width="1.6"/>
  <path d="m146.3 128.8c1.9 1.41 2.8 3.21 3.3 5.92" stroke="#C06838" stroke-linecap="round" stroke-linejoin="round" stroke-width="1.6"/>
  <path d="m151.5 169.6c-8.5-7.95-17-21.5-14.5-33.85 1.8-8.26 11-10.06 17.5-3.25 4.2 4.51 6.6 11.13 13.1 18.87" stroke="#C06838" stroke-linecap="round" stroke-linejoin="round" stroke-width="1.2"/>
  <path d="m101 167.5-1.4 6.12" stroke="#C06838" stroke-linecap="round" stroke-linejoin="round" stroke-width="1.2"/>
  <path d="m69.81 120.7c-6.4 1.01-7.8 5.42-3.9 8.02 5.3 3.41 12.1 1.31 14.2-1.7 3.2-4.41-3.2-7.02-10.3-6.32z" fill="#FFE4CC"/>
  <path d="m174.8 113c-5.8 2.31-6.7 7.12-0.4 8.63 5.8 1.4 10.6-0.91 11.8-3.71 2.4-5.32-3.7-7.62-11.4-4.92z" fill="#FFE4CC"/>
  <path d="m47.21 141.6c-6 0.5-9.1 7.22-6.9 12.34 2.7 6.32 9.8 6.23 13.3 2.62 5.2-5.22 1.6-14.46-6.4-14.96z" fill="#C2E8F6" stroke="#5AA8CB" stroke-linecap="round" stroke-linejoin="round" stroke-width="1.6"/>
  <path d="m48.21 145.3c-2.9 0.6-3.5 3.91-1.4 5.22 2.5 1.51 5.1-0.4 5-2.61-0.1-2.01-1.9-3.01-3.6-2.61z" fill="#FEFFFE" fill-opacity=".71"/>
  <path d="m193.7 140.6c-5.5 0.7-6.5 7.02-4 10.33 3.5 4.71 9.3 2.51 10.5-1.9 1.3-4.42-2-8.73-6.5-8.43z" fill="#C2E8F6" stroke="#5AA8CB" stroke-linecap="round" stroke-linejoin="round" stroke-width="1.6"/>
  <path d="m194.7 143.8c-2.7 0.3-3.4 3.3-2 4.81 2 2.21 5 0.71 5.2-1.6 0.2-1.91-1.3-3.41-3.2-3.21z" fill="#FEFFFE" fill-opacity=".71"/>
  <path d="m210.8 179.1h-173.4c-7.6 0-8.3 13.66 0.5 13.86l3.5 0.1 8.5 33.3c2.5 9.45 9.9 15.76 18.7 15.76h111c8.8 0 17-7.65 18.5-15.76l9.4-33.6h3.1c8.5 0 8.8-13.66 0.2-13.66z" fill="#88CDEF" stroke="#3588B1" stroke-linecap="round" stroke-linejoin="round" stroke-width="1.6"/>
  <path d="m41.41 193.1 2.1 7.01h138.7l-7.1 26.79c-2.7 9.45-10.4 14.66-16.4 14.66l19.7 0.1c9.3 0 18.1-7.74 19.7-16.19l8.9-32.37h-165.6z" fill="#5DAED8"/>
  <path d="m210.8 179.1h-173.4c-7.6 0-8.3 13.66 0.5 13.86l3.5 0.1h169.2c8.5-0.3 8.8-13.96 0.2-13.96z" fill="#88CDEF" stroke="#3588B1" stroke-linecap="round" stroke-linejoin="round" stroke-width="1.6"/>
  <path d="m205.8 178.3c0.3-5.41-4.9-9.52-11.9-7.52-2.5-6.92-7.4-8.52-12.2-7.82-5.6 0.8-8.7 4.71-10.1 10.03-6.3-3.21-9.9 1.2-11.3 5.31h45.5z" fill="#D2EEF9" stroke="#90D0E0" stroke-linecap="round" stroke-linejoin="round" stroke-width="1.2"/>
  <path d="m180.9 166.5c-3.9 0.6-4.1 5.62-0.5 6.32 3.3 0.7 5.2-2.71 3.8-4.92-0.8-1.1-2-1.6-3.3-1.4z" fill="#FEFFFE"/>
  <path d="m122.9 178.3c-0.5-6.01-7.7-11.23-15.5-6.01-0.8 0.6-1.4 1.2-2.2 0.7-3.5-2.21-6-1.3-8.2 1-2.2-3.51-6.1-4.81-9.7-3.51-1.5-8.26-7.4-13.67-15.5-13.17-7 0.5-11.7 5.81-13.2 11.63-8.6-2.51-14.5 3.95-14.5 9.36h78.8z" fill="#D2EEF9" stroke="#90D0E0" stroke-linecap="round" stroke-linejoin="round" stroke-width="1.2"/>
  <path d="m69.21 162c-2.9 1.7-2.1 5.71 1.2 6.11s4.5-3.01 3-5.21c-1-1.6-3-1.8-4.2-0.9z" fill="#FEFFFE"/>
</svg>