<svg xmlns="http://www.w3.org/2000/svg" width="250" height="250" fill="none" viewBox="0 0 250 250">
<!-- SVG created with Arrow, by QuiverAI (https://quiver.ai) -->
  <path d="m41.78 58.63c2.71-12.02 6.03-24.51 11.14-24.81 6.49-0.36 12.79 6.89 22.06 17.1l0.34 0.39-0.4-0.04-0.04 1.67-33.1 5.69z" fill="#FFC8A2" stroke="#FFC8A2" stroke-miterlimit="10" stroke-width=".25"/>
  <path d="m172 129.3c11.2 3.68 17.25 12.83 25.06 22.23 7.71 9.24 16.86 15.64 31.04 14.71 8.9-0.6 12.7 0.33 15.58 5.67 2.93 5.48 1.09 11.91-7.67 14.81-12.11 4.16-27.94 1.05-39.81-12-9.14-10.3-13.22-16.49-17.52-17.7l-6.68-27.72z" fill="#FFC8A2" stroke="#FFC8A2" stroke-miterlimit="10" stroke-width=".25"/>
  <path d="m135.1 193.2c1.27 3.52 1.16 6.86 0.05 8.25-2.98 2.89-4.36 7.15-2.47 10.11 2.58 3.39 13.34 2.82 18.49 1.02 4.83-1.67 7.82-10.45 9.5-13.34l-8.23-8.19-17.34 2.15z" fill="#FFC8A2" stroke="#FFC8A2" stroke-miterlimit="10" stroke-width=".25"/>
  <path d="m71.99 176.1c-8.01 10.06-12.18 13.07-11.97 24.04 0.16 8 4.51 12.07 10.44 11.35 7.46-0.91 7.73-6.45 9.45-11.4 0.97-2.1 5.97-3.3 12.87-8.89l0.66-2.03-18.33-14.16-3.12 1.09z" fill="#FFC8A2" stroke="#FFC8A2" stroke-miterlimit="10" stroke-width=".25"/>
  <path d="m134.7 121.9c13.43-1.03 27.52-1.13 38.44 8 11.78 9.08 12.29 22.96 10.83 33.89-0.87 6.62-3.85 14.08 1.51 19.36 4.45 1.75 5.02 4.76 8.25 11.3 2.41 4.25 1.54 7.95-0.46 13.65-2.45 5.33-5.57 7.8-8.75 6.82-4.6-1.05-5.42-7.68-7.43-10.67-1.45-2.5-4.27-1.64-11.22-3.44-7.79-2.14-15.63-7.09-16.55-8.43-7.51 1.97-17.39 2.07-29.75 2.07 0.05 6.82 0 14.6-2.55 19.04-3.12 4.01-12.5 4.63-17.22 3.51-3.9-1.23-5.01-4.9-2.8-9.11 0.82-1.19 0.72-1.19 0.15-3.16-1.25-4.96-3.15-11.62-4.41-13.42-11.57-4.4-21.71-9.83-27.02-28.61-23.5-0.3-55.5-6.73-57.5-35.59-0.26-9.61 6.08-10.44 6.24-21.1 0.16-19.84 8.54-39.99 30.26-49.76 9.28-4.15 18.41-5.9 29.83-5.7 4.6 0.1 15.67 1.24 23.95 5.49 20.35 8.47 35.93 23.72 36.6 56 0.05 3.67-0.11 5.94-0.4 9.86z" fill="#FFC8A2" stroke="#FFC8A2" stroke-miterlimit="10" stroke-width=".25"/>
  <path d="m135.4 122.2c-4.65 20.6-20.94 39.8-56.74 45.13-3.9 0.41-6.93 0.87-12.53-0.46l-0.57-4.01c11.57-0.05 35.33-0.86 50.45-15.18 11.21-9.38 17.21-17.57 18.78-25.78l0.61 0.3z" fill="#FFC8A2" stroke="#FFC8A2" stroke-miterlimit="10" stroke-width=".25"/>
  <path d="m114.4 67.69c-2.72-12.21-6.67-22.67-16.65-33.97-3.51-3.11-6.28-2.91-8.33-1.22-4.4 3.48-8.64 12.31-15.54 22.62-1.79 4.74-1.74 9.05 2.06 14.28 8.66 11.52 18.04 17.65 28.23 14.36 7.94-3.29 11.94-8.93 10.23-16.07z" fill="#FFC8A2" stroke="#FFC8A2" stroke-miterlimit="10" stroke-width=".25"/>
  <path d="m92.16 47.81c-2.05-3.67-5.23-2.08-6.64 0.92-3.56 5.79-6.69 10.92-6.18 13.97 0.47 4.16 8.8 11.72 11.57 12.75 3.34 1.23 3.91-5.44 3.03-16.31-0.52-4.01-1.09-8.52-1.78-11.33z" fill="#FFE4CC" stroke="#FFE4CC" stroke-miterlimit="10" stroke-width=".25"/>
  <path d="m45.32 92.86c-9.67 0-16.78 9.39-16.57 19.65s7.16 16.78 16.16 16.78c9.53 0 16.08-9.49 16.08-18.67 0-8.88-6.29-17.76-15.67-17.76z" fill="#FEFFFE" stroke="#FEFFFE" stroke-miterlimit="10" stroke-width=".25"/>
  <path d="m40.72 97.81c-7.21 0-11.86 7.95-11.5 15.88 0.32 8.06 5.42 13.86 10.73 13.65 6.95-0.26 10.46-8.62 10.46-14.73 0-7.26-4.29-14.8-9.69-14.8z" fill="#2D2D2D" stroke="#2D2D2D" stroke-miterlimit="10" stroke-width=".25"/>
  <path d="m36.01 102.7c-1.73 1.38-2.09 3.51-0.79 4.95 1.57 1.75 3.62 1.07 4.19 0.4 1.52-1.28 1-3.7 0.08-4.63-1.03-1.08-2.44-1.38-3.48-0.72z" fill="#FEFFFE" stroke="#FEFFFE" stroke-miterlimit="10" stroke-width=".25"/>
  <path d="m6.11 120.2c0-2.56 1.68-3.38 3.14-3.38 1.84 0 5.51 0.41 6.08 2.1 0.82 2.36-3.73 8.77-5.78 8.77-2.22 0-3.44-4.01-3.44-7.49z" fill="#FF91A4" stroke="#FF91A4" stroke-miterlimit="10" stroke-width=".25"/>
  <path d="m10.01 127.7c0 4.35 1.17 8.02 5.77 8.02 4.1 0 4.97-2.27 6.28-4.38" stroke="#2D2D2D" stroke-linecap="round" stroke-miterlimit="10" stroke-width="3"/>
  <path d="m58.72 127.6c-4.7 1.18-5.91 4.29-5.59 6.31 0.62 3.87 4.81 4.95 8.66 4.75 5.87-0.31 8.31-3.65 8.26-5.47-0.16-4.1-4.34-5.95-11.33-5.59z" fill="#FFE4CC" stroke="#FFE4CC" stroke-miterlimit="10" stroke-width=".25"/>
  <path d="m84.51 121.2 17.71-3.39" stroke="#FFC8A2" stroke-linecap="round" stroke-miterlimit="10" stroke-width="5"/>
  <path d="m84.51 131 17.71 2.53" stroke="#FFC8A2" stroke-linecap="round" stroke-miterlimit="10" stroke-width="5"/>
  <path d="m81.63 139.8 13.09 7.85" stroke="#FFC8A2" stroke-linecap="round" stroke-miterlimit="10" stroke-width="5"/>
  <path d="m146.9 179.2c0 8.99 2.1 18.07 19.1 21.08" stroke="#FFC8A2" stroke-linecap="round" stroke-miterlimit="10" stroke-width="3"/>
</svg>