<svg xmlns="http://www.w3.org/2000/svg" width="250" height="250" fill="none" viewBox="0 0 250 250">
<!-- SVG created with Arrow, by QuiverAI (https://quiver.ai) -->
  <path d="m188 52.4c12.12 3.86 20.92 9.26 25.92 12.28 12.2 7.39 29.24 22.84 30.04 45.29 0.54 15.14-8.17 33.07-20.59 33.39-8.18 0.23-14.45-6.65-11.98-15.62 1.93-7.22 7.58-9.93 7.58-20.32 0-11.16-8.57-19.95-16.75-26.44l-14.22-6.64v-21.94z" fill="url(#paint0_linear_133_1163)"/>
  <path d="m202 60.53c5.4 4.38 7.18 12.68 4.15 18.51l-4.29-3.23-7.39-13.53-3.72-9.27c4 1.1 7.37 4.26 11.25 7.52z" fill="#FFC8A2"/>
  <path d="m139 30.43c-32.87 0-57.1 18.85-71.61 43.53l-4.57 8.35-3.72 2.37c-8.23-5.26-20.3-13.5-34.43-13.5-3.86 0-5.69 2.5-7.12 8.52-2.82 11.53-2.21 27.12 3.26 40.02-4.29 9.27-5.66 19.24-5.05 29.2l1.32 6.79h-8.61c-1.99 0-2.92 1.21-2.92 2.42 0 1.48 1.11 2.54 2.49 2.49l11.26-0.5 1.74 5.26-8.57 4.24c-1.27 0.65-1.65 1.91-1.13 2.97 0.61 1.26 1.99 1.35 3 0.93l8.84-3.48c3.81 5.45 6.99 9.02 11.04 12.18-3.5 4.89-5.2 9.97-3.12 13.44 2.17 3.71 7.03 4.36 13.16 3.71l3.46-9.26 6.89-1.32 7.53-1.58 9.49-1.48 13.3 1.48 16.8 1.58 10.4-1.58c5.31-2.32 11.39-5.49 17.52-8.61-0.52 3.57-3.33 9.16-2.68 14.56 0.97 6.07 5.88 7.93 12.44 7.56 7.53-0.47 12.01-3.63 15.73-11.56 5.74-12.41 7.16-25.94 5.69-42.15 4.29-2.09 6.46-3.67 9.59-6.64 3.41 4.65 6.13 11.87 3.41 19.09-2.86 4.05-3.14 10.65 1.86 13.45 3.03 1.31 10.11 1.78 14.26-0.59 7.53-4.05 9.99-14.44 11.41-25.97 0.76-6.93-2.56-10.19-3.03-13.61-0.8-6.59 4.65-19.26 4.65-38.02 0-30.61-19.91-64.29-63.98-64.29z" fill="url(#paint1_linear_133_1163)"/>
  <path d="m134.8 67.82c-10.87 0-23.08 9.22-27.74 13.12-8.94-4-22.33-6.88-41.04-3.62l-1.89 4.52c13.21-2.93 26.9-1.92 39.59 3.07-1.79 2.23-2.8 4.27-2.43 7.2 1.43 8.07 17.76 13.95 38.29 20.59 4.29-9.49 5.71-23.02 2.44-34.78-1.38-4.38-3.94-10.1-7.22-10.1z" fill="#E0A070"/>
  <path d="m185.8 110.4c-3.46 16.24-10.99 24.31-24.29 33.53" stroke="#E0A070" stroke-linecap="round" stroke-width="4.431"/>
  <path d="m143 118.8c6.36-11.76 7.64-34.73 0.74-45.21-4.61-6.59-11.21-6.03-20.7-1.65s-19.8 12.87-21.27 17.76c-2.46 7.93 7.03 12.82 17.38 16.87 6.74 2.77 15.48 5.38 19.82 6.53 5.74 10.79 9.74 23.74 6.77 43.4l-2.71 0.47c-2.93 0-3.9 4.75 0.85 4.75h0.76c-0.43 1.86-0.99 3.48-1.85 5.34l-3.86 0.23c-2.72 0.43-3.28 4.81 1.01 4.81l-2.31 3.31c-2.32 2.97-5.59 5.39-6.2 7.06l0.61 3.22c6.65-3.08 12.83-10.78 15.14-14.09l1.79 1.53c3.46 1.48 4.93-3.07 1.47-4.55l-2.31-1.11c0.96-2.33 1.57-3.71 2-6.37l3.02-0.52c3.72-0.43 3.39-5.32-0.66-4.89l-2.36 0.23c2.92-12.03 0-26.18-5.3-36.97l-1.83-0.15z" fill="#E0A070"/>
  <path d="m134.2 75.11c-8.27-0.92-21.06 7.91-25.96 12.5-3.5 3.21-4.11 6.03 0.89 9.45 6.7 4.59 19.06 10.23 26 12.18 4.85-6.21 8.31-33.07-0.93-34.13z" fill="#FFC8A2"/>
  <path d="m131.2 82.31c-6.27 0-15.02 6.5-18.09 8.87 8.13 4.05 15.07 10.55 19.59 16.15 4.05-2.05 4.76-25.02-1.5-25.02z" fill="#FFE4CC"/>
  <path d="m24.71 71.18c10.3-1.11 23.23 6.48 32.07 12.07 4.05 2.67 5.33 5.6 2.87 11.19-4.05 8.49-14.54 12.2-29.64 16.58-3.46 1.06-5.92 2.92-8 5.73-5.74-10.48-5.46-30.69-2.79-39.91 0.96-3.16 2.29-5.3 5.49-5.66z" fill="#FFC8A2"/>
  <path d="m29.66 82.63c5.65-1.48 14.75 4.54 18.8 8.59-7.53 4.89-14.47 11.39-19.92 16.98-3.13-3.47-3.83-24.14 1.12-25.57z" fill="#FFE4CC"/>
  <path d="m49.98 136.9c-10.17 0-16.3 9.72-16.3 17.08 0 9.76 8.23 16.64 16.76 16.64 9.82 0 15.38-7.68 15.38-15.57 0-8.99-6.85-18.15-15.84-18.15z" fill="#FEFFFE"/>
  <path d="m109.7 136.9c-10.18 0-16.3 9.72-16.3 18.72 0 9.76 6.94 14.51 14.47 14.51 9.19 0 17.13-8.49 17.13-16.94 0-8.49-7.08-16.29-15.3-16.29z" fill="#FEFFFE"/>
  <path d="m52.79 145.1c-8.53 0-12.82 7.94-12.82 13.02 0 7.39 5.74 12 11.81 12 7.85 0 13.21-6.44 13.21-12.47 0-6.73-5.6-12.55-12.2-12.55z" fill="#2B2A29"/>
  <path d="m106.6 145.1c-7.85 0-11.9 6.5-11.9 12.99 0 7.39 6.08 12.03 11.9 12.03 7.12 0 11.97-6.44 11.97-12.03 0-6.93-5.87-12.99-11.97-12.99z" fill="#2B2A29"/>
  <path d="m58.01 149.4c-2.72 0-3.47 1.91-3.47 3.73 0 2.37 1.84 3.95 3.68 3.95 2.46 0 3.93-2.09 3.93-4 0-2.1-1.79-3.68-4.14-3.68z" fill="#FEFFFE"/>
  <path d="m101.9 149.4c-2.72 0-3.96 1.91-3.96 3.73 0 2.37 1.84 3.53 3.26 3.53 2.46 0 4.3-1.67 4.3-3.58 0-2.1-1.28-3.68-3.6-3.68z" fill="#FEFFFE"/>
  <path d="m35.1 168.7c-3.72 0.97-5 4.08-2.18 6.27 3.27 2.61 5.99 3.21 9.06 2.7 4.15-0.7 4.53-3.02 3.43-5.85-1.24-3.26-5.72-4.18-10.31-3.12z" fill="#FFE4CC"/>
  <path d="m125.2 168.1c-5.17 0.65-7.89 3.32-7.89 5.79 0 2.46 1.84 3.67 4.76 3.67 4.24 0 9.14-3.21 9.41-5.93 0.28-2.71-2.18-4.01-6.28-3.53z" fill="#FFE4CC"/>
  <path d="m42.26 209.2 5.83-20.25c0-5.21 14-7.72 32.89-7.72s33.4 3.52 33.4 8.72l5.83 18.68c0 6.4-17.54 10.6-39.97 10.6s-37.98-4.2-37.98-10.03z" fill="url(#paint2_linear_133_1163)"/>
  <path d="m80.98 196.6c16.91 0 32.93-3.65 32.93-7.63 0-3.99-15.1-7.25-32.01-7.25s-31.55 2.77-31.55 6.75c0 3.99 13.72 8.13 30.63 8.13z" fill="url(#paint3_linear_133_1163)"/>
  <path d="m94.71 182.2c-1.79 0-2.98 1.67-4.58 1.67-2.22 0-3.18-2.18-8.24-2.18-4.53 0-5.91 2.18-8.17 2.18-1.6 0-2.75-1.67-4.92-1.67-4.58 0-8.63 1.67-8.63 7.26l-0.56 1.16c4.61 0.97 11.41 1.55 21.32 1.55s17.99-1.58 23.69-3.06c0.6-4.19-4.25-6.91-9.91-6.91z" fill="#895830"/>
  <path d="m78.91 175.1 1.51-0.18 1.7 0.18c0 3.06 1.65 4.08 3.87 4.08 2.62 0 3.09-2.76 4.28-3.13 1.01-0.33 1.92 0.55 1.41 1.98-1.06 2.42-3.67 4.09-5.98 3.81-1.98-0.23-3.53-1.15-4.45-2.73-1.19 1.67-2.66 2.5-4.88 2.73-3.02 0.28-5.59-1.16-7.29-4.18-0.7-1.36 0.45-2.28 1.46-1.91 1.47 0.55 2.08 3.43 5.35 3.43 2.22 0 3.02-1.48 3.02-4.08z" fill="#C06838"/>
  <path d="m75.06 166.3c-2.22 0.7-3.23 2.79-1.34 5.21s3.45 3.58 6.17 3.58c3.46 0 6.18-2 6.93-5.07 0.61-2.42-1.08-3.72-3.9-3.95-2.36-0.23-5.38-0.51-7.86 0.23z" fill="#FF91A4"/>
  <defs>
    <linearGradient id="paint0_linear_133_1163" x1="218.7" x2="232" y1="52.4" y2="143.9" gradientUnits="userSpaceOnUse">
      <stop stop-color="#FFC8A2" offset="0"/>
      <stop stop-color="#FFC8A2" offset="1"/>
    </linearGradient>
    <linearGradient id="paint1_linear_133_1163" x1="106.8" x2="121.7" y1="30.43" y2="201.6" gradientUnits="userSpaceOnUse">
      <stop stop-color="#FFC8A2" offset="0"/>
      <stop stop-color="#FFC8A2" offset="1"/>
    </linearGradient>
    <linearGradient id="paint2_linear_133_1163" x1="81.24" x2="81.24" y1="181.2" y2="219.2" gradientUnits="userSpaceOnUse">
      <stop stop-color="#A56941" offset="0"/>
      <stop stop-color="#A56941" offset="1"/>
    </linearGradient>
    <linearGradient id="paint3_linear_133_1163" x1="82.13" x2="82.13" y1="181.7" y2="196.6" gradientUnits="userSpaceOnUse">
      <stop stop-color="#B8825A" offset="0"/>
      <stop stop-color="#B8825A" offset="1"/>
    </linearGradient>
  </defs>
</svg>