<svg xmlns="http://www.w3.org/2000/svg" width="250" height="250" viewBox="0 0 250 250">
<!-- SVG created with Arrow, by QuiverAI (https://quiver.ai) -->
  <path d="m92.81 69.7c4.63-9.62 21.16-24.64 30.41-24.7 6.87-0.04 14.21 17.02 15.69 25.09 9.21-4.96 23.08-5.88 31.87-5.47 37.41 1.77 68.54 26.81 72.67 62.13 4.62 40.34-28.17 73.16-84.41 77.38-17.95 0.85-31.92-1.61-42.42-6.96-3.64 0.8-7.7-0.36-10.9-3.9-3.93 4.06-8.74 5.02-15.6 4.66-12.66-0.7-28.78-4.02-33.64-15.41l-0.86-2.9-9.21-5.3-6.96 2.9-9.31-37c-9.21-5.3-23.13-25.5-24.13-36.81-1-8.05 14.66-11.75 25.71-12.7 5.65-0.48 11.7-0.58 14.79-0.28 12.82-13.29 29.2-20.42 46.3-20.73z" fill="#FFC8A2"/>
  <path d="m142.7 68.03c3.02 1.66 3.31 11.06 3.46 17.23 6.96 6.62 10.93 14.35 13.01 21.52l4.43-1.28c3.45-0.69 3.85 4.42 0.67 4.94l-3.77 1.4c0.77 3.41 1.1 6.59 1.22 8.17l3.89-1.07c3.69-0.75 4.08 4.36 0.53 5.01l-4.44 0.71c-0.36 14.06-7.64 28.32-29.55 43.45l16.45 4.51c3.2-4.64 7.85-6.26 13.25-7.45-5.46-17.74 0.54-44.85 27.84-48.56 5.02-0.68 3.98 3.3 0.3 3.69-20 2.93-29.8 20.43-22.64 45.63 0.81 2.08-0.25 2.88-2.08 2.89-5.07 0.44-9.36 2.19-11.48 4.89 14.68 3.18 38.18-2.42 52.91-13.68 1.41-2.08 2.36-2.72 3.47-1.61 1.26 1.26-0.18 3.18-2.38 5.21-15.08 12.71-35.65 17.36-52.74 14.75-8.16-1.21-16.23-3.79-24.45-5.56-9.46-2.35-20.01 0.26-21.63 9.57-1.25 6.62 1.64 12.07 8.89 14.72-4.49 1.42-11.74-1.09-12.95-5.43l-0.51-3.97 0.2-4.5c-11.5 4.3-24.81 5.92-33.61 4.96-6.76-0.56-12.92-1.66-14.68-7.16l3.69 1.1c15.18 3.05 33.44-0.39 45.7-6.79 3.93-5.3 9.08-7.38 17.3-7.69 18.77-10.82 32.69-23.92 34-44.17l-2.2-0.35c-3.04-0.7-2.59-4.99 0.81-4.39l1.83 0.2c-0.15-2.8-0.75-5.15-1.45-7.5l-2.2 1.72c-2.99 1.41-4.3-3.03-1.7-4.29l2.6-1.41c-2.79-7.73-7.33-14.6-14.19-20.85 0.2-5.45-0.65-11.71-2.58-18.57 1.05-0.44 2.44-0.59 4.78 0.01z" fill="#FFC8A2"/>
  <path d="m45.46 91.27c-6.35 6.82-13.64 17.64-16.34 34.54-6.56-5.75-12.22-15.8-12.31-19.04 0.05-4.39 5.11-4.79 10.02-5.14 4.29-0.35 9.45-0.5 11.8-0.5 1.16-2.18 3.41-5.51 6.83-9.86z" fill="#FFC8A2"/>
  <path d="m104.2 69.19c6.66-7.78 13.22-12.98 17.01-12.48 4.03 0.6 7.72 13.3 8.33 22.41-7.72-4.69-16.23-8.43-25.34-9.93z" fill="#FFC8A2"/>
  <path d="m92.71 69.44c4.91-9.26 19.28-23.83 30.62-24.44 4.71-0.27 11.57 11.96 15.46 23.12 1.67 5.25 3.33 11.71 2.93 18.02l-3.29-2.9c-2.12-1.82-4.52-3.9-8.41-6.15-0.95-8.31-5.09-20.69-8.54-20.58-3.74-0.15-11.26 7.07-16.76 12.77-3.74-0.4-8.18-0.45-12.01 0.16z" fill="#FFC8A2"/>
  <path d="m46.31 90.73c-7.16-1.11-19.43-0.76-28.19 2.09-6.96 2.3-12.41 5.01-12.01 10.81 0.9 9.51 12.16 27.25 23.61 36.71l-0.7-7.12 0.5-6.61c-5.3-4.1-12.16-14.56-12.81-19.46-0.6-4.49 6.06-5.34 11.27-5.54l10.01 0.4 7.16-10.91 1.16-0.37z" fill="#FFC8A2"/>
  <path d="m38.65 162.4-10.66 4.75c-1.93 2.03-0.05 4.2 1.63 3.29l11.29-5.1c3.84-1.61 1.86-4.8-2.26-2.94z" fill="#FFC8A2"/>
  <path d="m45.41 170.5-8.32 7.32c-1 2.08 1.85 4.25 3.67 2.48l7.66-7.11c2.25-2.18-0.6-4.73-3.01-2.69z" fill="#FFC8A2"/>
  <path d="m61.11 165.1c-7.72 1.26-8.07 7.52-3.07 8.73 5.75 1.46 12.01-1.15 12.01-4.94 0-2.85-3.74-4.5-8.94-3.79z" fill="#FFE4CC"/>
  <path d="m143.9 125.2c-5.65 3.55-8.85 9.96-5.15 11.52 4.75 2.03 10.35-2.97 11.5-6.67 1.1-3.64-2.1-7.09-6.35-4.85z" fill="#FFE4CC"/>
  <path d="m136.2 118.4c-1.6-0.08-2 1.37-2.25 3.09-1.65 8.51-11.06 14.12-20.17 8.77-3.19-1.86-4.74 2.39-1.89 4.05 11.1 6.31 24.51-1.56 26.31-12.47 0.4-2.13 0.15-3.39-2-3.44z" fill="#C06838"/>
  <path d="m84.41 143.2c-1.6 0.05-2 1.5-2.35 3.22-1.95 7.62-11.01 12.22-20.97 7.27-3.3-1.98-5.2 2.21-2.5 3.82 10.16 6.11 24.02-0.2 27.22-10.36 0.7-2.2 0.6-4-1.4-3.95z" fill="#C06838"/>
  <path d="m104.2 141.1c-4.09 1.15-8.59 3.61-8.69 5.76-0.2 2.95 4.5 5.16 7.3 4.71 3.5-0.55 5.3-6.21 5.2-8.06-0.1-1.86-1.4-3.01-3.81-2.41z" fill="#FF91A4"/>
  <path d="m104.2 152.5c0.4 2.3-1.1 5.6-5.91 4.75-2.4-1.05-3.2-0.55-3.4 0.5-0.25 1.31 1.3 2.16 2.8 2.71 4.31 1.15 7.71-1.05 9.01-4.21 4.4 2.41 9.56-0.95 10.16-5.3 0.4-2.65-2.75-3.25-2.95-0.85-0.5 3.5-4.91 6-8.21 3.2-0.75-0.6-1-1.75-1.5-0.8z" fill="#C06838"/>
</svg>