<svg xmlns="http://www.w3.org/2000/svg" width="168" height="168" fill="none" viewBox="0 0 168 168">
<!-- SVG created with Arrow, by QuiverAI (https://quiver.ai) -->
  <path d="m50.17 32.19 2.1-2.78c2.71-10.26 6.25-17.28 11.55-23.9 1.95-2.25 4.46-1.95 5.86-0.74 7.06 6.11 11.04 12.94 12.95 17.17 9.15 1.82 17.2 6.86 23.34 13.28 8.84-1.08 16.2 0.13 21.29 2.72 2.22 1.09 1.91 3.57 1.1 5.99-2.44 7.26-9.2 15.66-14.99 21.55-2.45 11.46-9.11 21.78-23.35 22.13 4.33 11.3 4.14 24.2 0.81 32.01-3.58 8.64-11.94 15.17-23.46 15.3-2.75 0.03-5.23-0.3-7.74-0.65-1.77-0.26-2.82-0.08-3.52 1.16-1.03 1.48-3.23 1.98-5.48 1.15-4.92-1.89-8.5-9.77-10.32-14.93-1.09-4.37 0.15-7.5 3.3-7.27 2.43-0.04 4.1 1.03 5.83 2.53l0.73-33.89c-2.99-5.94-6.56-10.61-9.73-15.09-2.51-3.6-1.75-11.16 4.37-11.22 2.25-0.03 4.02 0.75 5.36 1.68v-26.2z" fill="#FFC8A2"/>
  <path d="m53.38 28.71c1.63-7.48 4.71-15.05 10.49-22.01 1.84-2.29 4.04-2.46 5.74-1.07 5.56 4.66 9.67 10.73 12.18 15.88-10.67-1.57-20.55 0.76-28.41 7.2z" fill="#FFC8A2"/>
  <path d="m61.31 24.47c0.86-4.26 2.72-8.59 5.38-12.78 0.92-1.27 2.3-0.78 3.13 0.05 2.66 2.77 4.56 5.67 5.89 8.57-4.86-0.12-9.72 1.1-14.4 4.16z" fill="#FFC8A2"/>
  <path d="m106.8 35.93c7.27-0.97 14.24-0.19 19.89 2.56 2.15 1.04 2.26 2.93 1.45 5.42-2.49 7.6-8.69 15.37-14.48 20.91 1.09-9.61-1.25-20.14-6.86-28.89z" fill="#FFC8A2"/>
  <path d="m109.3 41.08c4.31-0.62 8.49-0.29 11.23 0.98 1.3 0.61 1.58 1.73 0.87 3.43-1.91 3.92-4.66 7.67-7.71 10.67-0.25-5.15-1.76-10.35-4.39-15.08z" fill="#FFC8A2"/>
  <path d="m53.07 30.11c7.22-6.3 16.01-9.5 24.85-9.12 19.1 0.85 36.69 15.92 36.57 37.73-0.1 13.27-8.84 29.12-24.4 28.79-10.38-0.23-19.61-5.6-24.27-8.89-3.9-8.53-8.81-16.23-14.81-21.01l2.06-27.5z" fill="#FFC8A2"/>
  <path d="m52.21 48.82-0.07 6.51c1.97 0.76 3.14-0.67 3.22-2.22 0.09-1.89-1.09-3.63-3.15-4.29z" fill="#FFC8A2"/>
  <path d="m63.39 36.69c-6.07-0.13-9.06 5.73-9.06 10.52 0 5.2 3.86 9.43 8.85 9.43 5.49 0 8.67-4.18 8.67-10.02 0-5.2-3.44-9.81-8.46-9.93z" fill="#FEFFFE"/>
  <path d="m64.31 40.96c-5.09 0-7.42 4.66-7.42 8.15 0 4.33 3.33 7.51 6.99 7.41 4.94-0.13 7.64-3.81 7.64-8.29 0-3.73-3.11-7.27-7.21-7.27z" fill="#2E2E2E"/>
  <path d="m68.01 44.93c-1.65 0-1.98 1.18-1.98 1.88 0 1.31 0.98 1.91 1.9 1.91 1.25 0 2.05-0.93 2.05-2.02 0-0.98-0.8-1.77-1.97-1.77z" fill="#FEFFFE"/>
  <path d="m93.75 53.95c-6.57 0-10.24 5.96-10.24 10.52 0 5.74 4.17 8.51 9.31 8.51 5.89 0 9.7-5.15 9.7-9.48 0-5.21-4.43-9.55-8.77-9.55z" fill="#FEFFFE"/>
  <path d="m91.26 56.72c-5.04 0-7.65 4.56-7.65 7.89 0 4.84 3.57 7.1 7.24 7.1 4.66 0 7.17-4.48 7.17-7.33 0-4.47-3.33-7.66-6.76-7.66z" fill="#2E2E2E"/>
  <path d="m90.31 58.32c-1.7 0-2.03 1.31-2.03 1.92 0 1.31 1.03 2.01 1.89 2.01 1.38 0 2.08-1.09 2.08-2.07 0-1.09-0.92-1.86-1.94-1.86z" fill="#FEFFFE"/>
  <path d="m95.95 74.93c-3.04-0.5-5.94 0.21-5.94 2.47 0 2.31 3.28 3.34 5.72 3.34 2.98 0 4.01-1.18 4.01-2.39 0-1.31-1.83-3.09-3.79-3.42z" fill="#FFE4CC"/>
  <path d="m73.86 56.72c-1.7 0-1.97 1.09-1.8 2.07 0.27 1.43 0.76 3.32 1.9 3.82 1.19 0.55 2.74 0.55 3.99-0.38 1.29-0.98 1.73-1.58 0.87-2.74-0.98-1.26-2.91-2.77-4.96-2.77z" fill="#FF91A4"/>
  <path d="m73.41 63.7-1.43 1.53-2.76-0.06c-0.65 0-0.87 0.55-0.87 0.88 0 0.6 0.38 0.99 1.09 0.99l2.51-0.22 0.87 2.04c0.33 0.65 0.93 0.65 1.31 0.48 0.55-0.27 0.72-0.82 0.44-1.53l-0.93-2.36 0.87-1.53-1.1-0.22z" fill="#E08858"/>
  <path d="m107.9 76.99c-0.98 0-1.36 0.71-1.36 1.31 0 0.49 0.38 1.04 0.87 1.42l4.71 2.9c0.98 0.6 1.74 0.11 2.07-0.44 0.49-0.82 0.11-1.65-0.76-2.2l-4.53-2.8c-0.39-0.17-0.66-0.19-1-0.19z" fill="#FFC8A2"/>
  <path d="m103.9 81.7c-1.19 0-1.46 0.82-1.46 1.42 0 0.61 0.44 0.99 0.77 1.38l3.57 3.23c0.87 0.77 1.73 0.38 2.12-0.22 0.49-0.77 0.05-1.8-0.66-2.57l-3.1-2.85c-0.44-0.33-0.77-0.39-1.24-0.39z" fill="#FFC8A2"/>
  <path d="m65.55 78.21c6.34 4.52 15.8 8.9 24.46 9.5l-0.87 2.42c-9.23-0.87-18.02-4.87-24.02-8.92l-0.6 0.43c-2.71-9.5-8.81-19.22-15.8-24.06l1.75-0.33c6.75 4.84 12.44 13.53 15.08 20.96z" fill="#FFC8A2"/>
  <path d="m50.32 83.62 1.34 2.59-1.34 0.82v23.68l0.87-1.09c2.75-3.74 8.96-5.79 15.53-2.05 0.6 0.39 0.6 1.04 0.33 1.32-0.38 0.49-1.04 0.32-1.53-0.06-5.37-3.49-11.36-0.72-13.42 3.28-1.78 3.65-1.94 6.24-1.78 8.39 0.17 0.6 0 0.98-0.49 1.15-0.65 0.11-1.03-0.33-1.2-1.15-0.22-1.78-0.16-3.27 0.11-4.8l-0.55-0.49c-1.13-0.77-2.42-1.1-4.25-0.99-3.63 0.11-4.55 3.7-3.42 7.49 2.29 7.2 6.59 14.11 11.2 15.09 2.34 0.49 4.27-0.65 5.19-2.25 0.49-0.6 1.2-0.49 2.23-0.44 3.27 0.44 5.28 0.71 7.88 0.71-3.57 7.2-6.71 18.17-2.49 30.24l1.19 2.59h15.79c0.6-3.54-0.79-6.64-3.18-11.79-3.8-8.15-2.82-15.62-0.39-22.82l0.27 0.11c-6.28 2.9-14.59 1.76-17.02 1.27-1.97-0.44-3.27-0.27-4.3 0.94-1.44 1.77-3.54 1.99-5.5 1.28-5.09-1.89-8.84-9.6-10.94-14.93-1.29-4.18 0-7.46 2.75-7.46 2.34 0 3.88 0.71 5.58 1.97l1.54 0.5v-33.1z" fill="url(#paint0_linear_256_142)"/>
  <defs>
    <linearGradient id="paint0_linear_256_142" x1="59.84" x2="59.84" y1="83.62" y2="167.6" gradientUnits="userSpaceOnUse">
      <stop stop-color="#FFC8A2" offset="0"/>
      <stop stop-color="#FFC8A2" offset="1"/>
    </linearGradient>
  </defs>
</svg>