<svg xmlns="http://www.w3.org/2000/svg" width="256" height="256" fill="none" viewBox="0 0 256 256">
<!-- SVG created with Arrow, by QuiverAI (https://quiver.ai) -->
  <path d="m249.7 44.88c-0.92-1.23-2.28-0.67-3.64 0.23 2.42-6.85 1.95-14.72-3.76-15.1 0.58-3.96 0-9.38-3.4-9.7-4.2-0.4-8.85 3.01-10.84 6.1-1.19-1.25-2.19-1.69-3.25-1.6-5.24 0.46-8.71 9.34-10.21 16.1-0.89-1.7-2.22-2.82-3.87-2.19-3.83 1.52-4.46 10-2.91 17.26-1.36-2.06-3.05-3.31-5.02-2.15-3.35 1.99-1.88 12.48-0.2 19.99-1.57-1.71-4.2-4.03-5.12-1.91-1.3 3.22-0.63 15.95 0.79 24.85l-4.65-5.78c1.25-0.79 2.14-1.99 0.2-3.55s-6.22-2.85-9.97-3.56c1.65-1.38 3.23-3.66 0.96-4.97-2.16-1.22-7.91-1.71-12.64-0.99 1.19-1.87 1.83-4.15-1.09-4.71s-8.88 0.68-11.43 2.49c0.7-2.28 1.25-4.28-1.67-4.28-3.21 0-10.55 3.25-15.06 5.81l-3.87 8.69 2.26 29.2 7.94 3.95 60.7-1c9.03-4.89 22.85-16.08 24.26-19.14 1.19-2.79-1.11-2.79-3.53-2.51 5.59-4.33 11.23-10.52 11.06-11.93-0.34-2.37-2.7-1.52-4.69-1.06 6.81-6.11 11.73-13.34 10.96-16.72-0.59-2.22-2.24-1.94-4.06-1.27 5.35-8.47 7.77-17.81 5.75-20.55z" fill="url(#paint0_linear_1338_1255)" stroke="#FFE4CC" stroke-miterlimit="10" stroke-width=".7"/>
  <path d="m155.2 194.8-2.06 10.44c-4.51 1.23-5.33 7.28-4.03 11.05 1.57 4.17 7.16 5.13 16.07 3.25 6.96-1.51 11.61-16.04 14.4-25.74l-4.09-12.86-16.3-0.77-3.99 14.63z" fill="url(#paint1_linear_1338_1255)" stroke="#FFE4CC" stroke-miterlimit="10" stroke-width=".7"/>
  <path d="m68.11 185.3-5.96 25.29c-5.9 2.38-7.03 7.5-6.45 11.51 0.88 5.37 9.02 6.72 17.93 4.54 5.29-1.32 7.78-3.5 10.93-9.8 2.46-4.63 6.61-11.72 9.06-17.72l-5.4-12.15-20.11-1.67z" fill="url(#paint2_linear_1338_1255)" stroke="#FFE4CC" stroke-miterlimit="10" stroke-width=".7"/>
  <path d="m7.42 74.11c-5.29 3.71-0.58 26.82 8.74 47.06l7.06-4.07 25.52-31.99c-15.63-8.25-35.53-14.95-41.32-11z" fill="url(#paint3_linear_1338_1255)" stroke="#E0A070" stroke-miterlimit="10" stroke-width=".7"/>
  <path d="m15.29 85.11c-3.58 2.75 1.82 17.72 6.74 26.19l14.03-18.99c-8.14-5.26-17.79-9.4-20.77-7.2z" fill="#FFC8A2" stroke="#FFE4CC" stroke-miterlimit="10" stroke-width=".7"/>
  <path d="m196.3 95.01c-12.01-11-26.18-17.93-45.22-20.1-4.92 2.23-7.34 3.74-7.92 4.02-1.08-11-3.11-18.65-7.71-19.32-9.7-1.46-26.29 11.21-35.2 20.32-7.2-2.17-13.6-2.85-20.06-2.68-28.34 0-55.03 14.4-64.73 44.2-5.13 15.94-3.48 32.29 0.6 42.73 8.42 14.74 23.17 19.91 51.8 21.09 1.14 5.79 8.96 13.07 39.06 14.69l3.3 19.19c-2.92 2.11-3.03 7.28-1.73 10.24 2.92 6.36 13.78 5.35 19.74 1.12 3.3-2.47 4.66-5.49 6.37-39.5 12.3-10.17 15.93-18.81 32.29-21.77 1.26 12.56 5.13 21.48 15.87 28.07 3.04 1.94 2.03 7.42 1.21 14.53-4.65 2.97-5.14 8.45-3.21 12.35 2.31 4.6 9.37 4.1 14.61 2.64 6.4-1.81 9.01-6.65 13.93-24.99 3.05-10.72 1.4-12.72-0.31-15.09-2.92-3.82-2.21-9.6 0.98-19.06 8.91-27.08 3.88-56.56-13.67-72.68z" fill="url(#paint4_linear_1338_1255)" stroke="#FFE4CC" stroke-miterlimit="10" stroke-width=".7"/>
  <path d="m144.7 76.91c1.3 9.8 0 26.32-4.65 38.31 3.15 5.84 5.09 13.54 5.09 22.01 0 23.23-14.44 50.74-57.63 51.6-5.59 0.12-11.33-0.57-14.25-1.42 19.74-1.12 35.93-4.48 45.92-10.59 14.75-8.91 23.06-20.21 23.06-40.21 0-8.47-3.15-18.58-4.8-21.22 4.2-8.15 5.85-23.25 5.67-35.35 0.64-1.11 0.87-1.96 1.59-3.13z" fill="#FFC8A2" stroke="#FFE4CC" stroke-miterlimit="10" stroke-width=".7"/>
  <path d="m151.4 136.8-12.01 1.67c-1.99 0.3-2.95 4.31 0.11 4.87l11.73-2c3.25-0.67 3.42-4.94 0.17-4.54z" fill="#FFC8A2"/>
  <path d="m148.6 150.1-9.99-1.29c-2.92 0-3.21 4.57 0.29 5.37l9.7 2.06c3.4 0.39 3.83-5.45 0-6.14z" fill="#FFC8A2"/>
  <path d="m127.1 73.31c-5.35 0.85-13.23 9.6-15.92 13.6 7.77 4.45 13.11 8.83 18.15 14.61 3.36-10.88 5.29-29.33-2.23-28.21z" fill="#FFC8A2" stroke="#FFE4CC" stroke-miterlimit="10" stroke-width=".7"/>
  <path d="m116 136.1c0 10.82-8.36 17.87-16.95 17.87-9.26 0-15.83-8.25-15.83-17.06 0-8.8 7.52-16.26 15.83-16.26 8.85 0 16.95 7.46 16.95 15.45z" fill="#fff"/>
  <path d="m108.7 137.7c0 7.89-6.4 13.07-12.58 13.07-7.2 0-12.18-6.8-12.18-13.07 0-7.23 5.8-12.4 12.18-12.4 7.2 0 12.58 6.41 12.58 12.4z" fill="url(#paint5_linear_1338_1255)"/>
  <path d="m93.92 135.6c0 2.56-1.93 3.67-3.4 3.67-1.82 0-3.01-1.56-3.01-3.12 0-1.94 1.57-3.35 3.01-3.35 2.09 0 3.4 1.46 3.4 2.8z" fill="#fff"/>
  <path d="m26.11 137.9c0 9.91 7.35 17.37 15.94 17.37 9.82 0 13.97-8.52 13.79-16.5-0.23-9.4-7.04-16.2-15.03-16.2-7.76 0-14.7 7.57-14.7 15.33z" fill="#fff"/>
  <path d="m29.74 139.1c0 7.89 6.4 13.67 12.59 13.67 8.36 0 12.5-6.41 12.33-13.21-0.23-7.23-5.92-12.84-12.33-12.84-7.2 0-12.59 6.41-12.59 12.38z" fill="url(#paint6_linear_1338_1255)"/>
  <path d="m39.96 138.4c2.26-0.34 3.08-2.07 2.79-3.74-0.34-1.62-1.82-2.58-3.19-2.36-1.88 0.34-3.45 1.86-3.45 3.48s1.57 2.95 3.85 2.62z" fill="#fff"/>
  <path d="m107.3 118.6-27.02 14.2c-2.2 1.11-1.2 4.88 1.12 4.1l27.36-15.19c1.61-1.01 0.31-4.03-1.46-3.11z" fill="url(#paint7_linear_1338_1255)"/>
  <path d="m31.36 123c-1.08 2.06 0.17 3.28 1.47 3.9l23.41 10.49c2.98 1.33 3.8-3.41 1.48-4.36l-24.61-11.48c-0.88-0.44-1.46 0.73-1.75 1.45z" fill="url(#paint8_linear_1338_1255)"/>
  <path d="m126.5 150.1c0.98 4.06-3.53 8.01-9.99 9.13-4.65 0.85-6.42-2.11-6.42-4.17 0-3.41 3.82-7.47 9.51-8.03 3.54-0.44 6.3 0.79 6.9 3.07z" fill="#FFE4CC"/>
  <path d="m36.06 156.7c3.76 2.6 1.16 8.03-5.24 7.46-5.9-0.56-8.7-4.07-8.7-6.44 0-3.47 4.04-4.64 6.59-4.03 2.65 0.62 4.4 1.24 7.35 3.01z" fill="#FFE4CC"/>
  <path d="m61.01 146.8c-0.88 2.74 1.92 6.56 6.84 6.9 4.4 0.28 6.76-4.27 6.76-6.9 0-2.18-2.65-2.8-5.8-2.8-3.58 0-7.06 0.34-7.8 2.8z" fill="#FF91A4" stroke="#FF91A4" stroke-miterlimit="10" stroke-width=".7"/>
  <path d="m67.62 153.9 0.23 2.29h2.61l0.17-2.63-3.01 0.34z" fill="#472916"/>
  <path d="m64.92 157c-5.64 1.25-8.29 5.42-8.29 10.05 0 3.07 2.11 4.41 3.98 4.41 2.81 0 4.68-0.73 6.1-1.63 2.92-0.72 7.01 0.29 11.21 0.9 4.84 0.67 6.49-1.39 6.49-4.13 0-5.48-4.65-10-7.57-10-2.15 0-4.82 0.4-11.92 0.4z" fill="url(#paint9_linear_1338_1255)"/>
  <path d="m62.21 159c-1.94 0.67-3.3 2.18-3.3 3.95 0 1.82 1.13 2.78 2.21 2.78 1.72 0 3.02-2.75 4.03-5.49-0.43-0.96-1.19-1.75-2.94-1.24z" fill="#fff"/>
  <path d="m74.81 162.7c0.88-2.63 1.6-5.76 2.8-5.59 1.71 0.28 4.46 2.06 6.11 5.83-2.6-1.23-5.4-1.51-8.91-0.24z" fill="#fff"/>
  <path d="m4.22 145.2 9.7 1.06v3.57l-9.99-1.83c-2.92-0.56-2.04-3.19 0.29-2.8z" fill="#FFC8A2" stroke="#FFE4CC" stroke-miterlimit="10" stroke-width=".7"/>
  <path d="m13.58 156.7-7.29 3.5c-1.65 1.11-0.46 4.3 2.05 3.4l7.82-3.51-0.88-4.01-1.7 0.62z" fill="#FFC8A2" stroke="#FFE4CC" stroke-miterlimit="10" stroke-width=".7"/>
  <defs>
    <linearGradient id="paint0_linear_1338_1255" x1="249" x2="190.8" y1="20.26" y2="113.4" gradientUnits="userSpaceOnUse">
      <stop stop-color="#FFC8A2" offset="0"/>
      <stop stop-color="#E0A070" offset="1"/>
    </linearGradient>
    <linearGradient id="paint1_linear_1338_1255" x1="164.2" x2="164.2" y1="180.1" y2="220.6" gradientUnits="userSpaceOnUse">
      <stop stop-color="#FFC8A2" offset="0"/>
      <stop stop-color="#FFC8A2" offset="1"/>
    </linearGradient>
    <linearGradient id="paint2_linear_1338_1255" x1="74.51" x2="74.51" y1="185.2" y2="227.7" gradientUnits="userSpaceOnUse">
      <stop stop-color="#FFC8A2" offset="0"/>
      <stop stop-color="#FFC8A2" offset="1"/>
    </linearGradient>
    <linearGradient id="paint3_linear_1338_1255" x1="31.6" x2="31.6" y1="72.74" y2="121.2" gradientUnits="userSpaceOnUse">
      <stop stop-color="#FFC8A2" offset="0"/>
      <stop stop-color="#E0A070" offset="1"/>
    </linearGradient>
    <linearGradient id="paint4_linear_1338_1255" x1="114.5" x2="114.5" y1="59.43" y2="233.9" gradientUnits="userSpaceOnUse">
      <stop stop-color="#FFC8A2" offset="0"/>
      <stop stop-color="#FFC8A2" offset="1"/>
    </linearGradient>
    <linearGradient id="paint5_linear_1338_1255" x1="96.33" x2="96.33" y1="125.3" y2="150.8" gradientUnits="userSpaceOnUse">
      <stop stop-color="#333" offset="0"/>
      <stop stop-color="#282828" offset="1"/>
    </linearGradient>
    <linearGradient id="paint6_linear_1338_1255" x1="42.23" x2="42.23" y1="126.7" y2="152.7" gradientUnits="userSpaceOnUse">
      <stop stop-color="#333" offset="0"/>
      <stop stop-color="#282828" offset="1"/>
    </linearGradient>
    <linearGradient id="paint7_linear_1338_1255" x1="94.36" x2="94.36" y1="118.4" y2="137.1" gradientUnits="userSpaceOnUse">
      <stop stop-color="#C06838" offset="0"/>
      <stop stop-color="#C06838" offset="1"/>
    </linearGradient>
    <linearGradient id="paint8_linear_1338_1255" x1="44.7" x2="44.7" y1="121.4" y2="137.6" gradientUnits="userSpaceOnUse">
      <stop stop-color="#C06838" offset="0"/>
      <stop stop-color="#C06838" offset="1"/>
    </linearGradient>
    <linearGradient id="paint9_linear_1338_1255" x1="70.52" x2="70.52" y1="156.6" y2="171.5" gradientUnits="userSpaceOnUse">
      <stop stop-color="#993939" offset="0"/>
      <stop stop-color="#B74456" offset="1"/>
    </linearGradient>
  </defs>
</svg>