<svg xmlns="http://www.w3.org/2000/svg" width="186" height="220" fill="none" viewBox="0 0 186 220">
<!-- SVG created with Arrow, by QuiverAI (https://quiver.ai) -->
  <path d="m70.49-1.68c5.35 0 8.52-2.61 9.16-6.56 0.31-1.95-1.76-4.47-5.74-4.69-5.98-0.33-10.18 3.14-10.18 5.87 0 2.61 2.66 5.38 6.76 5.38z" fill="url(#paint0_linear_131_2932)"/>
  <path d="m122.7 52.36c0.6-9.27 3.01-17.27 6.55-17.27 8.55 0 23.65 14.69 32.95 36.22l0.67 1.81-10.68-2.06-29.49-18.7z" fill="url(#paint1_linear_131_2932)"/>
  <path d="m50.01 56.61c-7.13 2.71-3.23 16.88 8 34.09 1.58 2.67 3.2 5.06 4.82 7.03-1.36 8.55-0.85 16.2 0.55 22.02l-8.33 1.18-1.14 0.18-0.2 0.96c-0.33 1.54 0.71 2.71 2.07 2.54l9-1.1 1.5 3.5c-12.16 2.17-22.17 6.46-28.92 15.95-8.2-4.8-14.22-13.18-13.95-24.3 0.44-11.89 10.42-22.54 10.71-31.07 0.24-7.01-4.11-12.68-11.91-13-11.48-0.48-21.15 15.87-22.14 32.64-0.98 16.76 6.14 37.76 26.42 46.07 1.66 0.72 3.38 1.31 5.14 1.79-1.57 4.79-1.85 9.87-1.42 15.97 0.2 3.1 0.07 7.55-1.42 8.65-3.58 2.67-5.05 2.07-7.78 10.15s-3.62 17.85 1.6 23.24c2.31 1.81 5.33 2.19 8.77 0.12 3.81-2.24 5.78-7.25 6.84-12.8 4.17 0.53 7.89-0.41 11.19-1.41-0.89 7.52 2.3 13.27 7.72 13.65 5.78 0.41 9.77-6.29 10.38-13.85 8.96-0.2 14.78-4.69 19.5-11.63 9.82-2.59 19.21-6.77 28.18-11.02 3.15 0.73 3.92 2.85 6.52 6.02 4.78 5.81 12.01 4.55 15.67 1.23 5.9-5.32 2.6-15.29-2.06-21.27 4.26 0.65 7.56 1.77 9 4.93 2.62 5.81 7.8 7.04 11.4 6.56 6.09-0.79 8.9-8.31 6.61-14.82-3.42-10.05-12.51-14.15-19.45-14.94l-0.16-1.01c17.19-5.15 33.39-15.57 34.2-31.79l8.92 1.58 0.98-0.24 0.29-1.3c0.36-1.66-0.78-2.15-1.64-2.23l-8.41-0.77-0.2-5.24 9.43-2.89 0.65-0.87-0.16-1.18c-0.29-1.58-1.47-1.14-2.08-1.02l-8.51 1.71c-2.05-9.81-6.13-19.78-13.26-27.51-9.86-11.1-22.91-18.75-40.7-18.75h-0.2c-0.4-0.04-0.81-0.04-1.25-0.04-12.69 0-22.75 2.75-32.77 7.81-10.85-4.41-27.85-7.12-38-3.52z" fill="url(#paint2_linear_131_2932)"/>
  <path d="m140.3 146.7c-2.37 5.94-5.02 10.55-7.03 13.79 1.7 0.56 6.7 0.9 9.6 3.65 2.05 2.01 2.25 8.72 9.53 9.15 6.9 0.4 9.56-6.9 8.67-11.94-1.7-9.66-10.85-16.01-20.77-14.65z" fill="url(#paint3_linear_131_2932)"/>
  <path d="m142 143.4c-10.85 6.52-21.7 9.69-35.79 9.33-15.51-0.44-28.61-4.94-36.21-17.83l0.89-1.89c7.27 9.39 18.88 14.7 36.58 14.7 14.35 0 25.24-1.97 34.53-5.51v1.2z" fill="#FFC8A2"/>
  <path d="m116.1 155.1c11.65 0 23.32 7.92 23.32 20.57 0 5.94-3.7 8.3-7.97 8.06-5.78-0.33-6.76-6.58-10.34-8.55-4.93-2.67-8.74-1.96-17.46-1.64" stroke="#FFC8A2" stroke-linecap="round" stroke-width="2.5"/>
  <path d="m63.77 176.5c-1.1 12.3-12.26 23.34-26.69 21.98-1.02 6.95-4.97 14.39-10.83 14.39-5.14 0-6.84-5.77-6.03-11.93 0.89-7.03 3.55-17.17 8.65-18.69 3.84-1.17 1.87-7.31 1.87-15.07 0-17.17 10.19-32.92 26.98-38.28 4.91-1.58 10.01-2.72 12.25-1.99l0.98 2.32c-1.93 1.7-3.18 2.47-3.18 2.47 5.7 7.51 10.4 16.3 33.51 19.47-10.85 2.89-21.5 0.81-33.51-17.87 2.41 5.55-1.54 19.96-4 43.2z" fill="url(#paint4_linear_131_2932)"/>
  <path d="m60.52 189.6c6.34 0.4 16.76 0 25.64-2.67l0.85-0.29c-4.23 6.59-11.05 11.56-19.99 11.16l0.2-0.08c-0.81 5.51-3.29 13.31-9.99 13.31-6 0-7.41-7.03-7.21-11l0.2-1.6c3.81-1.44 8.31-4.69 10.3-8.83z" fill="url(#paint5_linear_131_2932)"/>
  <path d="m66.82 118.8-11.77 1.54" stroke="#E0A070" stroke-linecap="round" stroke-width="4.5"/>
  <path d="m69.78 128.8-9.01 4.48" stroke="#E0A070" stroke-linecap="round" stroke-width="4.5"/>
  <path d="m102.1 91.02c-8.8 0-14.62 7.72-14.62 15.06 0 8.24 7.13 15.23 14.82 15.23 8.68 0 15.08-6.6 15.08-14.36 0-7.72-7.13-15.93-15.28-15.93z" fill="#fff"/>
  <path d="m105.4 96.11c-7.52 0-11.22 6.52-11.22 11.31 0 6.52 5.5 11.32 10.9 11.32 6.82 0 12.22-5.4 12.22-11.44 0-6.52-5.48-11.19-11.9-11.19z" fill="#2D2D2B"/>
  <path d="m109 99.11c-2.41 0-2.94 1.87-2.94 2.96 0 1.87 1.58 3.05 2.86 3.05 1.93 0 3.28-1.71 3.28-3.21 0-1.74-1.56-2.8-3.2-2.8z" fill="#fff"/>
  <path d="m150.7 83.02c-8.55-0.4-12.66 8.29-12.66 14.33 0 7.73 6.12 14.25 12.21 14.25 8.07 0 14.08-6.99 14.08-13.99 0-7.35-6.62-14.3-13.63-14.59z" fill="#fff"/>
  <path d="m153.1 87.07c-6.82 0-10.52 5.81-10.52 10.6 0 6.51 5.1 11.3 10.52 11.3 6.42 0 11.2-5.81 11.2-11.3 0-6.04-5.22-10.6-11.2-10.6z" fill="#2D2D2B"/>
  <path d="m157 89.49c-2.41 0-3.18 1.42-3.18 2.78 0 1.97 1.42 2.99 2.78 2.99 1.93 0 3.07-1.66 3.07-2.99 0-1.76-1.26-2.78-2.67-2.78z" fill="#fff"/>
  <path d="m125.4 108.1c-1.89 1.44-0.27 4.1 2.23 5.34 2.41 1.2 5.31 1 6.8-0.8 1.81-2.27 3.57-4.7 2.51-5.72-2.1-2.05-8.66-0.85-11.54 1.18z" fill="#FF91A4"/>
  <path d="m123.1 118.7c2.5 3.29 9.2 2.51 10.09-3.43 3.01 3.67 8.03 2.47 8.8-0.8" stroke="#C06838" stroke-linecap="round" stroke-linejoin="round" stroke-width="2.5"/>
  <path d="m56.63 67.71c-0.61-3.7 2.41-4.18 5.88-3.86 4.59 0.44 11.53 2.94 15.1 4.51-4.78 4.41-8.88 11.36-10.87 17.05-4.78-3.66-9.35-12.6-10.11-17.7z" fill="#FFC8A2"/>
  <path d="m160.1 116.7c-3.14-1.54-0.73-6.51 3.5-8.48 3.3-1.48 6.45 0 6.81 1.61 0.81 3.52-5.09 9.36-10.31 6.87z" fill="#FFC8A2"/>
  <path d="m82.13 123.9c-1.12 3.13 2.58 5.57 6.99 5.57 4.78 0 6.94-2.12 6.94-4.17 0-3.28-3.54-5.52-8.6-5.52-3.04 0-4.68 1.43-5.33 4.12z" fill="#FFC8A2"/>
  <defs>
    <linearGradient id="paint0_linear_131_2932" x1="71.69" x2="71.69" y1="-13.05" y2="-1.681" gradientUnits="userSpaceOnUse">
      <stop stop-color="#FFC8A2" offset="0"/>
      <stop stop-color="#FFC8A2" offset="1"/>
    </linearGradient>
    <linearGradient id="paint1_linear_131_2932" x1="142.8" x2="142.8" y1="35.09" y2="73.12" gradientUnits="userSpaceOnUse">
      <stop stop-color="#FFC8A2" offset="0"/>
      <stop stop-color="#E0A070" offset="1"/>
    </linearGradient>
    <linearGradient id="paint2_linear_131_2932" x1="93.56" x2="93.56" y1="35.09" y2="214.5" gradientUnits="userSpaceOnUse">
      <stop stop-color="#FFC8A2" offset="0"/>
      <stop stop-color="#FFC8A2" offset="1"/>
    </linearGradient>
    <linearGradient id="paint3_linear_131_2932" x1="150.8" x2="150.8" y1="146.5" y2="173.4" gradientUnits="userSpaceOnUse">
      <stop stop-color="#FFC8A2" offset="0"/>
      <stop stop-color="#E0A070" offset="1"/>
    </linearGradient>
    <linearGradient id="paint4_linear_131_2932" x1="49.36" x2="49.36" y1="126.6" y2="212.9" gradientUnits="userSpaceOnUse">
      <stop stop-color="#FFC8A2" offset="0"/>
      <stop stop-color="#FFC8A2" offset="1"/>
    </linearGradient>
    <linearGradient id="paint5_linear_131_2932" x1="68.51" x2="68.51" y1="186.6" y2="211" gradientUnits="userSpaceOnUse">
      <stop stop-color="#FFC8A2" offset="0"/>
      <stop stop-color="#E0A070" offset="1"/>
    </linearGradient>
  </defs>
</svg>