<svg xmlns="http://www.w3.org/2000/svg" width="250" height="250" fill="none" viewBox="0 0 250 250">
<!-- SVG created with Arrow, by QuiverAI (https://quiver.ai) -->
  <path d="m129.1 67.78c5.77-14.5 19.68-33.46 27.94-33.78 7.64-0.29 16.18 16.28 18.71 29.71l0.16 0.85 0.33 0.61-10.02 3.94-37.12-1.33z" fill="#FFC8A2"/>
  <path d="m142.3 61.59c4.53-8.8 10.4-16.1 14.81-16.1 3.88 0 7.99 9.92 9.59 17.15l-5.66 6.09-22.94-2.52 4.2-4.62z" fill="#FFC8A2"/>
  <path d="m208.2 86.41c13.96-1.4 29.76 1.44 34.84 6.45 3.75 2.32 3.55 6.55-2.14 15.25-6.13 9.52-15.67 18.97-24.71 24.99l-8.96-15.06 0.97-31.63z" fill="#FFC8A2"/>
  <path d="m213 94.81c8.23-0.1 18.42 1 20.05 3.4 3.1 4.62-6.75 14.66-15.93 21.98l-4.12-2.98v-22.4z" fill="#FFC8A2"/>
  <path d="m112.2 84.19-5.59-5.36c-0.99-0.96-2.17-0.65-2.53-0.02-0.46 0.81-0.28 2.01 0.46 2.75l5.9 5.86 1.76-3.23z" fill="#FFC8A2"/>
  <path d="m108.2 92.91-7.08-2.99c-1.3-0.55-2.19 0.26-2.41 1.3-0.28 1.25 0.26 2.45 1.2 2.77l6.94 2.62 1.35-3.7z" fill="#FFC8A2"/>
  <path d="m91.42 109.3c-8.44 0-15.01 3.83-15.51 10.16-0.45 5.67 5.38 10.31 11.37 9.59l3.75-0.47c0.82 5.25 2.86 10.18 5.93 13.84l21.97-7.71c-5.14-5.24-9.99-12.63-12.62-19-2.69-3.94-7.6-6.41-14.89-6.41z" fill="#FFC8A2"/>
  <path d="m26.97 123.2c-6.03 0-9.59 3.06-14.6 11.3-5.65 9.25-7.1 17.02-6.68 26.44 0.97 17.82 17.18 45.8 53.27 46.28 7.23 0.1 13.8-1.13 19.03-2.77l-6.2-12.26c-4.18 0-8.56 0.7-16.68-1.24-9.09-2.31-25.03-13.71-25.19-27.04-0.1-11.1 6.27-15.04 8.69-21.27 3.46-8.04-1.42-19.44-11.64-19.44z" fill="#FFC8A2"/>
  <path d="m57.91 125.5c-7.08 0-11.8 14.34-13.82 24.61-1.63 8.25 1.05 11.59 9.8 12.69-1.17 6.23-0.11 12.56 6.26 18l8.17-9.45 19.59-26.24c-2.99-6.44-12.73-10.11-22.27-4.66 1.17-7.05-0.26-14.4-7.73-14.95z" fill="#E0A070"/>
  <path d="m168.6 166c-11.66 25.96-33.6 48.89-63.7 48.98-24.8 0-44.8-16.32-45.35-37.15-0.45-15.14 11.26-31.77 27.73-35.14 7.79-1.65 16.82-4.49 25.62-9.2-7.64-11.42-9.12-24.42-6.8-33.45 4.9-19.81 24.06-40.3 49.9-40.3 25.3 0 51.9 18.15 61.08 43.04 4.02 11.01 1.6 31.26-5.97 45.12-3.83 6.86-10 18.39-30 19.59-4 0-8.22-0.57-12.51-1.49z" fill="#FFC8A2"/>
  <path d="m147.4 92.77c0 8.51-7.22 14.72-13.6 14.35-7.84-0.45-12.93-6.2-12.93-12.41 0-7.9 6.79-14.68 13.87-14.68 8 0 12.66 5.98 12.66 12.74z" fill="#FEFFFE"/>
  <path d="m144.1 94.09c-1.3 7.17-7.13 12.52-12.9 12.07-6.23-0.55-10.1-5.9-10.1-11.45 0-7.32 6.23-11.94 12.46-11.94 6.79 0 11.84 4.86 10.54 11.32z" fill="url(#paint0_linear_201_525)"/>
  <path d="m141.4 92.27c0 2.77-3.24 4.07-5.12 2.44-1.87-1.48-1.6-4.7 0.91-5.62 2.37-0.85 4.21 0.92 4.21 3.18z" fill="#FEFFFE"/>
  <path d="m190.7 123.8c0 9.45-7.89 15.12-14.97 14.67-8.75-0.58-14.73-8.05-14.73-15.1 0-8.65 7.7-14.63 15.34-14.63 8.9 0 14.36 7.35 14.36 15.06z" fill="#FEFFFE"/>
  <path d="m183.9 122.7c0 7.35-6.57 12.55-12.22 12.1-6.79-0.55-10.97-6.35-10.69-12.1 0.46-7.35 6.44-11.97 12.1-11.97 6.78 0 10.81 6.43 10.81 11.97z" fill="url(#paint1_linear_201_525)"/>
  <path d="m174.3 113.6c2.69 1.08 1.17 6.15-2.29 5.55-3.93-0.7-3.98-5.55-0.27-5.89 0.91-0.1 1.79 0.05 2.56 0.34z" fill="#FEFFFE"/>
  <path d="m143 109.1c1.79-1.48 5.1 0.16 9.86 4.69 2.37 2.31 0 5-4.91 5-4.28 0-6.8-8.03-4.95-9.69z" fill="#FF91A4"/>
  <path d="m134.7 114c-0.87 2.84 0.97 7.03 5.26 7.03 3.93 0 5.24-3.1 5.24-4.93l-1.98-0.65c-0.25 1.93-1.55 3.24-3.52 3.09-2.68-0.2-3.28-2.61-3.03-4.09 0.15-1.01-1.54-1.77-1.97-0.45z" fill="#C06838"/>
  <path d="m135.1 123.7c1.06-1.23 2.85-1.68 4.12-1.48 3.93 0.55 8.01 3.6 9.03 6.44-1.93 2.58-7.1 4.51-10.55 3.07-3.35-1.33-3.74-5.66-2.6-8.03z" fill="#D46479"/>
  <path d="m141.7 119.6c0.51 1.25 1.97 4.62 6.3 7.03 1.8 0.97 3.77 1.29 5.12 0.53 1.11-0.65 0.66-2.86-0.98-2.41-2.22 0.7-3.53 0-4.96-1.02-1.7-1.23-2.57-3.21-2.98-4.44-0.6-1.23-3.02-1.03-2.5 0.31z" fill="#C06838"/>
  <path d="m112.9 97.34c3.24-0.9 6.08 2.37 7.51 6.12 1.33 3.66-1.35 5.27-3.67 4.72-3.86-1.01-6.11-4.27-6.31-7.37-0.15-1.83 0.6-3.02 2.47-3.47z" fill="#FFE4CC"/>
  <path d="m176.2 142.4c4.43-1.4 9.46-0.32 11.44 3.82 1.53 3.4-0.34 5.11-2.87 5.56-4.58 0.9-9.61-2.04-11.13-4.67-1.22-2.31 0.13-3.96 2.56-4.71z" fill="#FFE4CC"/>
  <path d="m146.6 155.1c6.21 5.7 15.01 9.71 22 10.91l-2.17 2.41c-7.95-1.17-15.22-3.37-20.53-5.37-1.5-10.05-8-20.9-22.19-20.9-8.8 0-12.91 5.15-12.91 9.55 0 5.5 5.26 9.2 10.3 9.2 3.24 0 5.92-1.1 8.03-2.54 1.33-0.91 2.37 1.54 1.07 2.34-1.43 0.95-2.93 1.55-3.99 1.9-0.31 5.45 0.71 11.1 6.22 14.45 1.31 0.85-0.22 2.56-1.62 1.7-5.84-3.45-7.2-9.62-7.4-15.45-1.01 0.2-2.06 0.3-3.2 0.3-6.79 0-12.06-5.39-12.06-11 0-6.33 5.56-12.91 16.03-12.91 11.62 0 19.62 7.42 22.42 15.41z" fill="#FFC8A2"/>
  <path d="m85.72 147.9c-7.79 0.75-20.13 19.14-20.13 28.49 0 6.03 3.34 8.34 8.95 8.94-1.23 5.5 0.57 11.25 3.37 14.09 1.3 1.35 3.05-0.53 1.8-1.97-3.4-3.84-3-8.86-2.4-13.05l0.25-1.23-1.35-0.15c-4.99-0.6-7.59-2.33-7.59-7.13 0-7.1 10.49-24.77 17.86-25.52 4.81-0.5 6.83 4.42 6.63 8.03-0.2 2.74-0.9 7.6-2 10.69 2.94-1.3 4.59-2.95 10.2-1.9 7.8 1.45 14.06 7 14.06 14.7 0 1.83 2.47 1.68 2.37-0.2-0.4-9.5-7.82-15.55-16.03-16.5-2.8-0.35-5.13 0.15-7 0.81 0.45-2.21 0.7-4.71 0.7-7.01 0-5.7-3.25-11.74-9.69-11.09z" fill="#FFC8A2"/>
  <path d="m203.1 150.8c-1.36 1.07-1.26 2.57 0.27 3.62l9.26 5.65c2.32 1.45 3.38-1.39 2.13-3.2l-9-6.42c-0.8-0.6-1.91-0.5-2.66 0.35z" fill="#FFC8A2"/>
  <path d="m196.7 157.6c-1.25 1-1 2.39-0.1 3.49l6.11 7.15c1.7 1.55 3.97-0.7 2.87-2.75l-5.93-7.59c-0.8-1.05-2-1.1-2.95-0.3z" fill="#FFC8A2"/>
  <defs>
    <linearGradient id="paint0_linear_201_525" x1="132.6" x2="132.6" y1="82.77" y2="106.2" gradientUnits="userSpaceOnUse">
      <stop stop-color="#202121" offset="0"/>
      <stop stop-color="#343535" offset="1"/>
    </linearGradient>
    <linearGradient id="paint1_linear_201_525" x1="172.5" x2="172.5" y1="110.7" y2="134.8" gradientUnits="userSpaceOnUse">
      <stop stop-color="#202121" offset="0"/>
      <stop stop-color="#343535" offset="1"/>
    </linearGradient>
  </defs>
</svg>