<svg xmlns="http://www.w3.org/2000/svg" width="194" height="296" fill="none" viewBox="0 0 194 296">
<!-- SVG created with Arrow, by QuiverAI (https://quiver.ai) -->
  <path d="m155.1 211.9c11.92 10.03 20.88 28.89 20.53 45.73-0.31 14.28-8.82 31.18-20.94 31.18-8.85 0-10.78-5.97-11-9.82-0.34-6.04 4.39-11.1 7.43-15.95 5.64-8.93 5.07-20.76 0.36-30.09-1.27-2.65-6.27-6.74-3.72-11.73 1.49-3.11 3.32-8.02 7.34-9.32z" fill="#FFC8A2" stroke="#E0A070" stroke-linecap="round" stroke-linejoin="round" stroke-width="1.08"/>
  <path d="m156.1 213.4c1.19 7.65-1.19 13.59-4.64 18.37l-1.42-2.72-1.73-2.05 5.45-14.21 2.34 0.61z" fill="#E0A070" stroke="#E0A070" stroke-linecap="round" stroke-linejoin="round" stroke-width="1.08"/>
  <path d="m80.11 214.4c-3.2 10.85-1.66 22.31 8.95 29.21 1.91 1.27 1.86 1.3 0.89 4.11-1.54 4.77-2.03 15.75 5.67 15.75 7.29 0 10.5-7.88 13.5-17.84l0.49-10.92 11.4-1 8.35 10.14c-2.27 4.39-5.08 15.85 0.25 19.68 3.47 2.58 10.13 0.18 13.48-6.12 2.81-5.26 5-10.93 4.38-15.29-0.75-5.24-0.61-6.86 2.35-11.51 4.29-6.68 6.69-20.4 4.96-30.45-3.03-17.43-9.79-33.08-18.65-51.01l-1.17-1.74 0.02-1.2-25.76-9.74-40.25 7.59-12.39 31.13c-3.69 11.9-6.5 34.57 1.23 41.54 3.2 3.04 7.7 2.06 9.9-0.68 2.5-3.2 3.98-11.08 3.98-11.08l3.2 6.97 5.22 2.46z" fill="#FFC8A2" stroke="#E08858" stroke-linecap="round" stroke-linejoin="round" stroke-width="1.08"/>
  <path d="m80.11 218.2c3.2 9.38 12.56 19 29.36 19l0.25-3.02-0.11-0.5-8.35-0.75c-6.08-1.48-12.55-4.4-17.22-10.23l-3.93-4.5z" fill="#E0A070" stroke="#E0A070" stroke-linecap="round" stroke-linejoin="round" stroke-width="1.08"/>
  <path d="m93.07 254.1v4.81" stroke="#E08858" stroke-linecap="round" stroke-linejoin="round" stroke-width="1.08"/>
  <path d="m98.86 256.5v5.51" stroke="#E08858" stroke-linecap="round" stroke-linejoin="round" stroke-width="1.08"/>
  <path d="m130.1 256.5v4.52" stroke="#E08858" stroke-linecap="round" stroke-linejoin="round" stroke-width="1.08"/>
  <path d="m136.9 257.5v5.26" stroke="#E08858" stroke-linecap="round" stroke-linejoin="round" stroke-width="1.08"/>
  <path d="m57.81 210.7 0.98 4.47" stroke="#E08858" stroke-linecap="round" stroke-linejoin="round" stroke-width="1.08"/>
  <path d="m64.57 212.7v4.99" stroke="#E08858" stroke-linecap="round" stroke-linejoin="round" stroke-width="1.08"/>
  <path d="m123.8 212.9c-4.21 5.75-5.48 15.91-2.51 21.65" stroke="#E08858" stroke-linecap="round" stroke-linejoin="round" stroke-width="1.08"/>
  <path d="m70.01 188.5c1.68 12.23 4.71 23.43 8.2 27.9" stroke="#E08858" stroke-linecap="round" stroke-linejoin="round" stroke-width="1.08"/>
  <path d="m97.88 182.7c-0.6 9.68-2.7 25.98 2.03 32.23 2.5 3 8.98 2.51 11.71-0.49 6.24-6.72 8.74-19.44 8.74-31.98" stroke="#E08858" stroke-linecap="round" stroke-linejoin="round" stroke-width="1.08"/>
  <path d="m103.9 210.7v4.71" stroke="#E08858" stroke-linecap="round" stroke-linejoin="round" stroke-width="1.08"/>
  <path d="m109.1 210.7v5.46" stroke="#E08858" stroke-linecap="round" stroke-linejoin="round" stroke-width="1.08"/>
  <path d="m45.08 77.48c-8.89-3.2-19.02-3.49-26.9-3.49-12.23 0-17.3 0.73-17.79 6.98-1.17 9.64 6.71 26.57 15.86 40.29l28.83-43.78z" fill="#FFC8A2" stroke="#E08858" stroke-linecap="round" stroke-linejoin="round" stroke-width="1.08"/>
  <path d="m19.71 107.4c3.3-7.3 7.77-13.6 7.77-13.6-2.74-6-13.89-9.47-18.87-8.73-4.47 0.74-4.47 3.48-2.74 7.95 1.97 5.75 6.69 14.61 10.91 19.33l2.93-4.95z" fill="#FFE4CC"/>
  <path d="m144.5 121.3c-0.74-12.73-5.71-22.11-9.45-27.64l0.24-13.47-7.87-32.04c-3.23-5.18-6.56-6.15-10.49-4.43-8.61 3.69-15.61 11.81-20.81 17.43l-6 4.81c-18.66-0.98-35.36 3.22-46.26 10.68-14.69 9.41-27.6 26.34-27.6 54.24 0 21.47 10.14 42.45 41.69 45.92 21.97 2.74 46.19-4.72 56.33-11.2 11.97-7.65 25.95-18.85 30.22-37.47v-6.83z" fill="#FFC8A2" stroke="#E08858" stroke-linecap="round" stroke-linejoin="round" stroke-width="1.08"/>
  <path d="m119.9 87.75c-5.77-5.59-10.07-8.59-19.17-11.55 4-9.19 11.3-21.94 19.65-27.14" stroke="#E08858" stroke-linecap="round" stroke-linejoin="round" stroke-width="1.08"/>
  <path d="m135 147.4c-6.01 8.37-15.24 15.66-22.17 19.38" stroke="#E08858" stroke-linecap="round" stroke-linejoin="round" stroke-width="1.08"/>
  <path d="m135 93.62v-4.99" stroke="#E08858" stroke-linecap="round" stroke-linejoin="round" stroke-width="1.08"/>
  <path d="m87.61 69.14c7.21-8.86 17.34-20.59 27.96-25.58 5.76-2.74 11.52-0.24 13.25 4.48 1.98 5.74-2.49 10.7-4.47 15.66-3.02 7.21-4.99 15.56-0.27 20.28 3.24 3 6.97 1.23 8.95-3.76 4.47-11.12 10.23-22.83 16.71-29.55 10.13-10.61 15.38-19.46 18.87-37.62l24.51-13.72-79.01 0.36-12.72 4.17c-7.29 2.5-12.54 6.23-16.76 10.7-5.47 5.46-13.59 9.2-18.06 14.16-3.24 3.73-2.27 10.7-1.53 16.95 0.74 6.48 3.48 13.44 6.48 20.41" fill="#F6B99F"/>
  <path d="m193.1-0.67-24.51 12.54c-1.8 0.94-2.3 2.57-2.79 4.84-3 12.5-7.22 21.87-17.35 32.48-6.98 6.97-12.74 17.33-16.96 27.94-2.24 5.75-4.48 8.49-6.72 8-4.72-0.99-6.21-9.84-2.48-19.48 3-7.88 10.2-16.74 5.97-27.85-2.24-4.96-8.21-6.94-14.94-2.22-4.73 3.24-7.22 8.2-10.72 13.45l0.25 3.24" stroke="#6B2001" stroke-linecap="round" stroke-linejoin="round" stroke-width=".72"/>
  <path d="m135.8 73.69c-2.06-3.5-5.06-4.55-7.99-3.5-3.73 1.48-3.96 5.95-2.97 11.92" stroke="#6B2001" stroke-linecap="round" stroke-linejoin="round" stroke-width=".72"/>
  <path d="m66.31 42.57c3.73-9.35 11.61-16.98 19.28-24.86" stroke="#6B2001" stroke-linecap="round" stroke-linejoin="round" stroke-width=".72"/>
  <path d="m86.33 17.71c-5.22 9.11-9.19 17.25-12.43 24.22-3 6.25-1.73 10.97 2.25 23.2" stroke="#6B2001" stroke-linecap="round" stroke-linejoin="round" stroke-width=".72"/>
  <path d="m94.68 23.46c-4 9.38-7.24 15.59-9.48 22.35-1.27 3.97 0.71 10.42 3.47 18.8" stroke="#6B2001" stroke-linecap="round" stroke-linejoin="round" stroke-width=".72"/>
  <path d="m105.6 12.32c-4.5 0.74-5.77 2.74-7.5 5.94" stroke="#6B2001" stroke-linecap="round" stroke-linejoin="round" stroke-width=".72"/>
  <path d="m60.12 136.3c-1.17-9.61-7.95-17.42-17.31-17.42s-15.33 7.81-15.33 17.42c0 9.12 7.46 17.48 16.07 17.48 9.36 0 17.31-7.88 16.57-17.48z" fill="#fff" stroke="#E08858" stroke-linecap="round" stroke-linejoin="round" stroke-width=".72"/>
  <path d="m57.81 133.2c-2.64-3.48-5.88-5.74-10.6-5.25-7.39 0.74-12.11 7.22-12.11 12.68 0 6.72 5.22 12.19 11.69 12.19 7.39 0 11.36-6.48 11.36-11.94 0-2.74 0.24-5.21-0.34-7.68z" fill="#000"/>
  <path d="m50.98 136.6c2.18 0.67 3.98-1.46 2.85-3.58-1.19-2.33-5.11-1.51-5.11 0.89 0 1.35 0.76 2.26 2.26 2.69z" fill="#fff"/>
  <path d="m117.9 125.2c0-10.35-8.72-17.52-17.15-17.52-10.62 0-18.05 8.17-18.05 18.78 0 9.37 7.43 17.29 16.79 17.29 9.86 0 18.41-8.17 18.41-18.55z" fill="#fff" stroke="#E08858" stroke-linecap="round" stroke-linejoin="round" stroke-width=".72"/>
  <path d="m110.6 130.1c0-7.41-5.47-12.37-11.94-12.37-7.92 0-12.87 6.2-12.87 12.37 0 7.41 5.96 12.6 12.43 12.6 6.91 0 12.38-5.91 12.38-12.6z" fill="#000"/>
  <path d="m103.4 126.6c2.52 0 3.24-2.74 1.74-4.22-1.74-1.74-4.48-0.51-4.48 1.48 0 1.5 0.99 2.74 2.74 2.74z" fill="#fff"/>
  <path d="m128.5 141c0-3.23-3-3.23-4.98-3.23-5.22 0-8.69 3-8.69 6 0 2.24 2.23 3.47 4.47 3.47 4.22 0 9.2-3 9.2-6.24z" fill="#FFE4CC"/>
  <path d="m44.58 160.1c0-2.5-3-3.24-6-3.24-3.97 0-6.47 0.99-6.47 3.73 0 2.24 2.24 3.73 6.22 3.73 3.25 0 6.25-1.98 6.25-4.22z" fill="#FFE4CC"/>
  <path d="m8.12 150.6 14.49-1.48" stroke="#E0A070" stroke-linecap="round" stroke-linejoin="round" stroke-width="4.32"/>
  <path d="m16.25 165.8 10.14-8.1" stroke="#E0A070" stroke-linecap="round" stroke-linejoin="round" stroke-width="4.32"/>
  <path d="m138 124.9 14.98-4.72" stroke="#E0A070" stroke-linecap="round" stroke-linejoin="round" stroke-width="4.32"/>
  <path d="m137.7 134.6 15.23 2.74" stroke="#E0A070" stroke-linecap="round" stroke-linejoin="round" stroke-width="4.32"/>
  <path d="m65.53 176.8c5.22 0.5 6.95 0.25 6.95 0.25" stroke="#E08858" stroke-linecap="round" stroke-linejoin="round" stroke-width="1.08"/>
  <path d="m72.48 140.1c3.24-0.74 4.97-1.45 4.97 0.8 0 2.74-3.47 5.98-4.97 5.98-2.74 0-6.97-1.48-6.97-4.73 0-3 3.24-3 6.97-2.05z" fill="#FF91A4" stroke="#FF91A4" stroke-linecap="round" stroke-linejoin="round" stroke-width="1.08"/>
  <path d="m73.46 147.8 0.49 4.72-5.74 4.21" stroke="#E08858" stroke-linecap="round" stroke-linejoin="round" stroke-width="1.08"/>
  <path d="m73.46 151.3 7.45 2.48" stroke="#E08858" stroke-linecap="round" stroke-linejoin="round" stroke-width="1.08"/>
</svg>